<svg width="60" height="60" viewBox="0 0 60 60" fill="none" xmlns="http://www.w3.org/2000/svg">
<foreignObject x="-16.8402" y="-16.8402" width="93.6804" height="93.6804"><div xmlns="http://www.w3.org/1999/xhtml" style="backdrop-filter:blur(8.42px);clip-path:url(#bgblur_0_785_2884_clip_path);height:100%;width:100%"></div></foreignObject><circle data-figma-bg-blur-radius="16.8402" cx="30" cy="30" r="30" fill="white" fill-opacity="0.2"/>
<path fill-rule="evenodd" clip-rule="evenodd" d="M31.0605 18.4624C33.4643 18.6797 35.6573 19.6328 37.4103 21.0926L39.1183 19.3846C40.1035 18.3994 41.6032 19.8978 40.6167 20.883L38.9087 22.591C40.3698 24.3454 41.3202 26.5369 41.5389 28.9408H43.9543C45.3486 28.9408 45.3486 31.0605 43.9543 31.0605H41.5389C41.3215 33.4643 40.3685 35.6573 38.9087 37.4103L40.6167 39.1183C41.6019 40.1035 40.1035 41.6032 39.1183 40.6167L37.4103 38.9087C35.6559 40.3685 33.4644 41.3202 31.0605 41.5389V43.9543C31.0605 45.3486 28.9408 45.3486 28.9408 43.9543V41.5389C26.537 41.3215 24.3453 40.3685 22.591 38.9087L20.883 40.6167C19.8978 41.6019 18.3981 40.1035 19.3846 39.1183L21.0926 37.4103C19.6315 35.6572 18.681 33.4644 18.4624 31.0605H16.0457C14.6514 31.0605 14.6514 28.9408 16.0457 28.9408H18.4611C18.6785 26.537 19.6315 24.344 21.0913 22.591L19.3833 20.883C18.3981 19.8978 19.8965 18.3981 20.8817 19.3846L22.5897 21.0926C24.3441 19.6328 26.5356 18.681 28.9395 18.4624L28.9408 16.0457C28.9408 14.6514 31.0605 14.6514 31.0605 16.0457L31.0605 18.4624ZM31.0605 26.2606V23.2278C30.3595 23.1185 29.6418 23.1198 28.9408 23.2278V26.2606C28.6463 26.3442 28.3672 26.4613 28.1061 26.6066L25.962 24.4625C25.3884 24.8818 24.8829 25.3873 24.4636 25.961L26.6077 28.105C26.4611 28.3661 26.344 28.6465 26.2617 28.9397H23.2289C23.1196 29.6407 23.1209 30.3584 23.2289 31.0594H26.2617C26.3453 31.3539 26.4623 31.633 26.6077 31.8941L24.4636 34.0382C24.8829 34.6118 25.3884 35.1173 25.962 35.5366L28.1061 33.3925C28.3672 33.5391 28.6476 33.6562 28.9408 33.7385V36.7713C29.6418 36.8806 30.3595 36.8793 31.0605 36.7713V33.7385C31.355 33.6549 31.6341 33.5391 31.8952 33.3925L34.0392 35.5366C34.6129 35.1173 35.1183 34.6118 35.5377 34.0382L33.3936 31.8941C33.5402 31.633 33.6573 31.3526 33.7396 31.0594H36.7724C36.8804 30.3584 36.8804 29.6407 36.7724 28.9397H33.7396C33.656 28.6452 33.5402 28.3661 33.3936 28.105L35.5377 25.961C35.1184 25.3873 34.6129 24.8819 34.0392 24.4625L31.8952 26.6066C31.6341 26.4613 31.3537 26.3442 31.0605 26.2606ZM30.0006 28.7288C28.326 28.7288 28.326 31.2729 30.0006 31.2729C31.6752 31.2729 31.6752 28.7288 30.0006 28.7288ZM30.0006 22.2993C25.7472 22.2993 22.2989 25.7477 22.2989 30.0011C22.2989 34.2545 25.7472 37.7028 30.0006 37.7028C34.254 37.7028 37.7024 34.2545 37.7024 30.0011C37.7024 25.7477 34.254 22.2993 30.0006 22.2993Z" fill="white"/>
<defs>
<clipPath id="bgblur_0_785_2884_clip_path" transform="translate(16.8402 16.8402)"><circle cx="30" cy="30" r="30"/>
</clipPath></defs>
</svg>
