<svg width="29" height="28" viewBox="0 0 29 28" fill="none" xmlns="http://www.w3.org/2000/svg">
<rect width="29" height="28" rx="14" fill="white" fill-opacity="0.5"/>
<path d="M20.41 7.6104C16.244 10.2086 12.1933 15.1187 12.1933 15.1187C11.3675 14.2674 10.495 13.4618 9.57977 12.7055C9.33974 12.5073 9.03425 12.4039 8.72195 12.4151C8.40964 12.4263 8.11251 12.5514 7.8876 12.7662C7.66268 12.9811 7.52583 13.2706 7.5033 13.5793C7.48077 13.888 7.57416 14.194 7.76553 14.4386C9.06821 16.1165 10.2013 17.917 11.1485 19.8142C11.2511 20.0181 11.4085 20.19 11.6034 20.311C11.7983 20.432 12.0232 20.4974 12.2532 20.4999C12.4832 20.5025 12.7095 20.4421 12.9071 20.3255C13.1047 20.2089 13.266 20.0406 13.3732 19.839C15.9641 15.0124 18.2078 12.3067 21.3317 8.65558C21.4415 8.52748 21.5012 8.36463 21.5 8.19664C21.4988 8.02864 21.4367 7.86665 21.3251 7.74011C21.2135 7.61357 21.0598 7.53088 20.8919 7.50708C20.7239 7.48328 20.5529 7.51994 20.41 7.6104Z" fill="#BCBCBC"/>
</svg>
