<svg width="67" height="38" viewBox="0 0 67 38" fill="none" xmlns="http://www.w3.org/2000/svg">
<path d="M34.0744 16.7651L34.0311 31.1866L34.0114 37.7591C33.6779 37.9007 33.4067 37.8806 33.069 37.7469V31.1856V16.7651C33.069 16.6842 33.0331 16.6069 32.9685 16.5566C32.9038 16.5063 32.8212 16.4866 32.7422 16.5063L20.3738 19.4152C19.0021 19.7386 18.1583 21.1005 18.4868 22.4713L20.5767 31.1727L31.2227 31.1837L33.069 31.1856L34.0311 31.1866L38.8974 31.1917L46.5668 31.1996L48.6567 22.4711C48.9852 21.1002 48.1485 19.7384 46.7769 19.415L34.403 16.5044C34.324 16.4864 34.2396 16.5044 34.1749 16.5547C34.1103 16.6068 34.0744 16.6842 34.0744 16.7651ZM45.0442 30.6643C45.0927 30.6643 45.1412 30.6661 45.1879 30.6697C45.1394 30.6661 45.0927 30.6643 45.0442 30.6643ZM22.4025 30.6895C22.4564 30.6985 22.5102 30.7075 22.5623 30.72C22.5102 30.7075 22.4582 30.6985 22.4025 30.6895ZM29.3846 30.6895C29.3308 30.6985 29.2769 30.7075 29.223 30.72C29.2751 30.7075 29.329 30.6985 29.3846 30.6895ZM30.0579 30.6895C30.1117 30.6985 30.1656 30.7075 30.2195 30.72C30.1674 30.7075 30.1135 30.6985 30.0579 30.6895ZM37.0474 30.6895C36.9935 30.6985 36.9396 30.7075 36.8858 30.72C36.9378 30.7075 36.9917 30.6985 37.0474 30.6895ZM37.7206 30.6895C37.7745 30.6985 37.8283 30.7075 37.8822 30.72C37.8301 30.7075 37.7763 30.6985 37.7206 30.6895ZM44.7101 30.6895C44.6562 30.6985 44.6024 30.7075 44.5485 30.72C44.6006 30.7075 44.6544 30.6985 44.7101 30.6895ZM45.3941 30.6913C45.4372 30.6985 45.4785 30.7057 45.5216 30.7164C45.4803 30.7075 45.4372 30.6985 45.3941 30.6913ZM21.7112 30.6931C21.6735 30.6985 21.634 30.7057 21.5963 30.7128C21.634 30.7039 21.6717 30.6985 21.7112 30.6931ZM45.8487 30.8135C45.8864 30.8278 45.9241 30.8422 45.9618 30.8584C45.9241 30.8422 45.8882 30.8278 45.8487 30.8135ZM21.2483 30.8188C21.2035 30.8368 21.1586 30.853 21.1155 30.8727C21.1586 30.853 21.2035 30.835 21.2483 30.8188ZM23.559 31.1782C23.6452 31.2357 23.7278 31.295 23.8104 31.3561C23.7296 31.295 23.6452 31.2357 23.559 31.1782ZM31.4658 31.3561C31.3859 31.2969 31.3059 31.2395 31.2227 31.1837C31.306 31.2395 31.3876 31.2969 31.4658 31.3561ZM38.8974 31.1917C39.1428 31.3572 39.1433 31.3571 38.8974 31.1917V31.1917ZM34.7425 32.0531C34.703 32.0819 34.6653 32.107 34.6258 32.134C34.6635 32.107 34.703 32.0819 34.7425 32.0531ZM25.3202 32.4287C25.3849 32.4592 25.4495 32.4844 25.5123 32.5059C25.4477 32.4844 25.3849 32.4592 25.3202 32.4287ZM26.4657 32.4287C26.4011 32.4592 26.3346 32.4844 26.2718 32.5059C26.3364 32.4844 26.4011 32.4592 26.4657 32.4287ZM40.6441 32.4287C40.7088 32.4592 40.7734 32.4844 40.8362 32.5059C40.7716 32.4844 40.7088 32.4592 40.6441 32.4287ZM41.7914 32.4287C41.7268 32.4592 41.6603 32.4844 41.5975 32.5059C41.6621 32.4844 41.7268 32.4592 41.7914 32.4287Z" fill="#0775B5"/>
<path fill-rule="evenodd" clip-rule="evenodd" d="M34.0311 31.1866L34.0114 37.7591L46.5668 31.1996L38.8974 31.1917C39.1428 31.3572 39.1433 31.3571 38.8974 31.1917L34.0311 31.1866ZM34.7425 32.0531C34.703 32.0819 34.6653 32.107 34.6258 32.134C34.6635 32.107 34.703 32.0819 34.7425 32.0531ZM40.6441 32.4287C40.7088 32.4592 40.7734 32.4844 40.8362 32.5059C40.7716 32.4844 40.7088 32.4592 40.6441 32.4287ZM41.7914 32.4287C41.7268 32.4592 41.6603 32.4844 41.5975 32.5059C41.6621 32.4844 41.7268 32.4592 41.7914 32.4287Z" fill="#0775B5"/>
<path fill-rule="evenodd" clip-rule="evenodd" d="M33.069 37.7469V31.1856L31.2227 31.1837C31.306 31.2395 31.3876 31.2969 31.4658 31.3561C31.3859 31.2969 31.3059 31.2395 31.2227 31.1837L20.5767 31.1727L33.069 37.7469ZM23.559 31.1782C23.6452 31.2357 23.7278 31.295 23.8104 31.3561C23.7296 31.295 23.6452 31.2357 23.559 31.1782ZM25.3202 32.4287C25.3849 32.4592 25.4495 32.4844 25.5123 32.5059C25.4477 32.4844 25.3849 32.4592 25.3202 32.4287ZM26.4657 32.4287C26.4011 32.4592 26.3346 32.4844 26.2718 32.5059C26.3364 32.4844 26.4011 32.4592 26.4657 32.4287Z" fill="#0775B5"/>
<path d="M27.0468 6.70508C26.0001 6.70508 25.079 7.38604 24.7702 8.38675L21.9137 17.6773C21.8419 17.9091 21.9766 18.0528 22.2118 17.9971C25.9516 17.1204 29.7257 16.213 33.4472 15.356C33.5083 15.3416 33.6052 15.3416 33.6663 15.356C37.3917 16.195 41.1636 17.106 44.9017 17.9881C45.1315 18.042 45.2626 17.9037 45.1926 17.6773L42.2517 8.11907C41.9932 7.27644 41.2158 6.70509 40.336 6.70509L27.0468 6.70508Z" fill="#0775B5"/>
<path d="M30.681 3.82521C30.4117 3.82521 30.1998 4.03542 30.1998 4.30673V5.26256C30.1998 5.39012 30.2501 5.5123 30.3399 5.60213C30.4296 5.69196 30.5517 5.74227 30.6792 5.74227H36.4245C36.6884 5.74227 36.9021 5.52847 36.9021 5.26434V4.30672C36.9021 4.03721 36.6992 3.8252 36.4281 3.8252L30.681 3.82521Z" fill="#0775B5"/>
<path d="M32.5709 0C32.3142 0.0125769 32.1149 0.21201 32.1149 0.474301V2.39138C32.1149 2.51894 32.1651 2.64112 32.2549 2.73095C32.3447 2.82078 32.4668 2.87109 32.5942 2.87109H34.5045C34.632 2.87109 34.7541 2.82078 34.8439 2.73095C34.9336 2.64112 34.9839 2.51894 34.9839 2.39138V0.474301C34.9839 0.204798 34.781 0 34.5099 0H32.596H32.5709Z" fill="#0775B5"/>
<path d="M58.2565 9.42865L59.5559 13.7369L60.5126 13.4473L59.6935 10.7317C62.3522 11.717 64.2295 13.6562 65.0168 16.2645C66.3922 20.8221 63.9656 25.6368 59.5744 27.2875L59.5034 27.1905L60.174 24.4333L59.2036 24.1966L58.1396 28.5692L62.5083 29.6344L62.7448 28.6621L60.3139 28.0692C64.9458 26.1036 67.4603 20.9029 65.9735 15.9759C65.114 13.1279 63.0998 10.9942 60.2431 9.87281L62.8494 9.08511L62.5608 8.12837L58.2565 9.42865Z" fill="#13A9E1"/>
<path d="M8.97372 9.42841L7.6733 13.7366L6.71756 13.4471L7.53668 10.7314C4.87791 11.7167 3.00073 13.656 2.21343 16.2643C0.838 20.8219 3.26451 25.6367 7.65577 27.2873L7.7268 27.1903L7.05523 24.433L8.02659 24.1964L9.09064 28.569L4.72193 29.6341L4.48539 28.6618L6.9143 28.0699C2.2831 26.1039 -0.230077 20.9023 1.25669 15.9756C2.11616 13.1277 4.13039 10.994 6.98712 9.87257L4.37979 9.08484L4.6694 8.12813L8.97372 9.42841Z" fill="#13A9E1"/>
</svg>
