<svg width="36" height="36" viewBox="0 0 36 36" fill="none" xmlns="http://www.w3.org/2000/svg">
<rect y="0.415527" width="36" height="34.8052" rx="17.4026" fill="white" fill-opacity="0.8"/>
<path d="M12.4621 15.3146L12.4596 15.3165L12.2134 15.5628C11.8365 15.9378 11.6252 16.4484 11.6265 16.9803V22.8134C11.6277 23.9203 12.5246 24.8171 13.6315 24.8184H22.5749C23.6818 24.8171 24.5786 23.9202 24.5799 22.8134V12.8233C24.5786 11.7164 23.6817 10.8196 22.5749 10.8184H17.7885C17.2567 10.8171 16.746 11.0284 16.371 11.4059L15.796 11.9809C15.7922 11.9846 15.791 11.9903 15.7872 11.994C15.7835 11.9978 15.7785 11.999 15.7741 12.0028L12.4639 15.3122L12.4621 15.3146ZM17.9735 11.9897H22.1654C22.8598 11.9897 23.4229 12.5528 23.4229 13.2472C23.4229 13.9422 22.8598 14.5047 22.1654 14.5047H17.9735C17.2784 14.5047 16.7159 13.9422 16.7159 13.2472C16.7159 12.5528 17.2784 11.9897 17.9735 11.9897ZM15.7833 20.8366V18.3934C15.7833 18.1471 15.8565 17.9059 15.9933 17.7009L14.3183 16.0258C14.2701 15.9796 14.2426 15.9152 14.242 15.8483C14.2414 15.7814 14.2676 15.7171 14.3151 15.6696C14.3626 15.6221 14.427 15.5958 14.4939 15.5965C14.5614 15.5971 14.6251 15.6246 14.672 15.6727L16.3471 17.3477C16.5521 17.2109 16.7927 17.1384 17.039 17.1384H19.4827H19.4821C19.7284 17.1384 19.969 17.2109 20.174 17.3477L21.8491 15.6727C21.8959 15.6246 21.9597 15.5971 22.0266 15.5965C22.0941 15.5958 22.1584 15.6221 22.206 15.6696C22.2535 15.7171 22.2797 15.7815 22.2791 15.8483C22.2785 15.9152 22.251 15.9796 22.2028 16.0258L20.5277 17.7009C20.6646 17.9059 20.7371 18.1471 20.7371 18.3934V20.837C20.7371 21.0833 20.6646 21.3239 20.5277 21.5289L22.2028 23.2027C22.2535 23.2483 22.2835 23.3133 22.2847 23.3814C22.2866 23.4502 22.2603 23.5164 22.2116 23.5645C22.1635 23.6127 22.0972 23.6395 22.0291 23.6377C21.9603 23.6358 21.8953 23.6064 21.8497 23.5558L20.1746 21.882C19.9696 22.0189 19.729 22.092 19.4821 22.092H17.0388C16.7926 22.092 16.5513 22.0189 16.3463 21.882L14.6725 23.5558C14.5744 23.6502 14.4188 23.6489 14.3219 23.5527C14.2257 23.4558 14.2244 23.3002 14.3194 23.202L15.9945 21.5283C15.857 21.3233 15.7839 21.0827 15.7832 20.8364L15.7833 20.8366Z" fill="#BCBCBC"/>
<path d="M17.0392 17.6377H19.4829C19.8998 17.6377 20.238 18.0546 20.238 18.3927V20.8364C20.238 21.2533 19.8998 21.5914 19.4829 21.5914H17.0392C16.6223 21.5914 16.2842 21.1745 16.2842 20.8364V18.3927C16.2842 17.9758 16.6223 17.6377 17.0392 17.6377Z" fill="#BCBCBC"/>
<path d="M17.9743 14.0052H22.1663C22.5844 14.0052 22.9238 13.6659 22.9238 13.2477C22.9238 12.829 22.5844 12.4902 22.1663 12.4902H17.9743C17.5556 12.4902 17.2168 12.829 17.2168 13.2477C17.2168 13.6659 17.5556 14.0052 17.9743 14.0052Z" fill="#BCBCBC"/>
<path d="M12.2848 14.7844L15.2548 11.8139L14.6679 11.227C14.4897 11.0476 14.2472 10.9476 13.9947 10.9482C13.7422 10.9476 13.4991 11.0482 13.321 11.2276L11.6984 12.8526C11.3278 13.2245 11.3278 13.8269 11.6984 14.1988L12.2848 14.7844Z" fill="#BCBCBC"/>
</svg>
