<svg width="40" height="70" viewBox="0 0 40 70" fill="none" xmlns="http://www.w3.org/2000/svg">
<path d="M3.33306 0.681152C1.80494 0.681152 0.558594 1.91843 0.558594 3.43544V13.0754H39.4011V3.43544C39.4011 1.91843 38.1547 0.681152 36.6266 0.681152H3.33306ZM7.75486 4.85562H9.87906C10.7027 4.85562 11.3963 5.50115 11.3963 6.31883C11.3963 7.13651 10.7027 7.82508 9.87906 7.82508H9.5756C9.46722 7.82508 9.45639 7.95419 9.53225 8.04026L12.5235 11.5262H11.6564L8.75193 8.16937C8.65439 8.04564 8.53518 7.99722 8.53518 8.2124V11.0528C8.55143 11.2948 8.57311 11.3917 8.62188 11.5262H7.75486C7.80363 11.3917 7.83072 11.2948 7.84156 11.0528V5.32901C7.83072 5.08693 7.80363 4.9901 7.75486 4.85562ZM15.6447 4.85562C17.498 4.85562 19.0261 6.36725 19.0261 8.2124C19.0261 10.0522 17.498 11.5262 15.6447 11.5262C13.7915 11.5262 12.3067 10.0522 12.3067 8.2124C12.3067 6.37263 13.7915 4.85562 15.6447 4.85562ZM20.4133 4.85562H21.2804C21.2316 4.9901 21.2045 5.08693 21.1937 5.32901V10.4933C21.1937 10.687 21.3942 10.9237 21.8439 10.9237C22.2937 10.9237 23.0198 10.9344 23.3612 10.7515L22.841 11.5262H20.4133C20.4621 11.3917 20.4892 11.2948 20.5001 11.0528V5.32901C20.4838 5.08693 20.4621 4.9901 20.4133 4.85562ZM25.0519 4.85562H25.9189C25.8702 4.9901 25.8431 5.08693 25.8322 5.32901V10.4933C25.8322 10.687 26.0327 10.9237 26.4825 10.9237C26.9323 10.9237 27.6205 10.9344 27.9564 10.7515L27.4796 11.5262H25.0519C25.1007 11.3917 25.1278 11.2948 25.1386 11.0528V5.32901C25.1278 5.08693 25.1007 4.9901 25.0519 4.85562ZM30.8176 5.02776C31.1915 5.02776 31.5979 5.15149 31.8147 5.24294C32.0423 5.33977 32.1994 5.39356 32.3349 5.41508L32.0314 6.18972C31.8472 6.08213 31.3595 5.66254 30.8176 5.6733C29.7392 5.70019 30.124 6.88367 30.3407 7.05044C30.6279 7.271 31.3703 7.95957 31.5979 8.12633C31.923 8.38992 32.725 8.94939 32.725 10.106C32.725 11.4186 31.3432 11.6445 31.0777 11.6553C30.8122 11.666 30.5466 11.5907 30.3407 11.5692C30.2161 11.553 30.0535 11.5208 29.7772 11.5692L29.6905 10.6224C29.9668 10.8053 30.487 11.0097 30.9476 11.0097C32.2915 10.8537 32.0585 9.80472 31.6846 9.28829C31.3107 8.77187 30.4925 8.11019 30.1673 7.86812C29.9397 7.68521 29.3382 7.23334 29.387 6.31883C29.4412 5.21066 30.4437 5.02776 30.8176 5.02776ZM8.53518 5.50115V7.13651H9.87906C10.3288 7.13651 10.7027 6.76533 10.7027 6.31883C10.7027 5.87233 10.3288 5.50115 9.87906 5.50115H8.53518ZM15.6447 5.50115C14.1491 5.50115 12.957 6.72767 12.957 8.2124C12.957 9.69713 14.1491 10.8806 15.6447 10.8806C17.1403 10.8806 18.3759 9.69713 18.3759 8.2124C18.3759 6.72767 17.1403 5.50115 15.6447 5.50115ZM0.558594 15.8297V54.3897H39.4011V15.8297H0.558594ZM8.01497 18.4549H18.0724C21.8819 18.4549 26.2657 20.7681 26.2657 25.7279C26.2657 28.7082 24.7322 31.9305 21.1937 34.0338C21.9415 35.1528 25.0248 39.5101 25.6155 45.051C25.6697 46.2775 26.0056 47.5417 26.916 48.0204H20.9769C22.0499 47.0629 22.7218 45.9117 22.6676 44.5776C22.6134 43.2489 22.2558 38.3643 19.1128 35.0237C17.0536 35.8359 14.4743 36.3524 11.3963 36.4008V45.6965C11.3963 46.923 11.9328 47.4879 12.3067 48.0204H7.75486C8.12876 47.4879 8.66523 46.923 8.66523 45.6965V20.3915C8.66523 19.165 8.38887 18.9875 8.01497 18.4549ZM11.3963 20.1763V34.1199C14.8861 34.1199 22.3967 32.9902 22.6676 25.4697C22.7218 22.7531 21.3725 20.1763 17.2921 20.1763H11.3963ZM13.3905 21.2953H20.0665C20.603 21.618 21.3617 22.3927 21.6272 23.0597H16.7719V32.5706C16.1541 32.7858 14.924 33.1785 14.0408 33.2592V23.2749C14.0408 22.0484 13.7698 21.8278 13.3905 21.2953ZM25.8322 21.6395C29.3978 22.3174 33.1802 26.2282 31.2077 31.4947C30.1565 34.3028 28.2219 35.9651 26.6559 36.9172C27.1707 37.7564 28.6121 40.1664 29.6471 42.4688C30.9368 45.3307 30.8609 47.6977 31.1644 49.0533C31.4679 50.4089 32.2482 50.8608 32.2482 50.8608H26.3524C28.287 49.3545 28.0865 47.2458 28.0865 47.2458C27.951 42.0223 25.2958 38.6709 24.6184 37.907C24.3529 37.9985 24.1849 38.0362 24.1849 38.0362L23.1011 35.7983C23.1011 35.7983 26.1519 34.717 27.4796 31.4087C29.1919 27.1266 26.9593 24.6951 26.9593 24.6951C26.8076 23.4148 25.8322 21.6395 25.8322 21.6395ZM16.7719 36.4438V37.0463C17.5793 37.0463 18.6251 36.971 19.7197 36.7881C20.0178 37.2723 20.5976 38.4396 20.7602 38.9829C19.5626 39.182 18.1862 39.3057 16.7719 39.3272V48.6229C16.7719 49.8495 17.3083 50.4143 17.6822 50.9469H13.1304C13.5043 50.4143 14.0408 49.8495 14.0408 48.6229V36.9172C14.7398 36.8365 16.398 36.5783 16.7719 36.4438ZM0.558594 57.144V66.784C0.558594 68.301 1.80494 69.5383 3.33306 69.5383H36.6266C38.1547 69.5383 39.4011 68.301 39.4011 66.784V57.144H0.558594ZM7.32135 58.6072H9.44555C10.2692 58.6072 10.9628 59.2958 10.9628 60.1135C10.9628 60.9311 10.2692 61.5767 9.44555 61.5767H9.14209C9.03371 61.5767 9.02829 61.7058 9.09874 61.7919L12.09 65.3208H11.2229L8.31842 61.921C8.22088 61.8026 8.10167 61.7919 8.10167 62.007V64.8044C8.11251 65.0464 8.1396 65.1917 8.18837 65.3208H7.32135C7.37012 65.1863 7.39721 65.0411 7.40805 64.8044V59.1236C7.39721 58.8816 7.37012 58.7363 7.32135 58.6072ZM26.4825 58.6072C27.149 58.6072 27.6909 58.7094 28.2165 59.0376L28.3032 59.8553C27.7884 59.4572 27.1598 59.2528 26.4825 59.2528C24.9869 59.2528 23.7947 60.5653 23.7947 62.0501C23.7947 63.5348 24.9869 64.8904 26.4825 64.8904C27.2303 64.8904 27.8968 64.8151 28.3899 64.331L28.4333 65.1487C27.886 65.536 27.2032 65.536 26.4825 65.536C24.6238 65.536 23.1445 63.8952 23.1445 62.0501C23.1445 60.2103 24.6238 58.6072 26.4825 58.6072ZM18.766 58.6933H19.5463L20.9336 61.1033L22.2774 58.6933H23.0578L21.237 61.8779V64.8904C21.2533 65.1325 21.275 65.2724 21.3237 65.4069H20.4567C20.5055 65.2724 20.5326 65.1325 20.5434 64.8904V61.8779L18.766 58.6933ZM29.8205 58.6933H32.2482L32.4216 59.511C32.0856 59.3281 31.7009 59.3388 31.2511 59.3388C30.8013 59.3388 30.6008 59.5325 30.6008 59.7262V60.802C30.6008 61.0656 30.7417 61.1463 30.9476 61.1463H32.1615V61.8349H30.9476C30.7417 61.8349 30.6008 61.9156 30.6008 62.1792V64.374C30.6008 64.5677 30.8013 64.8044 31.2511 64.8044C31.7009 64.8044 32.4324 64.7721 32.7684 64.5892L32.2482 65.4069H29.8205C29.8693 65.2724 29.8964 65.1325 29.9072 64.8904V59.2097C29.8964 58.9676 29.8693 58.8224 29.8205 58.6933ZM15.2112 58.7363C17.0645 58.7363 18.5926 60.2049 18.5926 62.0501C18.5926 63.8899 17.0645 65.4069 15.2112 65.4069C13.358 65.4069 11.8732 63.8899 11.8732 62.0501C11.8732 60.2049 13.358 58.7363 15.2112 58.7363ZM8.10167 59.2958V60.8881H9.44555C9.89531 60.8881 10.2692 60.5169 10.2692 60.0704C10.2692 59.6239 9.89531 59.2958 9.44555 59.2958H8.10167ZM15.2112 59.3819C13.7156 59.3819 12.5235 60.5653 12.5235 62.0501C12.5235 63.5348 13.7156 64.7613 15.2112 64.7613C16.7068 64.7613 17.9423 63.5348 17.9423 62.0501C17.9423 60.5653 16.7068 59.3819 15.2112 59.3819Z" fill="white"/>
</svg>
