<svg width="96" height="26" viewBox="0 0 96 26" fill="none" xmlns="http://www.w3.org/2000/svg">
<path d="M2.64494 22.1123L1.70506 24.2359L1.53298 22.1123H0.589189L0.0273438 25.2253H0.607439L1.05326 22.7758L1.21491 25.2253H1.82629L2.88219 22.7758L2.44419 25.2253H3.02298L3.58483 22.1123" fill="white"/>
<path d="M9.2145 22.841L9.44654 23.9882H8.594M9.00072 22.1123L7.25 25.2253H7.92395L8.30721 24.5174H9.55213L9.69553 25.2253H10.3708L9.67597 22.1123H9.00072Z" fill="white"/>
<path d="M14.625 25.2251L15.1868 22.1122H16.51C16.7499 22.0998 16.9902 22.1284 17.2204 22.1969C17.2895 22.2235 17.3525 22.2635 17.4057 22.3148C17.459 22.3661 17.5015 22.4275 17.5307 22.4954C17.5963 22.6506 17.6127 22.8221 17.5776 22.9869C17.5412 23.2085 17.432 23.4117 17.2674 23.5644C17.0806 23.7273 16.8478 23.828 16.6012 23.8525C16.7115 23.9228 16.8092 24.0109 16.8906 24.1132C16.9938 24.2729 17.0811 24.4423 17.1513 24.619L17.4212 25.2251H16.686L16.3496 24.5434C16.2771 24.3857 16.193 24.2337 16.0981 24.0884C16.0554 24.03 15.9971 23.9848 15.9299 23.9581C15.828 23.9305 15.7224 23.9191 15.617 23.9242H15.4867L15.252 25.2278M15.5779 23.4314H16.0446C16.2353 23.441 16.4264 23.4287 16.6143 23.3949C16.6927 23.3718 16.7629 23.3265 16.8163 23.2646C16.872 23.1983 16.9085 23.118 16.9219 23.0325C16.9336 22.9887 16.9362 22.9429 16.9294 22.8981C16.9227 22.8533 16.9068 22.8103 16.8828 22.7718C16.8573 22.7377 16.825 22.7092 16.788 22.6882C16.751 22.6671 16.7101 22.6538 16.6677 22.6493C16.6182 22.6423 16.4661 22.6388 16.2115 22.6388H15.7187L15.5779 23.4314Z" fill="white"/>
<path d="M21.6641 25.2253L22.2259 22.1123H22.8542L22.2924 25.2253" fill="white"/>
<path d="M26.8047 25.2253L27.3678 22.1123H27.9727L28.8878 24.2098L29.2672 22.1123H29.846L29.2841 25.2253H28.6571L27.7576 23.1617L27.3848 25.2253" fill="white"/>
<path d="M33.8594 25.2253L34.4225 22.1123H36.7273L36.6308 22.6416H34.9557L34.8305 23.3286H36.3896L36.2932 23.8578H34.7354L34.5842 24.6973H36.3232L36.228 25.2253" fill="white"/>
<path d="M45.8047 25.2253L46.3665 22.1123H48.67L48.5748 22.6416H46.8997L46.7759 23.3286H48.3323L48.2372 23.8578H46.6807L46.5282 24.6973H48.2685L48.172 25.2253" fill="white"/>
<path d="M52.6172 25.2253L53.1816 22.1123H53.7878L54.7003 24.2098L55.081 22.1123H55.6598L55.0979 25.2253H54.4709L53.5688 23.1617L53.1973 25.2253" fill="white"/>
<path d="M61.3339 24.0846L61.4304 23.5553H62.777L62.5527 24.8003C62.3623 24.9467 62.1486 25.06 61.9205 25.1353C61.6704 25.2295 61.4056 25.2789 61.1384 25.2813C60.8531 25.2915 60.5709 25.22 60.3249 25.0753C60.1101 24.9421 59.9536 24.7325 59.8869 24.4887C59.8104 24.2188 59.7996 23.9345 59.8556 23.6596C59.9086 23.3478 60.0312 23.052 60.2141 22.794C60.3796 22.5597 60.6004 22.37 60.857 22.2417C61.1135 22.1134 61.3978 22.0506 61.6846 22.0588C62.0756 22.0588 62.3585 22.1396 62.5449 22.3013C62.6393 22.3853 62.7146 22.4886 62.7657 22.6042C62.8167 22.7198 62.8424 22.845 62.8408 22.9713L62.2008 23.09C62.1961 23.0204 62.1776 22.9525 62.1462 22.8903C62.1149 22.828 62.0714 22.7727 62.0183 22.7276C61.8961 22.634 61.7443 22.5877 61.5907 22.5972C61.3324 22.5904 61.0816 22.6838 60.8907 22.8579C60.6786 23.0682 60.5436 23.3437 60.5074 23.6401C60.4409 24.0116 60.4735 24.2919 60.6039 24.4744C60.6711 24.5672 60.7608 24.6413 60.8645 24.6899C60.9683 24.7385 61.0827 24.7599 61.197 24.752C61.3375 24.751 61.4766 24.7245 61.6076 24.6738C61.7396 24.6269 61.8653 24.5639 61.9818 24.4861L62.0522 24.095" fill="white"/>
<path d="M66.9609 25.2253L67.5228 22.1123H68.1524L67.5893 25.2253" fill="white"/>
<path d="M72.0977 25.2253L72.6595 22.1123H73.2657L74.1808 24.2098L74.5588 22.1123H75.1389L74.5771 25.2253H73.9487L73.0506 23.1617L72.6777 25.2253" fill="white"/>
<path d="M79.1523 25.2253L79.7168 22.1123H82.0189L81.9251 22.6416H80.2487L80.1248 23.3286H81.6813L81.5861 23.8578H80.0284L79.8771 24.6973H81.6161L81.521 25.2253" fill="white"/>
<path d="M85.9961 24.2084L86.6218 24.1459C86.6139 24.2268 86.6222 24.3086 86.6464 24.3863C86.6706 24.464 86.7101 24.536 86.7626 24.5982C86.8201 24.6504 86.8878 24.6903 86.9613 24.7154C87.0348 24.7405 87.1127 24.7503 87.1902 24.7442C87.3585 24.7519 87.5251 24.7063 87.666 24.6138C87.7186 24.5797 87.764 24.5356 87.7996 24.4839C87.8352 24.4322 87.8602 24.3741 87.8733 24.3127C87.8811 24.2813 87.8826 24.2486 87.8777 24.2166C87.8728 24.1846 87.8615 24.1539 87.8446 24.1263C87.7916 24.0638 87.7213 24.0184 87.6425 23.9959C87.5747 23.9699 87.4157 23.9255 87.1667 23.8656C86.8473 23.7835 86.6309 23.6805 86.5149 23.5579C86.4374 23.4756 86.3812 23.3755 86.3512 23.2664C86.3212 23.1574 86.3183 23.0426 86.3428 22.9322C86.3747 22.7679 86.4488 22.6147 86.5579 22.4877C86.6783 22.3419 86.8353 22.2307 87.0129 22.1657C87.2135 22.0897 87.4268 22.0529 87.6412 22.0575C88.0323 22.0575 88.3073 22.1435 88.4716 22.3182C88.5556 22.4109 88.6161 22.5224 88.648 22.6433C88.68 22.7642 88.6825 22.891 88.6554 23.013L88.0232 23.0326C88.0295 22.9704 88.0231 22.9075 88.0042 22.8479C87.9854 22.7883 87.9546 22.7331 87.9137 22.6858C87.8064 22.6044 87.6724 22.5662 87.5382 22.5789C87.3818 22.5725 87.2268 22.6119 87.0924 22.6924C87.0585 22.714 87.0294 22.7424 87.0069 22.7758C86.9845 22.8093 86.9692 22.847 86.962 22.8866C86.9546 22.9207 86.956 22.9561 86.9663 22.9895C86.9766 23.0228 86.9953 23.053 87.0207 23.0769C87.0859 23.1434 87.2645 23.2073 87.5578 23.2842C87.7786 23.3305 87.9925 23.4055 88.1939 23.5071C88.3205 23.5791 88.4202 23.6902 88.4781 23.8239C88.5386 23.9819 88.5504 24.1544 88.512 24.3192C88.4765 24.5037 88.3944 24.676 88.2735 24.8198C88.1468 24.9764 87.9808 25.0966 87.7924 25.1679C87.5688 25.2477 87.3324 25.2861 87.095 25.2813C86.7039 25.2813 86.4158 25.19 86.2386 25.0062C86.0613 24.8224 85.9778 24.5565 86.0052 24.2084" fill="white"/>
<path d="M65.8342 15.1395L66.6932 10.607H66.6763L66.937 9.17302C67.0426 8.69722 67.2394 7.49791 66.8353 6.79137C66.5675 6.24549 66.1278 5.80263 65.5839 5.53081C65.1634 5.35743 64.7268 5.22642 64.2803 5.13973C63.2841 4.98837 62.2679 5.03265 61.2886 5.27009C60.4191 5.48388 59.2159 5.97794 58.452 6.73271C58.1801 6.21638 57.7541 5.79763 57.2331 5.53472C56.8127 5.36128 56.376 5.23027 55.9295 5.14364C54.9333 4.99228 53.9171 5.03656 52.9378 5.274C52.0631 5.48909 51.251 5.86452 50.6383 6.41724L50.6565 6.4016L50.8364 5.33266H44.6744L44.2638 7.47184H45.098C45.5126 7.47184 45.4331 7.81078 45.4331 7.81078L44.8321 11.118L44.1099 15.1682C44.0881 15.2731 44.0308 15.3673 43.9477 15.4349C43.8646 15.5026 43.7608 15.5396 43.6537 15.5397H42.8989L42.5 17.5433H49.8288L50.2642 15.5306H49.3516C48.8928 15.5306 48.9971 15.1395 48.9971 15.1395L49.8561 10.607L49.9239 10.2159C50.1168 9.33597 50.1468 8.36089 51.045 7.8186C51.2697 7.66465 51.5257 7.56227 51.7946 7.51877C52.318 7.42024 52.8593 7.52765 53.3054 7.8186C53.4599 7.95555 53.5785 8.12829 53.6507 8.32168C53.723 8.51508 53.7468 8.72324 53.72 8.92795L53.2494 11.4712H53.2637L52.5976 15.1604C52.5755 15.2652 52.5182 15.3592 52.4351 15.4268C52.3521 15.4944 52.2484 15.5315 52.1413 15.5319H51.1701L50.7726 17.5355H58.3164L58.7505 15.5306H57.838C57.3804 15.5306 57.4834 15.1395 57.4834 15.1395L58.3333 10.607H58.3203L58.3542 10.4232C58.4071 10.2085 58.4471 9.99082 58.4741 9.77137L58.5823 9.17693C58.6032 9.08047 58.628 8.95402 58.6514 8.80802C58.7609 8.39615 59.0264 8.04311 59.3919 7.82381C59.6165 7.66971 59.8725 7.56731 60.1414 7.52398C60.6644 7.42566 61.2052 7.53308 61.651 7.82381C61.8055 7.96077 61.924 8.1335 61.9963 8.32689C62.0686 8.52029 62.0923 8.72846 62.0655 8.93316L61.604 11.4725H61.6184L60.9483 15.1617C60.9265 15.2666 60.8692 15.3608 60.7861 15.4284C60.7031 15.4961 60.5992 15.5331 60.4921 15.5332H59.5209L59.122 17.5368H66.6763L67.1065 15.5306H66.194C65.7364 15.5306 65.8394 15.1395 65.8394 15.1395" fill="white"/>
<path d="M41.2241 15.1393L42.0832 10.6068L43.7948 0.584818L43.714 0.618709L43.7231 0.567871H37.5637L37.1531 2.70705H37.9873C38.4019 2.70705 38.3224 3.04599 38.3224 3.04599L37.9156 5.65316C37.9156 5.65316 37.6758 6.06379 37.4594 5.84739C36.1688 4.71849 34.1496 4.75629 32.4758 5.08088C30.3562 5.44458 28.8649 7.54075 28.3604 9.47918C28.2717 9.94325 28.1583 10.4517 28.054 10.9835C27.6134 13.2113 27.2901 15.8537 29.2272 17.2877C31.1631 18.5782 33.928 18.0138 35.7256 16.8431L35.942 17.5366L36.0033 17.4962V17.5366H42.0571L42.4964 15.5304H41.5839C41.1264 15.5304 41.2294 15.1393 41.2294 15.1393M37.0696 11.1113L36.5651 13.8905C36.1428 14.5423 35.0256 15.168 34.2995 15.168C34.04 15.1698 33.7852 15.0988 33.564 14.9631C33.3428 14.8274 33.164 14.6324 33.0481 14.4002C32.8304 13.2426 32.9633 12.0759 33.168 10.9392C33.284 10.2874 33.4287 9.65516 33.533 9.03466C33.7324 8.38287 34.0153 7.70239 34.7062 7.34C35.2915 7.09753 36.3474 7.09753 36.8532 7.51989C37.3968 8.04132 37.2143 7.90054 37.5181 8.20427L37.0696 11.1113Z" fill="white"/>
<path d="M9.01801 14.4717L10.0817 8.8585L11.0568 3.71064C11.0568 3.71064 11.1011 3.31956 11.5887 3.31956H12.8506L13.3616 0.582031H4.60277L4.08134 3.31956H5.14897C5.67953 3.31956 5.57655 3.75235 5.57655 3.75235L4.68229 8.68251L3.62639 14.5004C3.59854 14.6344 3.52541 14.7547 3.41929 14.8411C3.31317 14.9275 3.18054 14.9748 3.04368 14.9749H1.80267L1.29297 17.5365H10.3438L10.8052 14.9749H9.47297C8.88766 14.9749 9.01932 14.473 9.01932 14.473" fill="white"/>
<path d="M26.0956 15.1395L26.9547 10.607H26.9417L27.2024 9.17302C27.308 8.69722 27.5048 7.49791 27.102 6.79137C26.8341 6.24549 26.3945 5.80263 25.8506 5.53081C25.4301 5.35743 24.9934 5.22642 24.547 5.13973C23.5507 4.98837 22.5345 5.03265 21.5552 5.27009C20.6805 5.48518 19.8671 5.86061 19.2557 6.41333L19.274 6.39769L19.4552 5.32875H13.2918L12.8812 7.46793H13.7155C14.1313 7.46793 14.0505 7.80686 14.0505 7.80686L13.4495 11.1141L12.7287 15.1643C12.7068 15.2692 12.6495 15.3634 12.5665 15.431C12.4834 15.4987 12.3796 15.5357 12.2724 15.5358H11.3012L10.9023 17.5394H18.4449L18.8816 15.5306H17.9691C17.5115 15.5306 17.6145 15.1395 17.6145 15.1395L18.4736 10.607L18.5401 10.2159C18.7343 9.33597 18.763 8.35828 19.6624 7.81599C19.8871 7.66197 20.1431 7.55957 20.412 7.51616C20.935 7.41771 21.4759 7.52513 21.9216 7.81599C22.0761 7.95287 22.1948 8.1256 22.267 8.31901C22.3393 8.51243 22.363 8.72063 22.3361 8.92534L21.8759 11.4647H21.889L21.2189 15.1539C21.1971 15.2588 21.1398 15.3529 21.0567 15.4206C20.9736 15.4882 20.8698 15.5253 20.7627 15.5254H19.7876L19.3887 17.529H26.9325L27.3679 15.5306H26.4554C25.9979 15.5306 26.1008 15.1395 26.1008 15.1395" fill="white"/>
<path d="M80.3818 15.1394L81.5642 8.9396C81.5642 8.9396 82.5223 4.85938 76.1399 4.85938C75.741 4.85938 75.3669 4.87762 75.0149 4.91282C69.7432 5.43425 69.6285 9.64614 69.6285 9.64614L73.6214 9.61485C73.6214 9.61485 73.6214 9.61485 73.6214 9.60703C73.6214 9.59921 73.6214 9.57444 73.6214 9.54446C73.6214 9.51447 73.6305 9.43235 73.641 9.35022C73.7257 8.63847 74.0829 6.73654 75.4842 6.70004C77.132 6.65702 76.6366 8.40773 76.6366 8.40773L76.2729 10.7438C76.2729 10.7438 76.2064 11.0788 76.0044 10.9575C75.011 10.5417 73.6188 10.4909 72.0597 10.6708C70.1617 10.8728 68.3641 12.0656 67.7931 14.034C67.3825 15.2698 67.3199 16.735 69.1253 17.5289C70.9139 18.2381 73.4585 17.9369 75.1336 17.2982L75.1583 17.5354H81.2122L81.6541 15.5305H80.7416C80.284 15.5305 80.387 15.1394 80.387 15.1394M75.6133 13.8906C75.5012 14.7236 74.8716 15.2607 74.0138 15.2607C73.156 15.2607 72.5798 14.9009 72.7441 13.7824C72.8953 12.7317 73.3829 12.2494 74.2406 12.2494C75.0984 12.2494 75.7736 12.6965 75.6133 13.8906Z" fill="white"/>
<path d="M93.1784 4.89309C92.4589 4.83964 91.9061 5.02345 91.2909 5.26722C90.746 5.48231 90.3783 5.8421 89.9781 6.39482L90.1593 5.32458H84.2202L83.8083 7.46376H84.4249C84.8394 7.46376 84.7586 7.80269 84.7586 7.80269L84.1576 11.1099L83.4368 15.1601C83.4149 15.265 83.3576 15.3592 83.2745 15.4268C83.1915 15.4945 83.0876 15.5315 82.9805 15.5317H82.227L81.8281 17.5353H89.153L89.591 15.5303H88.6785C88.2209 15.5303 88.3239 15.1393 88.3239 15.1393L89.183 10.6067L89.3433 9.68768L89.5219 8.75431C89.6049 8.40384 89.781 8.08228 90.0316 7.82355C90.1573 7.68093 90.321 7.57696 90.5035 7.52372C91.8201 7.52372 91.6767 8.94463 91.5464 9.53255C91.4159 10.0128 91.2615 10.4861 91.0836 10.9509L94.4168 10.9196C94.8236 9.95882 95.3659 8.50924 95.3659 7.29299C95.3659 5.49144 94.4859 4.99217 93.1902 4.8957" fill="white"/>
</svg>
