<svg width="93" height="15" viewBox="0 0 93 15" fill="none" xmlns="http://www.w3.org/2000/svg">
<path d="M9.24676 0.776581C9.24676 0.776581 9.24676 0.683877 9.1695 0.591171C9.09225 0.498464 8.99954 0.498463 8.99954 0.498463C8.99954 0.498463 7.93341 0.15854 5.04405 0.143089C2.13925 0.127638 1.13492 0.467559 1.13492 0.467559C1.13492 0.467559 1.05767 0.467563 0.949511 0.606623C0.872255 0.730232 0.856804 0.807485 0.856804 0.807485C0.856804 0.807485 0.161504 3.65049 0.192407 7.42056C0.23876 11.1906 0.841353 13.9564 0.841353 13.9564C0.841353 13.9564 0.856804 14.1109 0.93406 14.1881C0.995864 14.2654 1.11947 14.3118 1.11947 14.3118C1.11947 14.3118 2.71094 14.698 5.04405 14.6826C7.37717 14.6671 8.98409 14.3272 8.98409 14.3272C8.98409 14.3272 9.1386 14.25 9.18495 14.1881C9.23131 14.1263 9.26221 13.9718 9.26221 13.9718C9.26221 13.9718 9.8957 11.3915 9.8957 7.45146C9.88025 3.46508 9.24676 0.776581 9.24676 0.776581ZM6.31105 10.8507C6.31105 13.2765 5.05951 14.5126 5.05951 14.5126C5.05951 14.5126 3.80797 12.983 3.80797 10.8507C3.80797 8.71845 4.9977 7.45146 4.9977 7.45146L2.63368 7.86864L4.58052 6.77161C4.58052 6.77161 3.79252 5.45827 3.79252 3.82045C3.79252 1.6882 5.07496 0.343952 5.07496 0.343952C5.07496 0.343952 6.3265 1.82726 6.3265 3.82045C6.3265 6.01451 5.18312 7.35876 5.18312 7.35876L7.56259 6.98793L5.53849 8.10041C5.52304 8.10041 6.31105 9.38285 6.31105 10.8507Z" fill="white"/>
<path d="M24.4671 3.40234C24.7452 3.40234 24.977 3.63411 24.977 3.91223V4.51483C24.977 4.79295 24.7452 5.02471 24.4671 5.02471H19.0746C19.0746 5.02471 18.7811 4.97836 18.7811 5.34918V5.95178C18.7811 6.30715 19.0746 6.27625 19.0746 6.27625H22.922C23.2001 6.27625 23.4318 6.50802 23.4318 6.78614V7.38873C23.4318 7.66685 23.2001 7.89862 22.922 7.89862H19.0746C19.0746 7.89862 18.7811 7.85227 18.7811 8.22309V9.7373C18.7811 10.0154 18.5493 10.2472 18.2866 10.2472H13.3577C13.0796 10.2472 12.8633 10.0154 12.8633 9.7373V3.92769C12.8633 3.64957 13.0796 3.4178 13.3577 3.4178L24.4671 3.40234Z" fill="white"/>
<path d="M34.4946 10.2474C36.9513 10.2474 38.5427 8.81041 38.5427 7.2344V6.61635V3.89695C38.5427 3.63429 38.3264 3.41797 38.0638 3.41797H34.2473C33.9847 3.41797 33.7684 3.63429 33.7684 3.89695V6.47729V6.90992C33.7684 7.72883 33.104 8.39323 32.285 8.39323C31.4661 8.39323 30.8017 7.72883 30.8017 6.90992V6.47729V3.89695C30.8017 3.63429 30.5854 3.41797 30.3228 3.41797H26.5063C26.2437 3.41797 26.0273 3.63429 26.0273 3.89695V6.61635V7.2344C26.0273 8.81041 27.6188 10.2474 30.0755 10.2474H34.4946Z" fill="white"/>
<path d="M46.3333 7.12606H44.7109C44.7109 7.12606 44.4174 7.17242 44.4174 6.80159V5.34918C44.4174 4.99381 44.7109 5.02471 44.7109 5.02471H46.3333C47.1368 5.02471 47.7857 5.48825 47.7857 6.07539C47.7857 6.64708 47.1368 7.12606 46.3333 7.12606ZM51.6948 5.73546C51.6948 4.26761 50.0107 3.40234 48.1565 3.40234H39.9983C39.7202 3.40234 39.5039 3.63411 39.5039 3.91223V9.72185C39.5039 9.99997 39.7202 10.2317 39.9983 10.2317H43.9229C44.201 10.2317 44.4174 9.99997 44.4174 9.72185V8.79479C44.4174 8.64027 44.541 8.50121 44.7109 8.50121C44.8036 8.50121 44.8809 8.54757 44.9427 8.60937L46.1942 9.90726C46.4569 10.1699 46.735 10.2317 47.0131 10.2317H51.4167C51.6948 10.2317 51.6948 9.99997 51.4322 9.72185L50.1034 8.3467C50.057 8.2849 50.0261 8.22309 50.0261 8.14584C50.0261 8.02223 50.0725 7.92952 50.2115 7.86772C51.1231 7.46599 51.6948 6.67798 51.6948 5.73546Z" fill="white"/>
<path d="M61.2563 10.2474C63.713 10.2474 65.3045 8.81041 65.3045 7.2344V6.61635V3.89695C65.3045 3.63429 65.0881 3.41797 64.8255 3.41797H61.0091C60.7464 3.41797 60.5301 3.63429 60.5301 3.89695V6.47729V6.90992C60.5301 7.72883 59.8657 8.39323 59.0468 8.39323C58.2279 8.39323 57.5635 7.72883 57.5635 6.90992V6.47729V3.89695C57.5635 3.63429 57.3471 3.41797 57.0845 3.41797H53.268C53.0054 3.41797 52.7891 3.63429 52.7891 3.89695V6.61635V7.2344C52.7891 8.81041 54.3651 10.2474 56.8373 10.2474H61.2563Z" fill="white"/>
<path d="M71.3288 8.14601V9.76838C71.3288 10.031 71.1125 10.2474 70.8498 10.2474H66.6626C66.3999 10.2474 66.1836 10.031 66.1836 9.76838V3.89695C66.1836 3.63429 66.3999 3.41797 66.6626 3.41797H70.8498C71.1125 3.41797 71.2052 3.47978 71.3597 3.68064L72.7194 5.48842C72.7349 5.50387 72.7503 5.51932 72.7658 5.51932C72.8121 5.51932 72.843 5.48842 72.843 5.44207V3.89695C72.843 3.63429 73.0593 3.41797 73.322 3.41797H77.5093C77.7719 3.41797 77.9882 3.63429 77.9882 3.89695V9.76838C77.9882 10.031 77.7719 10.2474 77.5093 10.2474H73.322C73.0593 10.2474 72.9821 10.1547 72.8894 10.0001L71.4679 8.09966C71.4524 8.08421 71.437 8.06875 71.4061 8.06875C71.3597 8.08421 71.3288 8.11511 71.3288 8.14601Z" fill="white"/>
<path d="M85.6983 7.94515C85.6983 8.87221 85.3738 8.96492 84.9721 8.96492C84.5704 8.96492 84.2459 8.87221 84.2459 7.94515V5.70474C84.2459 4.77767 84.5704 4.68496 84.9721 4.68496C85.3738 4.68496 85.6983 4.77767 85.6829 5.75109L85.6983 7.94515ZM87.5061 10.2474C89.3911 10.2474 90.9208 8.7177 90.9208 6.83267C90.9208 4.94763 89.3911 3.41797 87.5061 3.41797H82.4381C80.5531 3.41797 79.0234 4.94763 79.0234 6.83267C79.0234 8.7177 80.5531 10.2474 82.4381 10.2474H87.5061Z" fill="white"/>
<path d="M90.1211 3.58821C90.1211 2.8002 90.7546 2.22852 91.5117 2.22852C92.2533 2.22852 92.8868 2.8002 92.8868 3.58821C92.8868 4.37622 92.2533 4.96336 91.5117 4.96336C90.7546 4.96336 90.1211 4.37622 90.1211 3.58821ZM91.5117 4.73159C92.1297 4.73159 92.6242 4.25261 92.6242 3.58821C92.6242 2.93926 92.1297 2.46028 91.5117 2.46028C90.8936 2.46028 90.3992 2.93926 90.3992 3.58821C90.3992 4.25261 90.8782 4.73159 91.5117 4.73159ZM91.2181 4.37622H90.9864V2.81566H91.5889C91.9598 2.81566 92.1452 2.95472 92.1452 3.26374C92.1452 3.54186 91.9598 3.66547 91.7435 3.69637L92.1915 4.39167H91.9289L91.5117 3.71182H91.2336V4.37622H91.2181ZM91.4962 3.4955C91.6971 3.4955 91.8825 3.48006 91.8825 3.23284C91.8825 3.03197 91.7126 3.00107 91.5426 3.00107H91.2181V3.4955H91.4962Z" fill="white"/>
</svg>
