<svg width="52" height="52" viewBox="0 0 52 52" fill="none" xmlns="http://www.w3.org/2000/svg">
<path d="M43.47 0.478868L27.5713 0.463697C-8.12794 0.463697 -8.12794 51.6595 27.5713 51.6595L51.9983 51.6007V33.0032H28.3871C19.1837 33.0032 19.1837 19.12 28.3871 19.12L51.9983 19.0821V0.463697L46.6436 0.458008L44.9513 1.52186C44.6584 1.2393 44.2972 1.4498 44.2154 1.501C43.894 1.70012 43.7514 1.92958 43.9035 2.17421C44.3276 2.85689 47.003 0.567996 48.1458 2.41315C48.781 3.43717 48.4083 4.62808 46.6893 5.68814C45.6149 6.34997 44.2192 6.73114 43.4529 5.6597L45.2251 4.5655C45.537 4.75514 45.8621 4.72669 46.096 4.57119C46.3774 4.38725 46.6284 4.11228 46.4136 3.76524C45.9249 2.97636 43.4434 5.37714 42.2587 3.47131C41.4791 2.21403 42.4964 1.08001 43.47 0.478868ZM16.6794 24.0126L14.9528 25.0783L14.5135 24.7332C14.3709 25.4159 14.1199 25.7876 13.3498 26.2635C12.3306 26.8931 11.26 26.6447 10.3853 25.2357L8.52563 22.2395L10.3872 21.0922L12.0358 23.749C12.4561 24.426 12.8136 24.5037 13.2604 24.2269C13.7967 23.895 13.7054 23.3678 13.2319 22.6074L11.7639 20.2407L13.6255 19.0934L16.6794 24.0126ZM14.466 18.5738L16.1736 17.5195L16.6204 17.8741C16.6185 17.0606 17.4742 16.4518 17.9914 16.2375C18.2599 16.113 18.5574 16.0642 18.8517 16.0963C19.146 16.1284 19.4258 16.2402 19.661 16.4196C19.7256 14.8798 20.8209 14.4379 21.1328 14.2995C22.3611 13.759 23.1141 14.3696 23.8538 15.5586L25.6603 18.4695L23.7987 19.6187L22.2451 17.1099C21.8211 16.4291 21.4978 16.1674 20.9901 16.4822C20.4444 16.8197 20.646 17.3848 21.013 17.9746L22.5228 20.4076L20.6612 21.5568L19.1038 19.0498C18.6551 18.3254 18.3774 18.0979 17.8488 18.4221C17.3031 18.7578 17.5046 19.321 17.8716 19.9127L19.3814 22.3457L17.5199 23.493L14.466 18.5738ZM35.5653 12.3576L32.5115 7.43658L34.3731 6.28929L37.4269 11.2103L35.5653 12.3576ZM31.2584 5.41696L33.12 4.26967L33.9833 5.6597L32.1217 6.80889L31.2584 5.41696ZM35.3638 5.67676L37.0637 4.62808L37.6095 4.99597C37.6836 4.09331 38.2655 3.59647 38.9615 3.29874C40.051 2.83414 40.9372 3.29116 41.6883 4.50103L43.5175 7.44985L41.6559 8.59714L40.0415 5.99535C39.7316 5.49661 39.3513 5.14768 38.817 5.47765C38.2446 5.83227 38.3321 6.31015 38.7219 6.93973L40.2773 9.44671L38.4157 10.5959L35.3638 5.67676ZM8.6131 28.9848C3.59877 32.0797 -0.936367 24.8584 4.07796 21.7635L6.35599 20.3735L7.52923 22.2641L5.52882 23.4892C3.03402 25.0233 5.33677 28.414 7.67375 26.9481L9.67605 25.7231L10.8493 27.6137L8.6131 28.9848ZM23.4127 13.0536L25.1203 11.9992L25.5671 12.3538C25.5671 11.5403 26.4228 10.9316 26.9381 10.7173C27.2068 10.5938 27.5041 10.5455 27.7982 10.5776C28.0923 10.6097 28.3721 10.7209 28.6077 10.8993C28.6723 9.35948 29.7676 8.91763 30.0775 8.77919C31.3059 8.23873 32.0608 8.84746 32.7986 10.0384L34.6051 12.9493L32.7435 14.0966L31.1899 11.5896C30.7678 10.9088 30.4445 10.6471 29.933 10.9619C29.3873 11.2994 29.5888 11.8627 29.9558 12.4543L31.4657 14.8873L29.6041 16.0346L28.0486 13.5277C27.5998 12.8051 27.3222 12.5776 26.7917 12.9C26.246 13.2375 26.4475 13.8007 26.8145 14.3924L28.3243 16.8254L26.4665 17.9727L23.4127 13.0536Z" fill="white"/>
</svg>
