<svg width="88" height="24" viewBox="0 0 88 24" fill="none" xmlns="http://www.w3.org/2000/svg">
<path fill-rule="evenodd" clip-rule="evenodd" d="M43.1085 23.3143H44.1091L44.5205 21.1956H46.1685L46.3453 20.4889H44.6978L44.9912 19.2533H46.698L46.8748 18.5471H44.1679L43.1085 23.3143ZM50.0533 21.8426C50.1116 21.6075 50.1708 21.3127 50.1708 21.0184C50.1708 20.1358 49.5816 19.7235 48.6408 19.7235C47.463 19.7235 46.5804 20.7828 46.5804 21.8421C46.5804 22.9015 47.2871 23.4314 48.3465 23.4314C48.7584 23.4314 49.1115 23.3138 49.5234 23.1963L49.6409 22.4896C49.2873 22.6664 48.8759 22.7247 48.5223 22.7247C47.8748 22.7247 47.5222 22.4896 47.5222 21.8421L50.0533 21.8426ZM47.6398 21.1956C47.8166 20.725 48.0516 20.3714 48.6408 20.3714C49.0522 20.3714 49.229 20.6065 49.229 20.9606V21.1956H47.6398ZM53.9968 21.8426C54.0551 21.6075 54.1143 21.3127 54.1143 21.0184C54.1143 20.1358 53.5251 19.7235 52.6426 19.7235C51.4065 19.7235 50.5239 20.7828 50.5239 21.8421C50.5239 22.9015 51.2306 23.4314 52.29 23.4314C52.7014 23.4314 53.1133 23.3138 53.4669 23.1963L53.5844 22.4896C53.2308 22.6664 52.8777 22.7247 52.4658 22.7247C51.8184 22.7247 51.4657 22.4896 51.4657 21.8421L53.9968 21.8426ZM51.5833 21.1956C51.7601 20.725 51.9952 20.3714 52.5834 20.3714C52.9952 20.3714 53.2308 20.6065 53.2308 20.9606C53.2308 21.0189 53.1725 21.1364 53.1725 21.1956H51.5833ZM54.4077 23.3143H55.3495L56.4686 18.1347H55.5263L54.4077 23.3143ZM58.528 20.4307H59.2337L58.9404 21.6658C58.8811 21.9602 58.8228 22.1957 58.8228 22.4901C58.8228 23.1375 59.2935 23.4319 59.9404 23.4319C60.1172 23.4319 60.2931 23.3726 60.4704 23.3143L60.5879 22.6076C60.4704 22.6669 60.3528 22.6669 60.176 22.6669C59.9409 22.6669 59.7641 22.5493 59.7641 22.3725C59.7641 22.1957 59.8234 22.0782 59.8234 22.0199L60.176 20.4307H61.0586L61.1771 19.7832H60.3528L60.5879 18.7239L59.5286 19.0765L59.411 19.7832H58.7043L58.528 20.4307ZM61.1766 23.3143H62.1174L62.471 21.5483C62.5886 21.0184 62.8824 20.4307 63.5304 20.4307C63.8237 20.4307 64.0593 20.6065 64.0593 20.9013C64.0593 21.1961 64.001 21.4312 63.9418 21.6663L63.5891 23.3148H64.5309L64.8836 21.608C64.9428 21.3729 65.0011 21.0781 65.0011 20.843C65.0011 20.1363 64.5304 19.7244 63.8242 19.7244C63.4123 19.7244 63.0592 19.9012 62.8241 20.1363H62.7649L63.2365 18.1352H62.2947L61.1766 23.3143ZM69.0039 21.8426C69.0621 21.6075 69.1214 21.3127 69.1214 21.0184C69.1214 20.1358 68.5322 19.7235 67.6497 19.7235C66.4136 19.7235 65.531 20.7828 65.531 21.8421C65.531 22.9015 66.2377 23.4314 67.2971 23.4314C67.7085 23.4314 68.1203 23.3138 68.4739 23.1963L68.5915 22.4896C68.2379 22.6664 67.8848 22.7247 67.4729 22.7247C66.8254 22.7247 66.4728 22.4896 66.4728 21.8421L69.0039 21.8426ZM66.5904 21.1956C66.7672 20.725 67.0022 20.3714 67.5904 20.3714C68.0023 20.3714 68.2379 20.6065 68.2379 20.9606C68.2379 21.0189 68.1796 21.1364 68.1796 21.1956H66.5904ZM74.9475 18.1347L74.4769 20.1951C74.1825 19.8415 73.8294 19.7235 73.3583 19.7235C72.1231 19.7235 71.5339 20.9003 71.5339 21.9602C71.5339 22.7252 71.8866 23.4319 72.7701 23.4319C73.3 23.4319 73.6526 23.1968 73.947 22.7844L73.8877 23.3143H74.7702C74.7702 23.1375 74.8295 22.8427 74.8878 22.5493L75.8888 18.1347H74.9475ZM73.4758 20.4307C73.9474 20.4307 74.1825 20.8425 74.1825 21.2549C74.1825 21.9024 73.7706 22.6674 73.0639 22.6674C72.5933 22.6674 72.4757 22.1957 72.4757 21.8431C72.4757 21.3132 72.8284 20.4307 73.4758 20.4307ZM75.7125 23.3143H76.6543L76.9487 21.7251C77.0662 21.1359 77.4193 20.6065 78.0663 20.6065H78.4189L78.655 19.7239H78.3014C77.8307 19.7239 77.3605 20.0766 77.1838 20.4307L77.3013 19.7832H76.4188C76.4188 19.959 76.3595 20.0766 76.3595 20.2539L75.7125 23.3143ZM78.4194 23.3143H79.3612L80.1262 19.7832H79.1854L78.4194 23.3143ZM79.3612 19.1357H80.303L80.4798 18.2522H79.538L79.3612 19.1357ZM81.3031 23.3143H82.3624L84.4816 19.7832H83.4815L82.0681 22.3725L81.6572 19.7832H80.7154L81.3031 23.3143ZM87.8952 21.8426C87.9535 21.6075 87.9535 21.3127 87.9535 21.0184C87.9535 20.1358 87.3653 19.7235 86.4827 19.7235C85.2466 19.7235 84.4223 20.7828 84.4223 21.8421C84.4223 22.9015 85.1291 23.4314 86.1291 23.4314C86.541 23.4314 86.9534 23.3138 87.306 23.1963L87.4236 22.4896C87.0709 22.6664 86.7178 22.7247 86.3059 22.7247C85.6585 22.7247 85.3058 22.4896 85.3058 21.8421L87.8952 21.8426ZM85.4234 21.1956C85.5992 20.725 85.8941 20.3714 86.4827 20.3714C86.8354 20.3714 87.0709 20.6065 87.0709 20.9606C87.0709 21.0189 87.0709 21.1364 87.0126 21.1956H85.4234ZM1.32311 0.479492H5.26661C5.26661 0.479492 2.02934 6.24685 6.09038 11.7204C6.09038 11.7204 4.61916 13.3684 4.38359 15.6046C4.38359 15.6046 1.08032 12.428 0.558594 7.0239V4.13154C0.666503 2.98453 0.908335 1.76525 1.32311 0.479492ZM20.6856 0.479492H16.8013C16.8013 0.479492 19.9794 6.24685 15.9776 11.7204C15.9776 11.7204 17.4488 13.3684 17.6251 15.6046C17.6256 15.6046 23.6873 9.77799 20.6856 0.479492Z" fill="white"/>
<path fill-rule="evenodd" clip-rule="evenodd" d="M4.91406 7.89523C4.91406 7.89523 7.092 5.71777 11.035 5.71777C14.978 5.71777 17.0967 7.89523 17.0967 7.89523C17.0967 7.89523 16.5673 10.0727 15.5667 11.25C15.5667 11.25 13.8599 9.36645 11.035 9.36645C8.21011 9.36645 6.44454 11.3088 6.44454 11.3088C6.44454 11.3088 5.26766 9.71957 4.91406 7.89523Z" fill="white"/>
<path fill-rule="evenodd" clip-rule="evenodd" d="M62.2947 1.30273H65.1191V4.65707H67.061V6.77575H65.1191V10.5425C65.1191 11.1899 65.531 11.4843 65.9433 11.543C66.1784 11.6018 67.061 11.6018 67.2383 11.6018V13.838C63.0597 14.3096 62.2354 13.3674 62.2354 10.013V6.77624H61.2946V4.65756H62.2354L62.2947 2.77444V1.30273ZM47.8175 6.83501C46.4633 6.83501 45.6988 7.89435 45.6988 9.13001C45.6988 10.3657 46.4638 11.3667 47.8175 11.3667C49.1124 11.3667 49.9362 10.3661 49.9362 9.13001C49.9362 7.89387 49.1712 6.83501 47.8175 6.83501ZM52.5838 13.6622H49.7001V12.6611C49.7001 12.6611 48.7 13.9561 47.0525 13.9561C44.2859 13.9561 42.8146 11.7198 42.8146 9.07171C42.8146 6.48238 44.0508 4.3637 46.9932 4.3637C47.935 4.3637 48.9351 4.65804 49.5826 5.42304L49.7001 5.59935V4.65756H52.5838V13.6622ZM60.5879 6.77575C60.5879 6.77575 59.8229 6.54067 58.5867 6.36387C56.8799 6.1283 56.6448 6.71698 56.6448 7.2469C56.6448 7.60001 56.9975 7.7768 57.2923 7.89435C57.4691 7.95312 58.2341 8.07067 58.3516 8.12992C59.8234 8.48303 60.941 9.07172 60.941 10.7193C60.941 13.0147 59.1759 13.9556 57.0572 13.9556C56.0571 13.9556 54.9978 13.8973 53.8204 13.4849V11.3075C54.4679 11.7781 56.1154 11.8374 56.8804 11.8374C57.2923 11.8374 57.999 11.6013 57.999 11.0131C57.999 10.6012 57.7047 10.4244 57.2923 10.3069C56.9397 10.1306 56.2922 10.0713 55.8216 9.95378C54.8205 9.65944 53.7029 9.18878 53.6436 7.59952C53.5261 5.01019 55.2921 4.24519 57.5871 4.24519C58.5872 4.24519 59.6466 4.30396 60.5291 4.71584L60.5879 6.77575ZM28.6901 7.89435C28.5138 7.01132 27.7483 6.36435 26.8658 6.36435C25.924 6.36435 25.159 6.95255 24.9234 7.89435H28.6901ZM31.6326 9.83624H24.9234C24.9234 11.1899 25.5709 11.8379 26.9245 11.8379C27.572 11.8379 28.1014 11.543 28.4545 10.9548H31.397C30.5732 13.0152 28.8664 14.0153 26.9241 14.0153C24.0991 14.0153 21.9805 12.3085 21.9805 9.13049C21.9805 6.12926 23.9228 4.30444 26.689 4.30444C29.6902 4.30444 31.6913 6.18755 31.6913 9.3068L31.6326 9.83624ZM37.1648 6.83501C35.8111 6.83501 35.0462 7.89435 35.0462 9.13001C35.0462 10.3657 35.8111 11.3667 37.1648 11.3667C38.5185 11.3667 39.2835 10.3661 39.2835 9.13001C39.2835 7.89387 38.5185 6.83501 37.1648 6.83501ZM35.2817 1.30273V5.59887L35.3993 5.42255C36.0467 4.65756 37.0473 4.36321 38.0479 4.36321C40.5197 4.36321 42.1672 6.48189 42.1672 9.07123C42.1672 11.7198 40.4016 13.9556 37.9298 13.9556C36.988 13.9556 35.8112 13.6029 35.2812 12.7204V13.6622H32.3976V1.30273H35.2817ZM72.1236 11.4255C73.4185 11.4255 74.183 10.4249 74.183 9.18878C74.183 8.01189 73.418 6.95207 72.1236 6.95207C70.8291 6.95207 70.0632 8.01141 70.0632 9.18878C70.0627 10.4249 70.8286 11.4255 72.1236 11.4255ZM76.9491 9.18878C76.9491 12.1905 74.7124 13.9556 72.1231 13.9556C69.5328 13.9556 67.297 12.2488 67.297 9.18878C67.297 6.1283 69.5328 4.4215 72.1231 4.4215C74.7129 4.42198 76.9491 6.12878 76.9491 9.18878Z" fill="white"/>
</svg>
