<svg width="101" height="14" viewBox="0 0 101 14" fill="none" xmlns="http://www.w3.org/2000/svg">
<path d="M30.3663 1.51222H26.3934C25.9944 1.51222 25.662 1.82805 25.6453 2.24363V13.4309H30.3663C33.6576 13.4309 36.3339 10.7546 36.3339 7.46325C36.3339 4.17189 33.6576 1.49559 30.3663 1.49559V1.51222ZM28.6209 10.4221V4.47111H30.3663C31.9953 4.47111 33.2421 5.80095 33.2421 7.44663C33.2421 9.0923 31.9953 10.4221 30.3663 10.4221H28.6209ZM60.4206 1.51222C60.1214 1.51222 59.8388 1.67845 59.7059 1.96104L57.1792 8.6601L54.6525 1.96104C54.5361 1.67845 54.2535 1.51222 53.9543 1.51222H50.4801V13.3977H53.4722V6.44925L56.1984 13.3145H58.2098L60.936 6.46587V13.4143H63.9115V1.51222H60.4206ZM85.8538 13.3977H89.0787V1.51222H85.8538V13.3977ZM65.4907 1.51222V12.6662C65.4907 13.0818 65.8231 13.4143 66.2387 13.4143H73.9185V10.4221H68.4828V8.46063H72.9544V5.93393H68.4828V4.45449H73.9185V1.51222H65.4907ZM75.0655 1.51222V3.7397C75.0655 4.15527 75.398 4.48773 75.8135 4.48773H78.2904V13.3977H81.5152V4.48773H84.7401V1.47897L75.0655 1.51222ZM43.3488 1.36261C40.0242 1.36261 37.3313 4.08878 37.3313 7.44663C37.3313 10.8211 40.0076 13.5473 43.3322 13.5473C46.6568 13.5473 49.3497 10.8211 49.3497 7.44663C49.3497 4.05554 46.6402 1.36261 43.3488 1.36261ZM43.3488 10.5053C41.6865 10.5053 40.3733 9.14217 40.3733 7.44663C40.3733 5.73446 41.7032 4.38799 43.3488 4.38799C44.9945 4.38799 46.3243 5.75108 46.3243 7.44663C46.3243 9.1588 44.9613 10.5053 43.3488 10.5053ZM96.1268 4.38799C97.0079 4.38799 97.839 4.77033 98.3876 5.45187L100.532 3.3075C99.4182 2.06077 97.8224 1.34599 96.1435 1.34599C92.8189 1.34599 90.0927 4.08878 90.0927 7.46325C90.0927 10.8377 92.8189 13.5639 96.1435 13.5639C97.8224 13.5473 99.4016 12.8325 100.532 11.6024L98.3876 9.47463C97.8224 10.1562 96.9912 10.5385 96.1268 10.5385C94.5144 10.5385 93.1679 9.17542 93.1679 7.47987C93.1513 5.73446 94.4812 4.38799 96.1268 4.38799ZM13.6269 6.91469L7.49303 0.747559L0.777344 7.44663L2.82197 9.49125C3.12119 9.77384 3.58663 9.77384 3.88584 9.49125L7.47641 5.86744L11.5989 10.0232L13.6269 7.97856C13.9261 7.67935 13.9261 7.2139 13.6269 6.91469Z" fill="white"/>
<path d="M15.7523 0.747559L13.6911 2.79219C13.4085 3.0914 13.4085 3.55685 13.6911 3.85606L17.2817 7.44663L13.1758 11.5691L15.2204 13.5971C15.5196 13.8797 15.9851 13.8797 16.2843 13.5971L22.4514 7.44663L15.7523 0.747559Z" fill="white"/>
</svg>
