<svg width="78" height="78" viewBox="0 0 78 78" fill="none" xmlns="http://www.w3.org/2000/svg">
<g clip-path="url(#clip0_654_2637)">
<path fill-rule="evenodd" clip-rule="evenodd" d="M72.0565 54.9757C72.1716 53.8473 72.2302 52.4161 72.2302 51.2574C72.2302 32.7163 57.199 17.6855 38.6578 17.6855C20.1167 17.6855 5.08586 32.7163 5.08586 51.2574C5.08586 52.5205 5.15559 53.7509 5.29146 54.9781L1.57917 54.9733C1.45081 53.7389 1.38658 52.4986 1.38672 51.2574C1.38672 30.6735 18.0743 13.9863 38.6582 13.9863C59.243 13.9863 75.9301 30.6735 75.9301 51.2574C75.9301 52.5117 75.868 53.7509 75.7473 54.9733L72.0565 54.9757Z" fill="white"/>
<path fill-rule="evenodd" clip-rule="evenodd" d="M17.0741 54.1348L20.9984 50.0799V54.9855H26.4259V43.998H20.9984L17.0741 48.7068L13.1506 43.998H7.72266V54.9855H13.1506V50.0799L17.0741 54.1348ZM50.6883 43.998V54.9855H56.1171V49.23L63.3755 54.9855H69.1302V43.998H63.7022V49.8842L56.1171 43.998H50.6883ZM28.4536 54.9855L35.3853 43.998H41.7289L48.7264 54.9855H42.9717L38.59 48.0534L36.432 51.584H40.7476L42.3178 54.0041H34.8626L34.2083 54.9855H28.4536Z" fill="white"/>
</g>
<defs>
<clipPath id="clip0_654_2637">
<rect width="76.8022" height="76.8022" fill="white" transform="translate(0.253906 0.834961)"/>
</clipPath>
</defs>
</svg>
