<svg width="105" height="30" viewBox="0 0 105 30" fill="none" xmlns="http://www.w3.org/2000/svg">
<path d="M12.9703 24.8862V18.775C15.3488 17.9416 17.0502 15.6673 17.0502 13.011C17.0502 9.64288 14.3071 6.89979 10.939 6.89979C10.2272 6.89979 9.5327 7.02132 8.90769 7.24702V0.788574H4.8104V13.0284C4.8104 15.6847 6.51181 17.959 8.89032 18.7923V24.9036C6.51181 24.0702 4.8104 21.7959 4.8104 19.1396H0.730469C0.730469 24.7647 5.29652 29.3307 10.9216 29.3307C16.5467 29.3307 21.1127 24.7647 21.1127 19.1396H17.0328C17.0502 21.7785 15.3488 24.0355 12.9703 24.8862ZM10.9216 15.1291C9.74103 15.1291 8.78616 14.1742 8.78616 12.9936C8.78616 11.8131 9.74103 10.8582 10.9216 10.8582C12.1022 10.8582 13.0571 11.8131 13.0571 12.9936C13.0744 14.1742 12.1195 15.1291 10.9216 15.1291Z" fill="white"/>
<path d="M20.1051 2.73289C20.6433 2.73289 21.112 2.31621 21.112 1.72593C21.112 1.153 20.6433 0.736328 20.1051 0.736328C19.5495 0.736328 19.0981 1.153 19.0981 1.72593C19.0808 2.31621 19.5495 2.73289 20.1051 2.73289ZM20.1051 0.892582C20.5565 0.892582 20.9211 1.25717 20.9211 1.72593C20.9211 2.21205 20.5565 2.55927 20.1051 2.55927C19.6363 2.55927 19.2891 2.21205 19.2891 1.72593C19.2717 1.25717 19.6363 0.892582 20.1051 0.892582Z" fill="white"/>
<path d="M19.898 1.81278H20.089L20.4015 2.31626H20.5925L20.2626 1.81278C20.4362 1.79542 20.5577 1.70861 20.5577 1.50028C20.5577 1.27458 20.4188 1.17041 20.1411 1.17041H19.707V2.31626H19.8806L19.898 1.81278ZM19.898 1.3093H20.1411C20.3494 1.3093 20.4015 1.37875 20.4015 1.48292C20.4015 1.60445 20.332 1.67389 20.1237 1.67389H19.898V1.3093Z" fill="white"/>
<path d="M103.247 10.0418C104.15 10.0418 104.896 9.29529 104.896 8.3925C104.896 7.47234 104.167 6.74316 103.247 6.74316C102.327 6.74316 101.598 7.47234 101.598 8.3925C101.598 9.31265 102.344 10.0418 103.247 10.0418Z" fill="white"/>
<path d="M31.0265 25.1812H30.6445V29.1395H33.3008V28.7923H31.0265V25.1812Z" fill="white"/>
<path d="M36.7913 27.1775C36.7913 27.3858 36.7739 27.5768 36.7218 27.7678C36.6871 27.9588 36.6177 28.1324 36.5135 28.2886C36.4093 28.4449 36.2878 28.5664 36.1142 28.6532C35.9579 28.74 35.7496 28.7921 35.4892 28.7921C35.2461 28.7921 35.0378 28.74 34.8815 28.6532C34.7079 28.5664 34.5864 28.4449 34.4822 28.2886C34.378 28.1324 34.3086 27.9588 34.2739 27.7678C34.2392 27.5768 34.2218 27.3685 34.2218 27.1601V25.1636H33.8398V27.1775C33.8398 27.4206 33.8746 27.681 33.9267 27.9067C33.9787 28.1497 34.0829 28.3581 34.2044 28.5317C34.3433 28.7227 34.4996 28.8616 34.7253 28.9831C34.9336 29.0872 35.194 29.1393 35.5239 29.1393C35.819 29.1393 36.0795 29.0872 36.2878 28.9831C36.4961 28.8789 36.6697 28.7227 36.8086 28.549C36.9475 28.3754 37.0343 28.1497 37.1038 27.924C37.1559 27.681 37.1906 27.4379 37.1906 27.1601V25.1636H36.7913V27.1775Z" fill="white"/>
<path d="M40.6615 25.1812L39.3768 26.9173L38.0747 25.1812H37.6406L39.1684 27.1777L37.6927 29.1395H38.1267L39.3768 27.4729L40.6268 29.1395H41.0608L39.5851 27.1777L41.0955 25.1812H40.6615Z" fill="white"/>
<path d="M44.5 27.1775C44.5 27.3858 44.4827 27.5768 44.4306 27.7678C44.3959 27.9588 44.3264 28.1324 44.2223 28.2886C44.1181 28.4449 43.9966 28.5664 43.823 28.6532C43.6667 28.74 43.4584 28.7921 43.1979 28.7921C42.9549 28.7921 42.7465 28.74 42.5903 28.6532C42.434 28.5664 42.2951 28.4449 42.191 28.2886C42.0868 28.1324 42.0174 27.9588 41.9826 27.7678C41.9479 27.5768 41.9132 27.3685 41.9132 27.1601V25.1636H41.5312V27.1775C41.5312 27.4206 41.566 27.681 41.6181 27.9067C41.6701 28.1497 41.7569 28.3581 41.8958 28.5317C42.0174 28.7227 42.191 28.8616 42.4167 28.9831C42.625 29.0872 42.8854 29.1393 43.1979 29.1393C43.4931 29.1393 43.7535 29.0872 43.9792 28.9831C44.1875 28.8789 44.3612 28.7227 44.5 28.549C44.6216 28.3754 44.7257 28.1497 44.7952 27.924C44.8646 27.681 44.882 27.4379 44.882 27.1601V25.1636H44.4827L44.5 27.1775Z" fill="white"/>
<path d="M48.1428 27.4729C48.247 27.4034 48.3338 27.3166 48.4206 27.1951C48.4901 27.0909 48.5595 26.9694 48.5942 26.8478C48.6463 26.709 48.6637 26.5701 48.6637 26.4312C48.6637 26.2749 48.629 26.1187 48.5769 25.9798C48.5248 25.8409 48.438 25.702 48.3338 25.5805C48.2296 25.4589 48.1081 25.3721 47.9519 25.3027C47.813 25.2159 47.6567 25.1812 47.4831 25.1812H45.8164V29.1395H46.1984V27.6812H47.3616L48.2991 29.1395H48.7331L47.7609 27.6117C47.9171 27.577 48.0387 27.5423 48.1428 27.4729ZM46.2157 27.334V25.5284H47.4831C47.5873 25.5284 47.6914 25.5457 47.7956 25.5978C47.8998 25.6499 47.9866 25.7194 48.056 25.7888C48.1255 25.8756 48.1776 25.9624 48.2296 26.0839C48.2644 26.1881 48.2991 26.3096 48.2991 26.4312C48.2991 26.5527 48.2817 26.6569 48.247 26.761C48.2123 26.8652 48.1602 26.9694 48.0907 27.0562C48.0213 27.143 47.9345 27.2124 47.8477 27.2645C47.7609 27.3166 47.6567 27.334 47.5352 27.334H46.2157Z" fill="white"/>
<path d="M50.7696 27.3166L49.4675 25.1812H49.0508L50.5612 27.6638V29.1395H50.9432V27.6638L52.4883 25.1812H52.0717L50.7696 27.3166Z" fill="white"/>
<path d="M55.3516 27.3166L54.0668 25.1812H53.6328L55.1606 27.6638V29.1395H55.5426V27.6638L57.0704 25.1812H56.6537L55.3516 27.3166Z" fill="white"/>
<path d="M58.8564 25.1812L57.207 29.1395H57.6237L58.1272 27.9069H59.898L60.4015 29.1395H60.8182L59.1689 25.1812H58.8564ZM58.1966 27.5944L59.0126 25.6499L59.8112 27.5944H58.1966Z" fill="white"/>
<path d="M63.9961 28.41C63.9093 28.4968 63.8052 28.5836 63.6836 28.6357C63.5795 28.6878 63.4579 28.7399 63.3538 28.7572C63.2322 28.7919 63.1281 28.7919 63.0239 28.7919C62.8156 28.7919 62.6072 28.7399 62.4336 28.6531C62.26 28.5662 62.1037 28.4447 61.9649 28.2885C61.8433 28.1322 61.7218 27.9586 61.6524 27.7503C61.5829 27.5593 61.5482 27.3336 61.5482 27.1253C61.5482 26.9169 61.5829 26.7259 61.6524 26.535C61.7218 26.344 61.8086 26.1704 61.9301 26.0141C62.0517 25.8579 62.2079 25.7363 62.3989 25.6322C62.5725 25.528 62.7982 25.4759 63.0239 25.4759C63.1281 25.4759 63.2322 25.4933 63.3538 25.5106C63.4579 25.528 63.5621 25.5627 63.6836 25.6322C63.7878 25.6843 63.892 25.7537 63.9788 25.8405C64.0656 25.9273 64.1524 26.0315 64.2045 26.1704L64.517 25.9794C64.3955 25.719 64.2045 25.5106 63.9614 25.3544C63.7184 25.1981 63.4059 25.1113 63.0586 25.1113C62.7635 25.1113 62.5031 25.1634 62.26 25.2849C62.0343 25.4065 61.826 25.5454 61.6697 25.7363C61.5135 25.9273 61.3919 26.1356 61.3051 26.3787C61.2183 26.6218 61.1836 26.8475 61.1836 27.0905C61.1836 27.3509 61.2183 27.594 61.3225 27.8371C61.4093 28.0801 61.5482 28.3058 61.7044 28.4968C61.8607 28.6878 62.069 28.844 62.2947 28.9482C62.5204 29.0697 62.7635 29.1218 63.0413 29.1218C63.1975 29.1218 63.3364 29.1044 63.4927 29.0524C63.6489 29.0176 63.8052 28.9482 63.9441 28.8787C64.083 28.7919 64.2045 28.7051 64.326 28.601C64.4475 28.4794 64.5343 28.3579 64.5864 28.2017L64.2566 28.028C64.1524 28.219 64.0829 28.3232 63.9961 28.41Z" fill="white"/>
<path d="M67.9562 26.9347H65.6124V25.1812H65.2305V29.1395H65.6124V27.2819H67.9562V29.1395H68.3382V25.1812H67.9562V26.9347Z" fill="white"/>
<path d="M68.9414 25.5284H70.3477V29.1395H70.7296V25.5284H72.1359V25.1812H68.9414V25.5284Z" fill="white"/>
<path d="M76.1489 27.3511C76.0274 27.2643 75.8885 27.1949 75.7149 27.1428C75.5413 27.0907 75.3677 27.0386 75.142 26.9865C74.951 26.9518 74.7947 26.8997 74.6558 26.865C74.5169 26.8303 74.3954 26.7782 74.3086 26.7261C74.2218 26.674 74.1524 26.6046 74.1176 26.5351C74.0829 26.4483 74.0482 26.3615 74.0482 26.24C74.0482 26.0143 74.135 25.8407 74.2912 25.7018C74.4475 25.5802 74.7079 25.4934 75.0551 25.4934C75.2808 25.4934 75.5065 25.5282 75.6802 25.615C75.8711 25.7018 76.0274 25.7886 76.1316 25.9275L76.3225 25.615C76.1489 25.4761 75.9753 25.3546 75.767 25.2851C75.5586 25.1983 75.3329 25.1636 75.0725 25.1636C74.8642 25.1636 74.6732 25.1983 74.4996 25.2504C74.326 25.3025 74.1871 25.3719 74.0482 25.4587C73.9267 25.5455 73.8225 25.6671 73.753 25.8233C73.6836 25.9622 73.6489 26.1185 73.6489 26.3094C73.6489 26.4657 73.6836 26.6046 73.7357 26.7087C73.7878 26.8129 73.8746 26.9171 73.9787 26.9865C74.0829 27.056 74.2218 27.1254 74.3781 27.1775C74.5343 27.2296 74.7079 27.2817 74.9163 27.3337C75.1072 27.3685 75.2808 27.4206 75.4371 27.4726C75.5933 27.5247 75.7149 27.5768 75.819 27.6289C75.9232 27.681 75.9927 27.7678 76.0447 27.8546C76.0968 27.9414 76.1316 28.0282 76.1316 28.1497C76.1316 28.3754 76.0447 28.549 75.8711 28.6706C75.6975 28.7747 75.4371 28.8442 75.1246 28.8442C74.8295 28.8442 74.5517 28.7921 74.3086 28.6879C74.0655 28.5838 73.8746 28.4449 73.7183 28.2886L73.5273 28.6011C73.9614 28.9831 74.4996 29.1741 75.1072 29.1741C75.3156 29.1741 75.5065 29.1567 75.6802 29.122C75.8538 29.0873 76.01 29.0178 76.1316 28.931C76.2531 28.8442 76.3573 28.7227 76.4267 28.6011C76.4961 28.4622 76.5309 28.306 76.5309 28.1324C76.5309 27.9588 76.4961 27.8025 76.4441 27.681C76.3573 27.5247 76.2704 27.4379 76.1489 27.3511Z" fill="white"/>
<path d="M80.1593 25.7886C80.0031 25.5976 79.8121 25.4414 79.5691 25.3372C79.3434 25.2157 79.1003 25.1636 78.8225 25.1636C78.5621 25.1636 78.319 25.2157 78.0933 25.3372C77.8676 25.4414 77.6767 25.5802 77.503 25.7712C77.3294 25.9622 77.2079 26.1705 77.1037 26.4136C77.0169 26.6567 76.9648 26.8997 76.9648 27.1775C76.9648 27.4206 77.0169 27.681 77.1037 27.9067C77.1905 28.1497 77.3121 28.3581 77.4857 28.549C77.6419 28.74 77.8503 28.8789 78.076 29.0004C78.3017 29.1046 78.5621 29.1741 78.8399 29.1741C79.1003 29.1741 79.3434 29.122 79.5691 29.0178C79.7948 28.8963 79.9857 28.7574 80.1593 28.5664C80.333 28.3754 80.4545 28.1671 80.5413 27.924C80.6455 27.681 80.6802 27.4379 80.6802 27.1775C80.6802 26.9344 80.6281 26.6914 80.5413 26.4483C80.4545 26.1879 80.3156 25.9796 80.1593 25.7886ZM80.1767 27.7678C80.1073 27.9588 80.0204 28.1324 79.8816 28.2886C79.76 28.4449 79.6038 28.5664 79.4302 28.6706C79.2392 28.7747 79.0482 28.8268 78.8225 28.8268C78.5968 28.8268 78.4058 28.7747 78.2322 28.6879C78.0586 28.6011 77.9024 28.4796 77.7635 28.3233C77.6419 28.1671 77.5378 27.9935 77.4683 27.8025C77.3989 27.5942 77.3642 27.3858 77.3642 27.1775C77.3642 26.9692 77.3989 26.7782 77.4683 26.5698C77.5378 26.3789 77.6419 26.2053 77.7635 26.0316C77.885 25.8754 78.0412 25.7539 78.2322 25.6671C78.4058 25.5802 78.6142 25.5108 78.8399 25.5108C79.0482 25.5108 79.2565 25.5629 79.4302 25.6497C79.6038 25.7365 79.76 25.858 79.8989 26.0143C80.0204 26.1705 80.1246 26.3441 80.1941 26.5351C80.2635 26.7435 80.2982 26.9344 80.2982 27.1601C80.2809 27.3685 80.2461 27.5594 80.1767 27.7678Z" fill="white"/>
<path d="M81.8077 25.1812H81.4258V29.1395H84.0821V28.7923H81.8077V25.1812Z" fill="white"/>
<path d="M87.5747 27.1775C87.5747 27.3858 87.5573 27.5768 87.5226 27.7678C87.4879 27.9588 87.4184 28.1324 87.3143 28.2886C87.2101 28.4449 87.0886 28.5664 86.915 28.6532C86.7587 28.74 86.5504 28.7921 86.29 28.7921C86.0469 28.7921 85.8386 28.74 85.6823 28.6532C85.5087 28.5664 85.3872 28.4449 85.283 28.2886C85.1962 28.1324 85.1094 27.9588 85.0747 27.7678C85.0399 27.5768 85.0226 27.3685 85.0226 27.1601V25.1636H84.6406V27.1775C84.6406 27.4206 84.6753 27.681 84.7274 27.9067C84.7795 28.1497 84.8837 28.3581 85.0052 28.5317C85.1267 28.7227 85.3004 28.8616 85.5261 28.9831C85.7344 29.0872 85.9948 29.1393 86.3073 29.1393C86.6198 29.1393 86.8629 29.0872 87.0712 28.9831C87.2796 28.8789 87.4532 28.7227 87.5921 28.549C87.731 28.3754 87.8178 28.1497 87.8872 27.924C87.9393 27.681 87.974 27.4379 87.974 27.1601V25.1636H87.5747V27.1775Z" fill="white"/>
<path d="M88.5078 25.5284H89.9141V29.1395H90.296V25.5284H91.7023V25.1812H88.5078V25.5284Z" fill="white"/>
<path d="M92.6945 25.1982H92.3125V29.1393H92.6945V25.1982Z" fill="white"/>
<path d="M96.6515 25.7886C96.4953 25.5976 96.3043 25.4414 96.0612 25.3372C95.8355 25.2157 95.5925 25.1636 95.3147 25.1636C95.0543 25.1636 94.8112 25.2157 94.5855 25.3372C94.3598 25.4414 94.1688 25.5802 93.9952 25.7712C93.8216 25.9622 93.7001 26.1705 93.5959 26.4136C93.5091 26.6567 93.457 26.8997 93.457 27.1775C93.457 27.4206 93.4918 27.681 93.5959 27.9067C93.6827 28.1497 93.8043 28.3581 93.9779 28.549C94.1341 28.74 94.3251 28.8789 94.5682 29.0004C94.7939 29.1046 95.0543 29.1741 95.3321 29.1741C95.5925 29.1741 95.8355 29.122 96.0612 29.0178C96.2869 28.8963 96.4779 28.7574 96.6515 28.5664C96.8251 28.3754 96.9467 28.1671 97.0335 27.924C97.1376 27.681 97.1724 27.4379 97.1724 27.1775C97.1724 26.9344 97.1203 26.6914 97.0335 26.4483C96.9293 26.1879 96.8078 25.9796 96.6515 25.7886ZM96.6515 27.7678C96.5821 27.9588 96.4953 28.1324 96.3564 28.2886C96.2349 28.4449 96.0786 28.5664 95.8876 28.6706C95.6967 28.7747 95.5057 28.8268 95.28 28.8268C95.0543 28.8268 94.8633 28.7747 94.6897 28.6879C94.5161 28.6011 94.3598 28.4796 94.2209 28.3233C94.0994 28.1671 93.9952 27.9935 93.9258 27.8025C93.8563 27.5942 93.8216 27.3858 93.8216 27.1775C93.8216 26.9692 93.8563 26.7782 93.9258 26.5698C93.9952 26.3789 94.0994 26.2053 94.2209 26.0316C94.3425 25.8754 94.4987 25.7539 94.6897 25.6671C94.8633 25.5802 95.0716 25.5108 95.2973 25.5108C95.5057 25.5108 95.714 25.5629 95.8876 25.6497C96.0612 25.7365 96.2175 25.858 96.339 26.0143C96.4779 26.1705 96.5647 26.3441 96.6342 26.5351C96.7036 26.7435 96.7383 26.9344 96.7383 27.1601C96.7557 27.3685 96.7383 27.5594 96.6515 27.7678Z" fill="white"/>
<path d="M100.819 28.4798L98.2148 25.1812H97.9023V29.1395H98.2843V25.9103L100.871 29.1395H101.201V25.1985H100.819V28.4798Z" fill="white"/>
<path d="M104.813 27.6638C104.744 27.5423 104.657 27.4381 104.535 27.3687C104.414 27.2819 104.275 27.2124 104.101 27.1603C103.928 27.1083 103.754 27.0562 103.528 27.0041C103.337 26.9694 103.181 26.9173 103.042 26.8826C102.903 26.8478 102.782 26.7958 102.695 26.7437C102.608 26.6916 102.539 26.6221 102.487 26.5527C102.434 26.4659 102.417 26.3791 102.417 26.2576C102.417 26.0319 102.504 25.8582 102.66 25.7194C102.816 25.5978 103.077 25.511 103.424 25.511C103.65 25.511 103.875 25.5457 104.049 25.6325C104.24 25.7194 104.396 25.8062 104.5 25.9451L104.691 25.6325C104.518 25.4937 104.344 25.3721 104.136 25.3027C103.928 25.2159 103.702 25.1812 103.441 25.1812C103.233 25.1812 103.042 25.2159 102.869 25.268C102.695 25.32 102.556 25.3895 102.417 25.4763C102.296 25.5631 102.209 25.6846 102.122 25.8409C102.053 25.9798 102.018 26.136 102.018 26.327C102.018 26.4833 102.053 26.6221 102.105 26.7263C102.157 26.8305 102.243 26.9347 102.348 27.0041C102.452 27.0735 102.591 27.143 102.747 27.1951C102.903 27.2472 103.077 27.2992 103.285 27.3513C103.476 27.386 103.65 27.4381 103.806 27.4902C103.962 27.5423 104.084 27.5944 104.188 27.6465C104.292 27.7159 104.362 27.7854 104.414 27.8722C104.466 27.959 104.483 28.0458 104.483 28.1673C104.483 28.393 104.396 28.5666 104.223 28.6882C104.049 28.7923 103.806 28.8618 103.476 28.8618C103.181 28.8618 102.903 28.8097 102.66 28.7055C102.417 28.6013 102.226 28.4625 102.07 28.3062L101.879 28.6187C102.313 29.0007 102.851 29.1916 103.459 29.1916C103.667 29.1916 103.858 29.1743 104.032 29.1395C104.205 29.1048 104.362 29.0354 104.483 28.9486C104.605 28.8618 104.709 28.7402 104.778 28.6187C104.848 28.4798 104.882 28.3236 104.882 28.15C104.9 27.9243 104.865 27.768 104.813 27.6638Z" fill="white"/>
<path d="M34.951 20.9621C37.5552 20.9621 39.656 18.8614 39.656 16.2572C39.656 13.653 37.5552 11.5523 34.951 11.5523C34.3955 11.5523 33.8746 11.6391 33.3885 11.8127V6.89941H30.2461V16.2398C30.2461 18.8441 32.3642 20.9621 34.951 20.9621ZM34.951 14.6773C35.8191 14.6773 36.5136 15.3891 36.5136 16.2398C36.5136 17.1079 35.8191 17.8024 34.951 17.8024C34.083 17.8024 33.3885 17.1079 33.3885 16.2398C33.3885 15.3718 34.1003 14.6773 34.951 14.6773Z" fill="white"/>
<path d="M87.3641 11.5347C84.7599 11.5347 82.6592 13.6354 82.6592 16.2396C82.6592 16.7952 82.7633 17.316 82.9369 17.8021H79.1695L83.0932 11.8298H73.8396V14.6771H77.607L73.6833 20.632V16.2396C73.6833 13.6354 71.5826 11.5347 68.9784 11.5347C66.3742 11.5347 64.2734 13.6354 64.2734 16.2396V20.632H67.4159V16.2396C67.4159 15.3715 68.1103 14.6771 68.9784 14.6771C69.8464 14.6771 70.5409 15.3715 70.5409 16.2396V20.632H73.6833H82.9369V17.8195C83.5793 19.6424 85.3154 20.9445 87.3641 20.9445C89.9683 20.9445 92.069 18.8438 92.069 16.2396C92.069 13.6528 89.9683 11.5347 87.3641 11.5347ZM87.3641 17.8889C86.4439 17.8889 85.7148 17.1598 85.7148 16.2396C85.7148 15.3368 86.4439 14.5903 87.3641 14.5903C88.2669 14.5903 89.0134 15.3368 89.0134 16.2396C89.0134 17.1598 88.2669 17.8889 87.3641 17.8889Z" fill="white"/>
<path d="M55.1073 14.6771V11.5347C52.5031 11.5347 50.4024 13.6354 50.4024 16.2396C50.4024 17.1077 49.7079 17.8021 48.8398 17.8021V20.9445C51.4441 20.9445 53.5448 18.8438 53.5448 16.2396C53.5448 15.3715 54.2392 14.6771 55.1073 14.6771Z" fill="white"/>
<path d="M96.7713 11.5347C94.1671 11.5347 92.0664 13.6354 92.0664 16.2396V20.632H95.2088V16.2396C95.2088 15.3715 95.9206 14.6771 96.7713 14.6771C97.6394 14.6771 98.3339 15.3715 98.3339 16.2396V20.632H101.476V16.2396C101.476 13.6528 99.3755 11.5347 96.7713 11.5347Z" fill="white"/>
<path d="M104.826 11.8477H101.684V20.6325H104.826V11.8477Z" fill="white"/>
<path d="M47.7093 19.5731C49.133 18.1321 49.4628 16.0314 48.6642 14.2952L45.5392 17.4203C45.0357 17.9238 44.3065 18.0279 43.6989 17.7675L44.7926 16.6738L45.8864 15.5973L48.1086 13.3751C47.9871 13.2188 47.8656 13.0799 47.7267 12.9237C45.8864 11.0834 42.9002 11.0834 41.0599 12.9237C39.2196 14.764 39.2196 17.7502 41.0599 19.5905C42.8829 21.4134 45.869 21.4134 47.7093 19.5731ZM43.2127 15.0765C43.7162 14.573 44.4454 14.4689 45.053 14.7293L42.8829 16.8994C42.6051 16.3092 42.7092 15.58 43.2127 15.0765Z" fill="white"/>
<path d="M56.2179 19.5731C58.0582 21.4134 61.0444 21.4134 62.8847 19.5731C64.3083 18.1321 64.6382 16.0314 63.8396 14.2952L60.7319 17.4203C60.2284 17.9238 59.4992 18.0279 58.8916 17.7675L61.0617 15.5973L63.284 13.3751C63.1625 13.2188 63.0409 13.0799 62.9021 12.9237C61.0617 11.0834 58.0756 11.0834 56.2353 12.9237C54.3776 14.764 54.3776 17.7328 56.2179 19.5731ZM58.3881 15.0765C58.8742 14.573 59.6207 14.4689 60.2284 14.7293L58.0582 16.8994C57.7631 16.3092 57.8846 15.58 58.3881 15.0765Z" fill="white"/>
</svg>
