<svg width="97" height="22" viewBox="0 0 97 22" fill="none" xmlns="http://www.w3.org/2000/svg">
<path fill-rule="evenodd" clip-rule="evenodd" d="M96.666 19.9698C96.6597 19.9508 96.6562 19.9311 96.6557 19.9111C96.6546 19.8805 96.6536 19.853 96.6536 19.8271V19.744C96.651 19.6807 96.6295 19.6196 96.5918 19.5686C96.5689 19.5376 96.5397 19.5118 96.5062 19.4928C96.4727 19.4737 96.4356 19.4619 96.3972 19.4581C96.4547 19.4513 96.5102 19.4328 96.5602 19.4036C96.6344 19.3558 96.6718 19.2816 96.6718 19.1804C96.6718 19.0387 96.6131 18.9427 96.4963 18.8945C96.4304 18.867 96.3282 18.8535 96.187 18.8535H95.7916V19.9838H95.9914V19.5385H96.1486C96.254 19.5385 96.3282 19.5505 96.3697 19.5748C96.4408 19.6164 96.4761 19.703 96.4761 19.8338V19.9236L96.4813 19.9599C96.4824 19.9678 96.4841 19.9756 96.4865 19.9833H96.6728L96.666 19.9698ZM96.3609 19.3735C96.2997 19.3931 96.2356 19.4017 96.1715 19.3989H95.9919V18.9894H96.1611C96.2716 18.9894 96.3516 19.0029 96.4014 19.0315C96.4522 19.0595 96.4766 19.1145 96.4766 19.1965C96.4766 19.2837 96.4382 19.3429 96.3609 19.3735ZM46.9974 8.16998H41.6795V0.618461H35.9895V20.6143H41.6795V13.0628H46.9974V20.6143H52.6874V0.618461H46.9974V8.16998ZM66.4614 20.6143H77.3629V15.9343H72.1519V13.0628H76.9384V8.38276H72.1519V5.5113H77.3629V0.618461H66.4614V20.6143ZM59.6541 0.618461H53.9635V20.6143H65.3446V15.9343H59.6541V0.618461ZM25.0345 0.464844C19.3544 0.464844 14.7293 4.71364 14.7501 10.7493C14.7708 16.9447 19.3549 21.0337 25.0345 21.0337C30.7141 21.0337 35.3392 16.7849 35.319 10.7493C35.2977 4.5538 30.7141 0.464844 25.0345 0.464844ZM25.0345 15.6753C22.5009 15.6753 20.4338 13.5413 20.4468 10.7493C20.4608 7.63855 22.5009 5.8232 25.0345 5.8232C27.5681 5.8232 29.6077 7.63855 29.6222 10.7493C29.6362 13.8605 27.5676 15.6753 25.0345 15.6753Z" fill="white"/>
<path fill-rule="evenodd" clip-rule="evenodd" d="M17.5347 0.831055H10.5151L5.83505 7.00004V0.831055H0.144531V20.6142H5.83505V13.7005L11.1 20.6142H18.3853L10.3024 10.2971L17.5347 0.831055ZM89.1149 12.69C89.7532 12.3179 92.784 10.35 92.3595 6.25532C91.9339 2.16066 88.7428 0.831055 86.2434 0.831055H78.4791V20.6142H84.1696V14.2858L88.3712 20.6142H94.753L89.1149 12.69ZM85.4452 9.07384H84.1691V5.51112H85.5516C86.4557 5.51112 87.1469 6.14893 87.1469 7.21282C87.1475 8.27619 86.7754 9.07384 85.4452 9.07384Z" fill="white"/>
</svg>
