<svg width="102" height="30" viewBox="0 0 102 30" fill="none" xmlns="http://www.w3.org/2000/svg">
<path fill-rule="evenodd" clip-rule="evenodd" d="M22.1486 13.2917C25.2244 11.6806 30.4422 8.01365 35.0672 5.09868C39.6922 2.1837 42.5572 2.08257 44.4673 2.18317C42.5572 1.68021 41.7024 0.876025 34.6648 0.675382C27.6273 0.473663 20.1884 5.90286 14.6586 10.0244C9.12881 14.1459 2.69532 15.6542 0.382812 16.1572H11.7431C15.7646 16.1572 21.0926 13.8447 22.1486 13.2917Z" fill="white"/>
<path fill-rule="evenodd" clip-rule="evenodd" d="M51.5542 9.52193C51.5542 7.20996 53.062 6.40524 54.4687 5.90282C51.3525 3.54029 50.0459 2.88672 44.919 2.88672C39.783 2.88672 33.257 7.91356 28.1301 11.1303C22.4846 14.672 18.6799 15.6542 16.1662 16.1571H27.5265C29.3361 16.1571 32.6534 15.2524 34.6642 13.7446C40.5194 9.35302 43.1089 8.71774 45.3208 8.51656C47.5322 8.31538 50.4477 9.2207 50.9501 10.1755C50.6489 10.3767 49.1411 11.1303 49.4424 13.2416C49.7436 15.353 51.1513 16.1571 53.1626 16.1571H101.016V12.9404H54.9716C53.665 12.9399 51.5542 11.8339 51.5542 9.52193ZM88.826 25.582L93.9141 20.6391C93.405 19.7608 92.6739 19.0319 91.7942 18.5253C90.9144 18.0187 89.917 17.7522 88.9018 17.7526C85.7028 17.7526 83.1085 20.3464 83.1085 23.5465C83.1085 26.7466 85.7023 29.491 88.9018 29.491C90.3746 29.491 91.77 28.9418 92.7921 28.036L92.7721 24.3012C90.7108 26.3109 89.2789 25.7326 88.826 25.582ZM86.9664 21.5605C87.5188 20.9575 88.3741 20.8069 89.2283 21.3093L86.8163 23.6218C86.5146 23.2695 86.4134 22.1641 86.9664 21.5605ZM12.5972 17.7865C11.9034 17.7859 11.2174 17.9329 10.5847 18.2176C9.95207 18.5023 9.38716 18.9183 8.92749 19.4379C8.46797 18.9182 7.90316 18.5022 7.27057 18.2175C6.63798 17.9328 5.95207 17.7859 5.25836 17.7865C2.71939 17.7865 0.630652 19.716 0.378906 22.1888V29.377H4.60479L4.60909 23.1942C4.60909 22.9019 4.72518 22.6217 4.93184 22.415C5.13849 22.2083 5.41877 22.0923 5.71101 22.0923C6.00326 22.0923 6.28354 22.2083 6.49019 22.415C6.69684 22.6217 6.81294 22.9019 6.81294 23.1942V29.377H11.0388L11.0431 23.1942C11.0431 22.902 11.1592 22.6218 11.3658 22.4152C11.5724 22.2086 11.8526 22.0925 12.1448 22.0925C12.437 22.0925 12.7172 22.2086 12.9238 22.4152C13.1304 22.6218 13.2464 22.902 13.2464 23.1942V29.377H17.4728L17.4766 22.1888C17.2249 19.716 15.1361 17.7865 12.5972 17.7865ZM68.3432 29.377H72.5653V17.9667H68.3432V29.377ZM62.9048 24.1242C62.9048 24.7719 62.4056 25.2974 61.7574 25.2974C61.1093 25.2974 60.609 24.7972 60.609 24.1495L60.6015 17.9667H56.3896V24.1242C56.3896 27.0882 58.7935 29.4916 61.7574 29.4916C64.7214 29.4916 67.1242 27.0882 67.1242 24.1242L67.1355 17.9667H62.9048V24.1242ZM78.4964 27.2156C79.2193 26.2856 79.8035 24.099 80.4065 23.3948C80.7605 22.9817 81.0601 22.44 82.5184 22.39V17.9662C79.9046 17.5643 78.3463 18.8709 77.6427 19.7757C76.9197 20.7052 76.3355 22.8919 75.7325 23.596C75.3786 24.0091 75.0284 24.9031 73.5712 24.9532V29.3765C76.1839 29.7794 77.7922 28.1204 78.4964 27.2156Z" fill="white"/>
<path fill-rule="evenodd" clip-rule="evenodd" d="M47.8367 24.5601C47.3679 24.7269 46.8739 24.8118 46.3763 24.8113C43.9223 24.8113 41.9331 22.6816 41.9331 20.1787C41.9331 17.6763 43.9223 15.4961 46.3763 15.4961C46.9718 15.4961 47.7496 15.5494 48.315 15.7775C46.7163 14.0298 47.6469 11.7479 47.9373 10.9739C47.3245 10.8487 46.7006 10.7858 46.0751 10.7861C40.9713 10.7861 36.8331 15.0749 36.8331 20.1782C36.8331 25.2819 40.9708 29.5202 46.0751 29.5202C46.6639 29.5206 47.2515 29.4648 47.8298 29.3534L47.8367 24.5601ZM24.1834 25.5821L29.2711 20.6392C28.762 19.7609 28.0309 19.0319 27.1512 18.5252C26.2714 18.0186 25.2739 17.7522 24.2588 17.7527C21.0592 17.7527 18.4648 20.3465 18.4648 23.5466C18.4648 26.7467 21.0587 29.4911 24.2588 29.4911C25.7316 29.4911 27.1269 28.9419 28.149 28.0361L28.1296 24.3013C26.0688 26.311 24.6364 25.7327 24.1834 25.5821ZM22.3239 21.5606C22.8768 20.9576 23.7316 20.807 24.5858 21.3094L22.1732 23.6219C21.8715 23.2696 21.7709 22.1642 22.3239 21.5606ZM55.4994 18.0383C53.1627 17.615 48.94 19.0561 48.9363 22.5913V29.3771H53.1627L53.1659 23.3454C53.2122 22.3906 54.0927 21.8871 55.4994 22.0426V18.0383ZM36.1473 22.0426L36.1467 18.0383C33.81 17.615 29.5879 19.0561 29.5841 22.5913V29.3771H33.81L33.8138 23.3454C33.86 22.3906 34.7395 21.8871 36.1473 22.0426ZM94.4268 22.5913V29.3771H98.6533L98.6576 23.3454C98.7038 22.3906 99.5833 21.8871 100.991 22.0426L100.99 18.0383C98.6533 17.615 94.4312 19.0555 94.4268 22.5913Z" fill="white"/>
</svg>
