<svg width="95" height="11" viewBox="0 0 95 11" fill="none" xmlns="http://www.w3.org/2000/svg">
<path fill-rule="evenodd" clip-rule="evenodd" d="M4.38672 0.746094V5.11297H8.44187V0.746094H4.38672Z" fill="white"/>
<path fill-rule="evenodd" clip-rule="evenodd" d="M2.41889 7.17889V0.746011H0.125V9.73882H8.29926V7.17889H2.41889ZM9.06622 1.28132C9.06622 0.875536 9.39515 0.576172 9.78427 0.576172C10.1696 0.576172 10.4991 0.875536 10.4991 1.28132C10.4991 1.69087 10.1696 1.99023 9.78427 1.99023C9.39515 1.99023 9.06622 1.69033 9.06622 1.28132Z" fill="white"/>
<path fill-rule="evenodd" clip-rule="evenodd" d="M9.78319 1.87201C10.1035 1.87201 10.3556 1.62102 10.3556 1.2808C10.3556 0.945964 10.103 0.693359 9.78319 0.693359C9.45964 0.693359 9.20703 0.945964 9.20703 1.2808C9.20703 1.62102 9.46018 1.87201 9.78319 1.87201Z" fill="white"/>
<path fill-rule="evenodd" clip-rule="evenodd" d="M9.6348 1.69033H9.51172V0.875H9.82237C10.0148 0.875 10.1105 0.945945 10.1105 1.10665C10.1105 1.25284 10.0191 1.31626 9.89869 1.3313L10.1309 1.69033H9.99275L9.77776 1.33668H9.63533L9.6348 1.69033Z" fill="white"/>
<path fill-rule="evenodd" clip-rule="evenodd" d="M9.78415 1.23147C9.8887 1.23147 9.98198 1.22396 9.98198 1.09905C9.98198 0.998256 9.89084 0.979492 9.80453 0.979492H9.63672V1.23147H9.78415Z" fill="white"/>
<path fill-rule="evenodd" clip-rule="evenodd" d="M14.9883 9.89706V0.782778H18.0421V7.77032H22.236V9.89706H14.9883ZM32.344 5.28886C32.344 8.39055 30.2081 10.1373 27.4515 10.1373C24.5266 10.1373 22.5719 8.36529 22.5719 5.2636C22.5719 2.40269 24.5524 0.541992 27.4515 0.541992C30.7778 0.54253 32.344 2.88425 32.344 5.28886Z" fill="white"/>
<path fill-rule="evenodd" clip-rule="evenodd" d="M25.6289 5.28889C25.6289 6.4541 25.9912 7.90901 27.4541 7.90901C28.7747 7.90901 29.2922 6.79539 29.2922 5.28889C29.2922 4.04842 28.7747 2.73218 27.4283 2.77034C26.0428 2.77034 25.6289 4.13711 25.6289 5.28889Z" fill="white"/>
<path fill-rule="evenodd" clip-rule="evenodd" d="M41.2751 6.41688H41.3009L42.3495 0.783203H45.3002L42.9837 9.89748H39.9809L38.9065 4.60617H38.8808L37.8193 9.89748H34.8165L32.5 0.783203H35.4507L36.4993 6.41688H36.5251L37.6381 0.783203H40.1621L41.2751 6.41688ZM49.0571 6.72001V9.89748H46.0021V0.783203H50.4029C53.5089 0.783203 54.5316 1.60606 54.5316 3.37807C54.5316 4.42881 54.0528 5.31508 52.9655 5.60639C53.9501 5.96004 54.5451 6.18792 54.5451 8.02389C54.5451 9.21437 54.5064 9.61854 54.8686 9.61854V9.89802H51.775C51.6971 9.6954 51.6197 9.11279 51.6197 8.3023C51.6197 7.11289 51.4128 6.72054 49.9896 6.72054L49.0571 6.72001Z" fill="white"/>
<path fill-rule="evenodd" clip-rule="evenodd" d="M49.0547 4.71989H50.2575C51.2035 4.71989 51.7081 4.492 51.7081 3.85887C51.7081 3.21338 51.1895 2.90918 50.4779 2.90918H49.0547V4.71989Z" fill="white"/>
<path fill-rule="evenodd" clip-rule="evenodd" d="M55.6836 9.89748L59.0228 0.783203H62.1288L65.4681 9.89748H62.4271L62.0638 8.69465H59.0228L58.6735 9.89748H55.6836Z" fill="white"/>
<path fill-rule="evenodd" clip-rule="evenodd" d="M60.5475 3.5293L59.6016 6.79491H61.531L60.5475 3.5293Z" fill="white"/>
<path fill-rule="evenodd" clip-rule="evenodd" d="M72.6354 5.75742L72.5188 3.68174V0.783214H75.4447V9.89749H72.5838L69.2575 4.93564L69.3741 7.01078V9.89749H66.4492V0.783214H69.3101L72.6354 5.75742ZM82.9079 4.26435C82.8166 3.31466 82.2087 2.77075 81.2515 2.77075C80.1765 2.77075 79.53 3.66938 79.53 5.42903C79.53 6.70766 79.8143 7.90942 81.367 7.90942C82.3517 7.90942 82.8166 7.23867 82.9332 6.36529H85.8715C85.5995 8.71992 83.878 10.1383 81.4197 10.1383C78.339 10.1383 76.4756 8.28995 76.4756 5.32799C76.4756 2.3784 78.5206 0.542969 81.1219 0.542969C83.9699 0.542969 85.5614 1.92263 85.8081 4.26489L82.9079 4.26435ZM86.8067 9.89749V0.783214H94.4037V2.90995H89.8616V4.21383H93.7055V6.34003H89.8616V7.77076H94.5854V9.89749H86.8067Z" fill="white"/>
</svg>
