<svg width="63" height="63" viewBox="0 0 63 63" fill="none" xmlns="http://www.w3.org/2000/svg">
<path d="M62.5761 31.7949C62.5761 14.7159 48.7244 0.897461 31.6787 0.897461C14.5997 0.897461 0.78125 14.7381 0.78125 31.7949C0.78125 48.8739 14.633 62.6923 31.6787 62.6923C48.7244 62.6923 62.5761 48.8517 62.5761 31.7949ZM7.2136 18.3424H22.2631L9.85308 49.0181H53.6152C48.5137 55.5169 40.5731 59.6758 31.6565 59.6758C16.2411 59.6758 3.74235 47.1771 3.74235 31.7616C3.76453 26.9152 5.00664 22.3349 7.2136 18.3424ZM49.5562 31.684V27.9133H41.9926V18.3646H56.0994C58.3064 22.3571 59.5485 26.9374 59.5485 31.8171C59.5485 36.6968 58.3064 41.2771 56.0994 45.2696H20.3888L32.7766 14.5939H9.71999C14.8215 8.09503 22.7621 3.93619 31.6787 3.93619C40.5731 3.93619 48.5137 8.10612 53.6374 14.5939H33.686V42.497H42.0148V31.684H49.5562Z" fill="white"/>
</svg>
