<svg width="96" height="28" viewBox="0 0 96 28" fill="none" xmlns="http://www.w3.org/2000/svg">
<path fill-rule="evenodd" clip-rule="evenodd" d="M31.2567 12.9877C35.636 12.9877 39.1935 10.2188 39.1935 6.80341C39.1935 3.38798 35.643 0.619141 31.2637 0.619141C26.8839 0.619141 23.3329 3.38798 23.3329 6.80341C23.3329 10.2188 26.8769 12.9877 31.2567 12.9877ZM31.2632 11.1275C29.6433 11.1275 28.3297 9.19156 28.3297 6.80395C28.3297 4.41635 29.6427 2.48038 31.2632 2.48038C32.8831 2.48038 34.1961 4.41635 34.1961 6.80395C34.1961 9.19156 32.8831 11.1275 31.2632 11.1275ZM40.2673 10.9678V12.516H56.2451V7.36064H54.7859C54.6703 9.07134 53.7099 10.8129 51.0983 10.9678H48.1799V2.52478H51.0983V0.977089H40.2673V2.52478H43.1863V10.9678H40.2673ZM2.08957 0.976548V2.52478H4.70112L10.0822 12.516H16.2975L21.2937 2.52478H24.1359V0.976548H16.4926V2.52478H18.7204L14.8028 10.3033L10.6546 2.52478H13.6891V0.976548H2.08957ZM53.6637 0.976548V2.52478H56.2752L61.6563 12.516H67.8721L72.8684 2.52478H75.7105V0.976548H68.0672V2.52478H70.2944L66.3768 10.3033L62.2298 2.52478H65.2632V0.976548H53.6637ZM8.67836 22.5235H12.3138C14.3019 22.5235 17.7099 22.4092 17.7099 18.8606C17.7099 15.5415 13.6203 15.5415 12.2004 15.5415H0.726562V17.0297H3.68047V25.614H0.726562V27.1021H11.6323V25.614H8.6789L8.67836 22.5235ZM8.67836 17.0297H9.92797C12.1434 17.0297 12.654 18.1171 12.654 19.147C12.654 20.177 11.4614 21.0348 9.92797 21.0348H8.67836V17.0297ZM26.4002 17.0297H29.9786C31.1718 17.0297 32.989 17.7163 32.989 20.1191H34.8067V15.5415H18.4484V17.0297H21.4018V25.614H18.4484V27.1021H34.8067V22.1227H32.989C32.989 24.9279 31.1718 25.614 29.9786 25.614H26.4002V21.6078H30.263V20.1196H26.4002V17.0297ZM37.7601 15.5415V17.0297H40.3162V25.614H37.7601V27.1021H45.3716V25.614H42.8719V20.2344L50.7108 27.1021H55.1406V17.0297H57.6968V15.5415H50.0282V17.0297H52.5844V21.4935L45.8258 15.5415H37.7601ZM61.8433 27.1021V25.614H64.3425V17.0297H63.3767C62.1841 17.0297 60.253 17.7163 60.253 20.1191H58.5492V15.5415H75.1348V20.1191H73.3736C73.3736 17.7158 71.5 17.0297 70.3063 17.0297H69.3415V25.614H71.8396V27.1021H61.8433ZM80.9852 21.6657L83.0302 18.0602L85.1317 21.6657H80.9852ZM80.1327 23.1527H85.8696L86.7221 24.4697C87.0053 25.0421 86.8355 25.614 86.154 25.614H84.1089V27.1021H95.1844V25.614H93.822C93.3108 25.6709 92.5149 25.2701 92.1171 24.584L86.9483 15.5421H81.4393L76.5538 24.1264C76.1001 24.8131 75.5315 25.6145 74.3953 25.6145H73.2027V27.1027H80.9846V25.6145H79.792C79.2808 25.6145 79.1094 25.2138 79.2808 24.6988L80.1327 23.1527ZM82.9453 12.9877C87.3246 12.9877 90.8815 10.2188 90.8815 6.80341C90.8815 3.38798 87.3315 0.619141 82.9517 0.619141C78.5719 0.619141 75.0209 3.38798 75.0209 6.80341C75.0209 10.2188 78.5644 12.9877 82.9453 12.9877ZM82.9512 11.1275C81.3313 11.1275 80.0183 9.19156 80.0183 6.80395C80.0183 4.41635 81.3313 2.48038 82.9512 2.48038C84.5711 2.48038 85.8841 4.41635 85.8841 6.80395C85.8841 9.19156 84.5711 11.1275 82.9512 11.1275Z" fill="white"/>
</svg>
