<svg width="99" height="14" viewBox="0 0 99 14" fill="none" xmlns="http://www.w3.org/2000/svg">
<path d="M4.5729 12.5737H0.359375V13.7006H4.5729V12.5737Z" fill="white"/>
<path fill-rule="evenodd" clip-rule="evenodd" d="M3.44532 7.3477C3.62497 5.73088 4.99681 4.45703 6.67895 4.45703C8.47542 4.45703 9.92892 5.91053 9.92892 7.70699C9.92892 8.16427 9.83093 8.58889 9.66761 8.98084C9.14501 8.44191 8.27944 7.3477 6.48297 7.3477C6.46664 7.36403 3.69029 7.36403 3.44532 7.3477ZM6.31966 9.3728H3.86994C4.44154 10.32 5.47042 10.957 6.66262 10.957C7.28322 10.957 7.87115 10.7773 8.37743 10.467L8.36109 10.4507C7.60985 9.69943 7.23422 9.3728 6.31966 9.3728ZM0.375 1.53369V7.75598C0.375 8.60522 0.848613 9.97707 2.28578 10.7283C1.69785 9.87908 1.35489 8.83386 1.35489 7.72332C1.35489 4.78366 3.73928 2.38293 6.69528 2.38293C9.63495 2.38293 12.0193 4.76732 12.0193 7.72332C12.0193 8.73588 11.7417 9.69943 11.2354 10.4997C11.2518 10.516 11.2518 10.516 11.2518 10.516C11.6274 10.908 12.1337 11.006 12.4766 11.006H12.9992V1.53369H0.375ZM8.76938 13.7006H12.9829V12.5738H8.76938V13.7006Z" fill="white"/>
<path d="M8.76821 12.5737H4.55469V13.7006H8.76821V12.5737Z" fill="white"/>
<path d="M89.0868 0.798828C90.0176 0.798828 90.7689 1.55008 90.7689 2.4973C90.7689 3.4282 90.0176 4.17944 89.0868 4.17944C88.1559 4.17944 87.3883 3.4282 87.3883 2.4973C87.3883 1.55008 88.1395 0.798828 89.0868 0.798828ZM89.0868 3.80382C89.8053 3.80382 90.4096 3.21589 90.4096 2.48097C90.4096 1.76238 89.8217 1.15812 89.0868 1.15812C88.3682 1.15812 87.7639 1.74605 87.7639 2.48097C87.7639 3.21589 88.3518 3.80382 89.0868 3.80382ZM88.9888 2.64428H88.7601V3.42819H88.3845V1.53374H89.1031C89.5767 1.53374 89.8543 1.68073 89.8543 2.08901C89.8543 2.43198 89.642 2.61162 89.3644 2.61162L89.8543 3.41187H89.446L88.9888 2.64428ZM89.0868 2.36665C89.3154 2.36665 89.4624 2.28499 89.4624 2.08901C89.4624 1.90937 89.2991 1.84404 89.1357 1.84404H88.7438V2.36665H89.0868ZM87.7639 11.3C87.8619 11.5449 88.2212 12.0186 89.1847 12.0186C90.4423 12.0186 90.7036 11.3816 90.7036 11.0713C90.7036 10.4834 90.1646 10.2711 89.887 10.1894L89.0868 9.92813C88.8091 9.83014 88.4988 9.73214 88.4988 9.38918C88.4988 9.07889 88.7275 8.83391 89.2664 8.83391C89.5767 8.83391 89.9523 8.9319 90.0666 9.2422L90.6219 9.09522C90.4096 8.63794 89.9033 8.47462 89.2664 8.47462C88.6295 8.47462 87.8782 8.73593 87.8782 9.40552C87.8782 9.76481 88.1232 10.0098 88.5315 10.1568L89.593 10.5324C89.7563 10.5977 90.0666 10.712 90.0666 11.0713C90.0666 11.3653 89.7727 11.6593 89.2174 11.6593C88.6295 11.6593 88.3845 11.3653 88.3028 11.1367L87.7639 11.3ZM91.4712 8.53995H92.8757C93.4146 8.53995 94.4271 8.62161 94.4271 9.51984C94.4271 10.3854 93.5779 10.5487 92.9247 10.5487H92.0428V11.9369H91.4712V8.53995ZM92.0264 10.2058H92.9083C93.4636 10.2058 93.8392 10.0098 93.8392 9.5525C93.8392 9.02989 93.3166 8.89924 92.9083 8.89924H92.0264V10.2058ZM96.6809 8.53995L98.3467 11.9369H97.7261L97.3015 11.0223H95.2764L94.8354 11.9369H94.2475L95.9623 8.53995H96.6809ZM97.1382 10.6794L96.5502 9.50351C96.4523 9.30753 96.3706 9.11155 96.2889 8.91557H96.2726C96.1746 9.11155 96.093 9.30753 95.995 9.50351L95.407 10.6794H97.1382ZM22.389 12.0349C18.2734 12.0349 16.7383 9.60149 16.7383 6.80881C16.7383 4.03246 18.2898 1.53374 22.389 1.53374H27.5987C31.6816 1.53374 33.2821 4.04879 33.2821 6.80881C33.2821 8.62161 32.5962 10.2874 31.012 11.2183L33.3474 13.7007H31.1753L29.3952 11.8226C28.8726 11.9532 28.2683 12.0349 27.5987 12.0349H22.389ZM27.8927 7.90302L29.4605 9.58516C30.3751 9.02989 30.8813 8.08267 30.8813 6.80881C30.8813 4.70205 29.5095 3.47719 27.1578 3.47719H22.8463C20.4782 3.47719 19.139 4.68572 19.139 6.80881C19.139 8.9319 20.4619 10.1241 22.8463 10.1241H26.5535C26.9455 10.1241 27.3211 10.0914 27.713 10.0424L25.7369 7.93568H27.8927V7.90302ZM44.6161 12.0349C48.699 12.0349 50.2995 9.79747 50.2995 6.89047V1.68073H47.8988V6.87414C47.8988 9.12788 46.5269 10.1078 44.1752 10.1078H40.6476C38.2632 10.1078 36.9403 9.14421 36.9403 6.87414V1.68073H34.5396V6.89047C34.5396 9.8138 36.0911 12.0349 40.1903 12.0349H44.6161ZM52.1286 11.8879H54.5293V1.68073H52.1286V11.8879ZM65.8144 3.47719C67.3822 3.47719 68.5417 3.99979 69.1297 5.06134H71.6774C71.1058 3.08523 69.44 1.53374 66.2553 1.53374H61.6499C57.5343 1.53374 55.9992 4.04879 55.9992 6.82514C55.9992 9.61783 57.5507 12.0349 61.6499 12.0349H66.2553C69.538 12.0349 71.2038 10.4344 71.7264 8.39297H69.195C68.6561 9.5525 67.4802 10.1078 65.8144 10.1078H62.0908C59.7227 10.1078 58.3836 8.9319 58.3836 6.80881C58.3836 4.68572 59.7064 3.47719 62.0908 3.47719H65.8144ZM81.8192 1.68073L75.499 5.4043V1.68073H73.1636V11.8879H75.499V7.34775L82.4398 11.8879H86.4574L77.867 6.31887L85.7551 1.68073H81.8192Z" fill="white"/>
</svg>
