<svg width="94" height="29" viewBox="0 0 94 29" fill="none" xmlns="http://www.w3.org/2000/svg">
<path d="M93.583 0.0800781V28.1035H0.0078125V0.0800781H93.583ZM15.7793 7.24414C12.3459 7.24414 9.82617 8.71501 9.82617 11.6348C9.82656 16.8832 17.7275 15.4512 17.7275 17.5312C17.7272 18.1807 16.9824 18.5419 15.8574 18.542C15.4175 18.542 14.941 18.4278 14.5781 18.2012C14.1953 17.9701 13.9299 17.609 13.835 17.1123H9.51953C9.61789 19.5921 11.984 21.7109 15.6094 21.7109C19.3864 21.7109 22.0398 20.1648 22.04 16.9785C22.04 11.9798 14.1396 13.2553 14.1396 11.1953C14.1398 10.6997 14.579 10.4131 15.5703 10.4131C16.0078 10.4131 16.4105 10.4904 16.7354 10.6611C17.0591 10.8342 17.3077 11.1187 17.3848 11.5977H21.6582C21.3322 9.19049 19.5964 7.24429 15.7793 7.24414ZM23.166 21.3496H27.6689V7.60938H23.166V21.3496ZM28.6963 7.60938V21.3496H32.7402V16.6934L32.6445 14.5537L32.4551 12.5322H32.4912L34.9922 21.3496H38.1211L40.6221 12.5322H40.6602L40.4336 15.0127L40.375 17.1494V21.3496H44.4189V7.60938H38.9805L36.5566 16.1768L34.1348 7.60938H28.6963ZM45.458 21.3496H49.96V16.5576H51.334C53.4342 16.5576 53.7402 17.1491 53.7402 18.9434C53.7402 20.1648 53.8536 21.0415 53.9697 21.3496H62.8057L63.3203 19.5361H67.8057L68.3398 21.3496H72.8223L67.9004 7.60938H63.3203L58.5283 20.9756V20.9277C57.9968 20.9277 58.0518 20.3165 58.0518 18.5244C58.0517 15.7568 57.1747 15.4116 55.7256 14.8779C57.3265 14.438 58.0341 13.1049 58.0342 11.5195C58.0342 8.84882 56.5249 7.60845 51.9473 7.6084H45.458V21.3496ZM72.8428 21.3496H78.7607C83.1665 21.3496 86.0468 19.3631 86.0469 14.1904C86.0469 9.66732 83.3014 7.6084 78.8721 7.6084H72.8428V21.3496ZM78.2061 10.8125C80.6087 10.8126 81.5449 11.5769 81.5449 14.4385C81.5448 17.0363 80.3986 18.1416 78.3008 18.1416H77.3457V10.8125H78.2061ZM67.1787 16.8311H64.3359L65.7295 11.9082L67.1787 16.8311ZM52.0605 10.8125C53.1079 10.8125 53.873 11.2707 53.873 12.2432C53.8729 13.1986 53.1294 13.541 51.7363 13.541H49.96V10.8125H52.0605Z" fill="white"/>
</svg>
