<svg width="94" height="23" viewBox="0 0 94 23" fill="none" xmlns="http://www.w3.org/2000/svg">
<path d="M57.4424 3.78999C59.4544 4.02394 60.9984 5.64599 61.2324 7.57998H61.3104C61.5443 5.56801 63.1664 4.02394 65.1003 3.78999C63.0884 3.55604 61.5443 1.93399 61.3104 0H61.2324C60.9984 1.856 59.4544 3.47806 57.4424 3.78999C57.4424 3.71201 57.4424 3.71201 57.4424 3.78999Z" fill="#009BD2"/>
<path d="M52.6544 3.71177L56.3664 2.55762V22.6305H52.6544V3.71177ZM59.4545 8.65591H63.1665V22.6305H59.4545V8.65591ZM45.8698 3.71177L49.5038 2.55762V22.6305H45.8698V3.71177ZM0 3.71177H3.78999V22.6305H0V3.71177ZM22.6152 5.87971L26.2492 4.72555V8.65591H29.4933V11.2762H26.2492V17.7644C26.2492 18.5442 26.5611 20.0883 27.9492 20.0883C28.4951 20.0883 29.1034 20.0103 29.5713 19.6984L29.6493 22.5525C28.807 22.7865 27.8712 22.8645 26.951 22.8645C24.0189 22.7865 22.5528 21.2424 22.5528 18.3103L22.6152 5.87971ZM42.7037 21.9287C41.3936 22.6305 39.8495 23.0048 37.9155 23.0048C33.1273 22.9269 30.663 20.5406 30.5851 15.7524C30.5851 13.6624 31.4273 8.34398 37.0733 8.34398C43.7175 8.34398 43.7175 14.2863 43.7175 16.7662H33.9851C34.1411 18.0763 34.9053 20.3222 37.9935 20.3222C40.0834 20.3222 42.0018 19.324 42.6257 18.9341V21.9443H42.7037V21.9287ZM40.2238 14.2863C40.2238 13.3661 39.7559 11.0422 37.2916 11.0422C34.5154 11.0422 34.1255 13.3661 34.0475 14.2863H40.2238ZM66.7849 9.42015C68.329 8.7183 69.951 8.42196 71.6511 8.34398C75.7374 8.26599 77.7494 10.278 77.6714 14.2083V15.9863C77.6714 17.3744 77.6714 18.5286 77.7494 19.4644C77.7494 20.4626 77.8274 21.5544 77.9053 22.5525H74.6612C74.5833 21.8507 74.5053 21.1644 74.5053 20.4626H74.4273C73.9594 21.2424 73.3511 21.8507 72.5713 22.2406C71.7915 22.7085 70.9492 22.8645 70.107 22.8645C66.395 22.8645 65.2409 20.4782 65.2409 18.7002C65.2409 14.6918 69.1088 14.1459 69.951 14.068C71.5731 13.912 74.3493 13.912 74.3493 13.912C74.3493 12.7578 74.1154 11.978 73.5695 11.5257C73.0236 11.0578 72.2594 10.9018 71.1832 10.9018C69.6391 10.9018 68.095 11.4477 66.8629 12.4459L66.7849 9.42015ZM71.1052 20.3066C72.2594 20.3066 73.1172 19.8387 73.6475 19.0745C74.1933 18.2323 74.4273 17.2185 74.4273 16.2203C74.4273 16.2203 71.6511 16.1423 70.263 16.6102C69.4208 16.9221 68.7969 17.6864 68.7969 18.6222C68.7969 19.3864 69.5611 20.3066 71.1052 20.3066ZM80.6036 8.65591H84.0816V10.5899H84.1596C85.3138 9.12381 86.8578 8.34398 88.7918 8.34398C92.9561 8.34398 93.58 12.4303 93.58 14.0524V22.6305H89.946V15.3001C89.946 14.2239 89.79 11.1358 87.5597 11.1358C84.6275 11.1358 84.3156 14.6138 84.3156 15.768V22.6461H80.6816V8.67151H80.6036V8.65591ZM6.80015 8.65591H10.2782V10.5899H10.3562C11.5103 9.12381 13.0544 8.34398 14.9884 8.34398C19.1527 8.34398 19.7766 12.4303 19.7766 14.0524V22.6305H16.1425V15.3001C16.1425 14.2239 15.9866 11.1358 13.7563 11.1358C10.8241 11.1358 10.5122 14.6138 10.5122 15.768V22.6461H6.87813V8.67151H6.80015V8.65591Z" fill="white"/>
</svg>
