<svg width="92" height="21" viewBox="0 0 92 21" fill="none" xmlns="http://www.w3.org/2000/svg">
<path d="M0.65625 19.7823H16.1614C17.1314 20.1157 18.1469 20.3127 19.2381 20.3127C20.3294 20.3127 21.3297 20.1309 22.3149 19.7823L86.8058 19.752V20.919H0.65625V19.7823Z" fill="white"/>
<path d="M14.4766 15.5228V6.20153C14.4766 5.45886 16.3863 5.45886 16.356 6.20153V10.2786H22.0548V6.20153C22.0548 5.45886 23.9342 5.45886 23.9342 6.20153V15.5228C23.9039 16.3109 22.1003 16.3109 22.0548 15.5228V11.6276H16.356V15.5228C16.3105 16.2655 14.5069 16.3109 14.4766 15.5228Z" fill="#2C3080"/>
<path d="M91.4432 8.29478C91.3674 8.11291 91.2613 7.91587 91.1097 7.76431C90.9582 7.61274 90.7763 7.46118 90.5489 7.38539C90.3671 7.30961 90.17 7.2793 89.9881 7.2793H89.9124C89.685 7.2793 89.4577 7.2793 89.2758 7.38539C89.0939 7.46118 88.8969 7.56727 88.7453 7.71883C88.5634 7.8704 88.4422 8.05228 88.3664 8.27963C88.2603 8.46151 88.2148 8.68885 88.2148 8.9162C88.2148 9.14355 88.2452 9.37089 88.3664 9.55277C88.4422 9.73465 88.5483 9.93169 88.6998 10.0833C88.8514 10.2651 89.0333 10.3864 89.2606 10.4925C89.4425 10.5683 89.6699 10.5986 89.8972 10.5986H89.973C90.1549 10.5986 90.3519 10.5683 90.5338 10.4925C90.7157 10.3864 90.9127 10.2651 91.0946 10.1136C91.2461 9.962 91.3522 9.78012 91.428 9.58309C91.5038 9.35574 91.5796 9.12839 91.5796 8.9162C91.5947 8.70401 91.5493 8.47666 91.4432 8.29478ZM91.2158 9.49215C91.14 9.67403 91.034 9.82559 90.9127 9.94684C90.7611 10.0984 90.6096 10.2045 90.4277 10.2803C90.2761 10.3258 90.1246 10.3561 89.973 10.3561H89.8972C89.7153 10.3561 89.5183 10.3258 89.3364 10.25C89.1849 10.2197 89.0333 10.0984 88.8817 9.94684C88.7302 9.79528 88.6544 9.64371 88.5786 9.49215C88.5028 9.31027 88.4725 9.11323 88.4725 8.93135C88.4725 8.74948 88.5028 8.55244 88.5786 8.40088C88.6544 8.219 88.7605 8.06744 88.8817 7.91587C89.0333 7.80978 89.1849 7.68852 89.3667 7.61274C89.5183 7.53696 89.7002 7.50664 89.8972 7.50664H89.973C90.1246 7.53696 90.3064 7.53696 90.458 7.61274C90.6096 7.68852 90.7611 7.79462 90.9127 7.94618C91.0643 8.05228 91.1704 8.20384 91.2158 8.40088C91.2916 8.55244 91.3219 8.73432 91.3219 8.96167C91.3219 9.1587 91.2916 9.34058 91.2158 9.49215Z" fill="white"/>
<path d="M90.6088 8.80924C90.6846 8.73345 90.7149 8.62736 90.7149 8.47579C90.7149 8.29391 90.6391 8.17266 90.533 8.09688C90.3814 8.0211 90.2299 7.94531 89.9722 7.94531H89.9419H89.1992V9.82472H89.6539V9.08205H89.9116L89.9873 9.15783V9.18815L90.2905 9.82472H90.7452L90.336 9.00627C90.4724 8.9608 90.5785 8.88502 90.6088 8.80924ZM90.245 8.74861C90.1692 8.77892 90.0934 8.82439 89.9873 8.82439H89.9116H89.6539V8.21813H89.8813H89.9873C90.0631 8.21813 90.1692 8.24845 90.2147 8.29391C90.2905 8.32423 90.3208 8.40001 90.3208 8.52126C90.3208 8.64251 90.2753 8.70314 90.245 8.74861Z" fill="white"/>
<path d="M0.65625 10.2037H8.90139C9.00748 4.80796 13.4332 0.427734 18.8289 0.427734C22.5726 0.427734 25.8312 2.51933 27.5136 5.5961H26.6951C25.0431 2.94371 22.133 1.1704 18.8289 1.1704C13.8424 1.1704 9.735 5.17172 9.61374 10.2037H9.64406V11.3253H0.65625V10.2037Z" fill="white"/>
<path d="M0.6875 12.5225H9.97844L10.2816 13.644H0.6875V12.5225Z" fill="white"/>
<path d="M0.65625 14.8867H10.7656L11.5841 16.0083H0.686563L0.65625 14.8867Z" fill="white"/>
<path d="M0.65625 17.2363H12.448C12.8572 17.6456 13.3119 18.0548 13.7515 18.4034H0.65625V17.2363ZM25.9676 17.2363H33.7277L33.4701 18.4034H24.649C25.1492 18.0699 25.5584 17.6607 25.9676 17.2363Z" fill="white"/>
<path d="M30.4244 9.71871C30.3486 9.82481 30.3183 9.90059 30.2729 9.97637C30.2425 10.0825 30.1668 10.2037 30.1213 10.3098C30.091 10.2037 30.0152 10.0825 29.9697 9.97637C29.9394 9.90059 29.8939 9.82481 29.8636 9.74902L28.4389 7.50586H27.3477L29.5605 11.098V14.1293H30.6518V11.098L32.8949 7.50586H31.8491L30.4244 9.71871Z" fill="white"/>
<path d="M40.0927 8.14243C39.8351 7.91509 39.4865 7.73321 39.0772 7.65742C38.9257 7.62711 38.6983 7.58164 38.4407 7.58164C38.0618 7.55133 37.6222 7.50586 37.0917 7.50586H35.6367V14.1293H37.0917H37.3949C37.7738 14.1293 38.1375 14.1293 38.4407 14.0989C38.6983 14.0686 38.9257 14.0686 39.1076 13.9928C39.4865 13.9171 39.8199 13.7655 40.0776 13.5382C40.4565 13.235 40.7445 12.8713 40.9415 12.4166C41.1688 11.9316 41.2749 11.4011 41.2749 10.8403C41.2749 10.234 41.1688 9.71871 40.9415 9.26401C40.7596 8.80932 40.4716 8.44556 40.0927 8.14243ZM39.9412 11.9316C39.8351 12.265 39.638 12.5378 39.3804 12.75C39.1985 12.9016 38.9711 13.0077 38.7438 13.0835C38.6377 13.0835 38.5619 13.1138 38.4407 13.1138C38.2133 13.1441 37.9102 13.1441 37.6222 13.1441H36.728V8.46072H37.1069H37.5161C37.895 8.46072 38.183 8.49103 38.4558 8.49103C38.5619 8.49103 38.6377 8.52135 38.7135 8.56681C38.9711 8.59713 39.1985 8.74869 39.3804 8.90026C39.638 9.08214 39.8351 9.35495 39.9412 9.6884C40.0927 10.0218 40.123 10.3553 40.123 10.7797C40.123 11.2495 40.0927 11.6284 39.9412 11.9316Z" fill="white"/>
<path d="M49.1568 9.3853C49.081 7.80903 48.111 7.5059 46.7166 7.47559C45.9739 7.47559 45.1403 7.5059 44.2461 7.5059V14.1293H45.2616V11.1738H46.3529L46.7318 11.583L48.8991 14.1293H50.142L47.5199 11.1283C48.3384 11.098 49.1113 10.5069 49.1568 9.3853ZM45.3374 10.3553V8.4456C45.8224 8.4456 46.2771 8.41529 46.7166 8.41529C47.5351 8.4456 48.1413 8.64263 48.0958 9.46108C48.0958 10.128 47.4896 10.3553 46.7166 10.4008C46.2771 10.3856 45.7921 10.3553 45.3374 10.3553Z" fill="white"/>
<path d="M84.0619 11.1435C84.8501 11.1131 85.6685 10.5069 85.6685 9.3853C85.5927 7.80903 84.6227 7.5059 83.2283 7.47559C82.516 7.47559 81.652 7.5059 80.7578 7.5059V14.1293H81.7733V11.1738H82.8646L83.2435 11.583L85.4563 14.1293H86.6537L84.0619 11.1435ZM81.8491 10.3553V8.4456C82.3341 8.4456 82.8191 8.41529 83.2283 8.41529C84.0468 8.4456 84.653 8.64263 84.6076 9.46108C84.6076 10.128 84.0013 10.3553 83.2283 10.4008C82.7888 10.3856 82.3341 10.3553 81.8491 10.3553Z" fill="white"/>
<path d="M57.962 8.36947C57.6285 8.03603 57.2496 7.80868 56.7949 7.6268C56.3857 7.47524 55.931 7.36914 55.446 7.36914C54.961 7.36914 54.5063 7.47524 54.0971 7.6268C53.6424 7.80868 53.2786 8.03603 52.93 8.36947C52.5966 8.70291 52.3238 9.08183 52.1873 9.49105C52.0055 9.90028 51.9297 10.3853 51.9297 10.84C51.9297 11.325 52.0055 11.7797 52.1873 12.1889C52.3389 12.5981 52.5966 12.977 52.93 13.3105C53.2635 13.6439 53.6424 13.8713 54.0971 14.0532C54.5063 14.235 54.961 14.3108 55.446 14.3108C55.9007 14.3108 56.3857 14.235 56.7949 14.0532C57.2042 13.8713 57.6134 13.6439 57.962 13.3105C58.2954 12.977 58.5682 12.5981 58.7046 12.1889C58.8865 11.7342 58.9623 11.325 58.9623 10.84C58.9623 10.3853 58.8865 9.94574 58.7046 9.53652C58.5531 9.08182 58.2954 8.70291 57.962 8.36947ZM57.6892 11.7797C57.5376 12.1131 57.386 12.3405 57.1587 12.5981C56.9313 12.8255 56.6737 13.0074 56.3705 13.1286C56.0674 13.2802 55.7643 13.3105 55.4308 13.3105C55.0974 13.3105 54.7943 13.2802 54.4911 13.1286C54.188 13.0225 53.9303 12.8255 53.703 12.5981C53.4757 12.3405 53.3241 12.1131 53.218 11.7797C53.0664 11.522 53.0361 11.1734 53.0361 10.84C53.0361 10.5065 53.0664 10.2034 53.218 9.86996C53.3241 9.56683 53.4757 9.30917 53.703 9.08182C53.9303 8.85448 54.188 8.6726 54.4911 8.55135C54.7943 8.44525 55.0974 8.36947 55.4308 8.36947C55.7643 8.36947 56.0674 8.44525 56.3705 8.55135C56.6737 8.65744 56.9313 8.85448 57.1587 9.08182C57.386 9.30917 57.5376 9.6123 57.6892 9.86996C57.7953 10.2034 57.871 10.5065 57.871 10.84C57.8862 11.1734 57.8104 11.5069 57.6892 11.7797Z" fill="white"/>
<path d="M75.0305 7.27836V7.24805L71.8477 14.1443H72.9692L73.7119 12.4619H75.0154H75.0457H76.3188L77.0615 14.1443H78.2285L75.0457 7.29351H75.0305V7.27836ZM75.1821 9.71856C75.2124 9.82465 75.2579 9.9459 75.2882 10.0217L75.9551 11.5525H75.0608H75.0305H74.1363L74.8032 10.0217C74.8486 9.91559 74.879 9.79434 74.9547 9.68824C74.9547 9.58214 75.0305 9.43058 75.0305 9.27902L75.0608 9.30933C75.1063 9.44574 75.1518 9.56699 75.1821 9.71856Z" fill="white"/>
<path d="M66.0099 11.4005C66.0099 11.4308 65.9796 11.5066 65.9341 11.5823C65.828 11.8855 65.7068 12.1128 65.6765 12.325C65.5704 12.0977 65.4946 11.8703 65.4188 11.7187C65.3885 11.5672 65.343 11.4611 65.3127 11.3853L63.3575 7.23242L61.7812 14.1286H62.7513L63.4636 10.87C63.4939 10.7184 63.5394 10.5669 63.5394 10.385C63.5697 10.2334 63.5697 10.0818 63.6152 9.97575C63.6152 10.0818 63.691 10.2334 63.7213 10.385C63.7971 10.4911 63.8274 10.6426 63.9032 10.7942L65.6613 14.3863L67.3892 10.87C67.4649 10.7184 67.5407 10.5669 67.571 10.4153C67.6013 10.2637 67.6468 10.1122 67.6771 9.96059C67.6771 10.0667 67.7074 10.2183 67.7074 10.4153C67.7378 10.6729 67.7832 10.7942 67.7832 10.87L68.5259 14.1286H69.4959L67.9196 7.23242L66.0099 11.4005Z" fill="white"/>
<path d="M36.1052 16.8872L35.8475 18.3271H35.5898L36.0294 16.1143L36.772 17.8724L37.5299 16.1143L37.9694 18.3271H37.7118L37.4389 16.8872L36.772 18.418L36.1052 16.8872Z" fill="#2C3080"/>
<path d="M41.108 18.3271H40.8352L40.5624 17.6754H39.7288L39.4408 18.3271H39.168L40.138 16.1143L41.108 18.3271ZM39.7894 17.4632H40.4714L40.1228 16.675L39.7894 17.4632Z" fill="#2C3080"/>
<path d="M42.4141 16.1914H42.8536H42.9142C43.1113 16.1914 43.278 16.1914 43.4144 16.2975C43.5356 16.3884 43.6114 16.5552 43.6114 16.7674C43.6114 17.116 43.4144 17.2978 43.0355 17.2978H42.99L43.8085 18.3133H43.4902L42.702 17.2978H42.6717V18.3133H42.4292V16.1914H42.4141ZM42.6566 17.1311H42.8536C43.187 17.1311 43.3538 17.0856 43.3538 16.7825C43.3538 16.4642 43.187 16.4188 42.8536 16.4188H42.6566V17.1311Z" fill="#2C3080"/>
<path d="M45.3514 16.1914H45.0938V18.3285H45.3514V16.1914Z" fill="#2C3080"/>
<path d="M46.9141 16.1143L48.4903 17.8118V16.19H48.7328V18.418L47.1566 16.7205V18.3271H46.9141V16.1143Z" fill="#2C3080"/>
<path d="M50.2969 16.1914H51.4336V16.4339H50.5545V17.0402H51.4336V17.2827H50.5545V18.1011H51.4336V18.3285H50.2969V16.1914Z" fill="#2C3080"/>
<path d="M54.6758 16.1914H55.8125V16.4339H54.9334V17.0402H55.8125V17.2827H54.9334V18.1011H55.8125V18.3285H54.6758V16.1914Z" fill="#2C3080"/>
<path d="M59.1764 18.5397L58.8885 18.2366C58.7217 18.3427 58.5096 18.3882 58.2822 18.3882C58.0397 18.3882 57.8124 18.3124 57.6305 18.176C57.3273 17.9486 57.1758 17.6455 57.1758 17.2666C57.1758 16.9634 57.297 16.6906 57.5092 16.4784C57.7214 16.2663 58.0094 16.1602 58.3277 16.1602C58.6308 16.1602 58.9036 16.2663 59.1158 16.4633C59.3432 16.6755 59.4796 16.9635 59.4796 17.2817C59.4796 17.6152 59.3432 17.9183 59.1007 18.1153L59.5099 18.5549H59.1764V18.5397ZM58.9036 17.9183C59.0855 17.7819 59.1916 17.5546 59.1916 17.2817C59.1916 17.0999 59.1461 16.9483 59.0703 16.8119C58.9036 16.5391 58.6308 16.3875 58.3125 16.3875C58.0852 16.3875 57.8578 16.4784 57.6911 16.6452C57.5244 16.8119 57.4334 17.0241 57.4334 17.2666C57.4334 17.5697 57.5547 17.8122 57.7972 17.9941C57.9336 18.1002 58.1003 18.1457 58.2822 18.1457C58.4338 18.1457 58.5702 18.1153 58.6914 18.0547L58.2519 17.5849H58.5702L58.9036 17.9183Z" fill="#2C3080"/>
<path d="M61.16 16.1914V17.5252C61.16 17.9496 61.3267 18.1466 61.736 18.1466C62.13 18.1466 62.3119 17.9496 62.3119 17.5252V16.1914H62.5696V17.5252C62.5696 18.1011 62.2967 18.3891 61.736 18.3891C61.1752 18.3891 60.9023 18.1011 60.9023 17.5252V16.1914H61.16Z" fill="#2C3080"/>
<path d="M64.3866 16.1914H64.1289V18.3285H64.3866V16.1914Z" fill="#2C3080"/>
<path d="M66.2108 18.3285H65.9531V16.1914H66.332H66.4078C66.62 16.1914 66.8019 16.1914 66.9535 16.2975C67.0899 16.3884 67.1656 16.5703 67.1656 16.7825C67.1656 16.9947 67.0899 17.1614 66.9535 17.2675C66.817 17.3736 66.6352 17.3736 66.4078 17.3736H66.332H66.1956V18.3285H66.2108ZM66.332 17.1463C66.6958 17.1463 66.8928 17.1008 66.8928 16.7977C66.8928 16.4794 66.711 16.4339 66.332 16.4339H66.1956V17.1463H66.332Z" fill="#2C3080"/>
<path d="M68.8005 16.8872L68.5428 18.3271H68.2852L68.7247 16.1143L69.4674 17.8724L70.2252 16.1143L70.6647 18.3271H70.4071L70.1343 16.8872L69.4674 18.418L68.8005 16.8872Z" fill="#2C3080"/>
<path d="M72.0586 16.1914H73.1802V16.4339H72.3011V17.0402H73.1802V17.2827H72.3011V18.1011H73.1802V18.3285H72.0586V16.1914Z" fill="#2C3080"/>
<path d="M74.6523 16.1143L76.2286 17.8118V16.19H76.4711V18.418L74.8948 16.7205V18.3271H74.6523V16.1143Z" fill="#2C3080"/>
<path d="M78.4109 16.4339H77.8047V16.1914H79.2749V16.4339H78.6686V18.3285H78.4109V16.4339Z" fill="#2C3080"/>
<path d="M82.3672 16.1914H82.8219C83.0492 16.1914 83.2311 16.2066 83.3675 16.2975C83.5039 16.3884 83.5797 16.5552 83.5797 16.7522C83.5797 16.9795 83.4585 17.1311 83.2614 17.1917C83.5191 17.2372 83.6707 17.4342 83.6707 17.7222C83.6707 17.9041 83.5949 18.0557 83.4888 18.1618C83.3372 18.3133 83.125 18.3285 82.8219 18.3285H82.3672V16.1914ZM82.6097 17.1311H82.8067C83.1553 17.1311 83.3069 17.0402 83.3069 16.7825C83.3069 16.4794 83.1553 16.4188 82.8067 16.4188H82.6097V17.1311ZM82.6097 18.1163H82.8067C83.0189 18.1163 83.1553 18.1163 83.2463 18.0405C83.3372 17.9799 83.3827 17.8586 83.3827 17.7222C83.3827 17.5706 83.322 17.4494 83.2008 17.3888C83.1099 17.3281 83.0038 17.3281 82.8674 17.3281H82.7916H82.5945V18.1163H82.6097Z" fill="#2C3080"/>
<path d="M84.7773 16.1914H85.0502L85.6867 17.8283L86.3081 16.1914H86.581L85.6867 18.4194L84.7773 16.1914Z" fill="#2C3080"/>
</svg>
