<svg width="94" height="18" viewBox="0 0 94 18" fill="none" xmlns="http://www.w3.org/2000/svg">
<path d="M42.3105 12.8432L34.6045 12.8417L37.9133 4.81592H45.6096L44.8388 6.7112H39.9523L39.4774 7.86416H43.8844L43.1581 9.60497H38.7511L38.1986 10.9276H43.1001L42.3105 12.8432Z" fill="white"/>
<path d="M83.6096 12.8424L84.9486 9.62532L83.3477 4.81592H86.3599L87.2054 7.42784L90.2144 4.81592H93.5797C93.5797 4.81592 87.9737 9.61781 87.6367 9.90642L86.4174 12.8424H83.6096Z" fill="white"/>
<path d="M51.9743 12.8435H49.2369C49.2369 12.8435 49.5941 11.8826 49.7419 11.4848C49.9241 10.9919 49.926 10.6121 49.7488 10.3566C49.5278 10.0394 49.0763 9.99035 48.8263 9.98961H47.1421L45.961 12.8427H43.1113L46.4512 4.81543H51.7727C52.7283 4.82298 53.4224 5.09653 53.8348 5.6286C54.1699 6.06114 54.2045 6.53364 54.2068 6.66855C54.2399 8.30234 52.4885 8.94892 51.9508 9.10865C52.227 9.2541 53.0882 9.83514 52.593 11.1705C52.3656 11.7869 51.9743 12.8435 51.9743 12.8435ZM47.8712 8.22846L49.6268 8.2315H49.6447C50.2891 8.2315 50.8526 8.04913 51.1522 7.7439C51.3073 7.58565 51.3842 7.40706 51.3796 7.21189C51.3736 6.84489 51.0845 6.63311 50.5879 6.62933H48.5336L47.8712 8.22846Z" fill="white"/>
<path d="M80.9398 12.8435H78.2392C78.2392 12.8435 78.578 11.8254 78.7027 11.4848C78.885 10.9919 78.8873 10.6121 78.7096 10.3566C78.4891 10.0394 78.0367 9.99035 77.7876 9.98961H76.1029L74.926 12.8427H72.0693L75.412 4.81543H80.7382C83.0143 4.83278 83.1603 6.36181 83.1672 6.66855C83.1989 8.30156 81.447 8.94892 80.9108 9.10865C81.1851 9.2541 82.0463 9.83514 81.552 11.1705C81.3269 11.7862 80.9398 12.8435 80.9398 12.8435ZM76.8325 8.22846L78.5876 8.23072H78.606C79.25 8.23072 79.8148 8.04835 80.114 7.74317C80.2691 7.58492 80.346 7.40632 80.3414 7.21111C80.3354 6.84411 80.0463 6.63159 79.5497 6.6286H77.4958L76.8325 8.22846Z" fill="white"/>
<path d="M57.5393 13.045C54.2569 13.045 53.8362 11.045 53.8077 10.1859C53.7686 9.01556 54.3016 7.76837 55.2677 6.76533C56.5566 5.42849 58.4585 4.65978 60.4871 4.65527H60.5041C62.343 4.65527 63.2401 5.30637 63.6701 5.85201C64.0931 6.39005 64.2436 7.07659 64.0825 7.73597L64.0659 7.80303L61.3188 7.81583L61.3294 7.71562C61.3557 7.44506 61.2825 7.20543 61.1177 7.02232C60.8843 6.76533 60.4788 6.62292 59.9743 6.62292H59.9656C59.19 6.62591 58.3329 7.03737 57.6728 7.72391C57.0712 8.35015 56.7384 9.09169 56.7619 9.75935C56.7904 10.6124 57.3308 11.0827 58.2822 11.0827H58.3043C59.1923 11.0759 60.135 10.4835 60.5442 9.67346L60.569 9.62522L63.445 9.60787L63.3773 9.73975C62.8572 10.7609 62.1179 11.5635 61.1803 12.1256C60.1824 12.7232 58.9814 13.0337 57.6111 13.045C57.5863 13.045 57.5628 13.045 57.5393 13.045Z" fill="white"/>
<path d="M24.8237 12.8432L22.0869 12.8424L25.4823 4.81592H29.543L29.181 9.66149L32.8963 4.81592H37.0503L33.7227 12.8432L31.0191 12.8417L33.1221 7.83479L29.0252 12.8432L26.8544 12.8424L26.9982 7.6087L24.8237 12.8432Z" fill="white"/>
<path d="M67.1521 13.0688C65.8633 13.0688 64.7797 12.5903 64.2541 11.7892C63.8071 11.1102 63.78 10.273 64.1745 9.36789L66.0902 4.81621H68.7908L66.8391 9.47339C66.6352 9.97153 66.6283 10.3868 66.8207 10.6739C67.0099 10.9542 67.3906 11.1087 67.8937 11.1087L67.9139 11.108C68.8594 11.1011 69.5659 10.5548 70.0124 9.48545L71.9558 4.81543H74.6361L72.7213 9.42892C72.2186 10.6392 71.5567 11.5149 70.7001 12.1064C69.7837 12.7402 68.6394 13.0545 67.2028 13.0681L67.1521 13.0688Z" fill="white"/>
<path d="M88.0154 11.6304C88.3473 11.6304 88.6258 11.8926 88.6258 12.2363C88.6258 12.5867 88.3473 12.8489 88.0154 12.8489C87.6812 12.8489 87.4014 12.5867 87.4014 12.2363C87.4014 11.8919 87.6812 11.6304 88.0154 11.6304ZM88.0154 12.7593C88.2971 12.7593 88.5144 12.5347 88.5144 12.2363C88.5144 11.9446 88.2971 11.72 88.0154 11.72C87.73 11.72 87.5128 11.9446 87.5128 12.2363C87.5128 12.5347 87.73 12.7593 88.0154 12.7593ZM87.7779 11.8828H88.0522C88.2216 11.8828 88.3017 11.9499 88.3017 12.0863C88.3017 12.2152 88.2202 12.2687 88.1139 12.2799L88.3174 12.5942H88.1986L88.0048 12.2883H87.8874V12.5942H87.777V11.8828H87.7779ZM87.8884 12.1986H88.0044C88.1015 12.1986 88.1908 12.1941 88.1908 12.081C88.1908 11.9868 88.1098 11.9717 88.0343 11.9717H87.8884V12.1986Z" fill="white"/>
<path d="M13.8881 10.2441C13.0255 10.2441 12.33 10.8093 11.1558 11.584C10.2902 12.1621 9.55859 12.6617 8.63357 12.6617C7.97419 12.6617 7.70551 12.3203 6.92797 12.3203C6.32733 12.3203 5.80571 12.5961 5.1531 13.0226C5.14031 13.0226 5.13055 13.0294 5.12074 13.0362C4.87163 13.1937 4.37861 13.5155 4.02785 13.7393C3.40463 14.1334 2.83785 14.4296 2.28613 14.5539C2.73549 14.8629 3.2699 15.3949 4.32065 15.3949C4.53667 15.3949 4.74666 15.3558 4.95365 15.2894C5.48806 15.1191 6.19711 14.6203 6.62615 14.3377C7.61368 13.6813 8.21354 13.2864 9.1544 13.2864C9.78441 13.2864 10.2767 13.6346 10.8502 13.6346C11.7723 13.6346 12.5295 12.9714 13.59 12.2615C14.5316 11.6315 16.2794 10.5607 16.2794 10.5607C14.9772 10.743 14.7958 10.2441 13.8881 10.2441Z" fill="white"/>
<path d="M15.8065 8.22781C14.9439 8.79978 14.219 9.30542 13.297 9.30542C12.6482 9.30542 12.3787 8.9573 11.6042 8.9573C10.7416 8.9573 10.0431 9.52245 8.87269 10.3032C8.00259 10.8744 7.27472 11.3741 6.3497 11.3741C5.69106 11.3741 5.4216 11.0326 4.64033 11.0326C4.17215 11.0326 3.74839 11.1442 3.27645 11.4268C3.04989 11.5783 2.23022 12.1367 2.17753 12.1758C1.37742 12.7011 0.678924 13.1216 0 13.2723C0.449355 13.5745 0.987527 14.1126 2.03678 14.1126C2.5057 14.1126 2.93247 13.9355 3.3743 13.6725C3.49322 13.6069 4.23764 13.1216 4.34226 13.0493C5.32604 12.3989 5.9259 11.9988 6.87131 11.9988C7.50128 11.9988 7.98979 12.3462 8.5671 12.3462C9.48839 12.3462 10.2426 11.6762 11.3024 10.9739C12.2899 10.3243 12.8898 9.92337 13.8314 9.92337C14.4606 9.92337 14.9266 10.2715 15.5009 10.2715C15.9307 10.2715 16.3213 10.1261 16.724 9.90303L17.8161 7.18408C17.2494 7.29561 16.6818 7.65055 15.8065 8.22781Z" fill="white"/>
<path fill-rule="evenodd" clip-rule="evenodd" d="M19.3981 3.3877H14.7405L12.1001 6.62589L12.0248 6.63266L12.0579 3.3877H7.9347L4.8291 10.7375C5.1445 10.7699 5.37709 10.8483 5.59007 10.9214C5.81663 11.0005 6.01009 11.066 6.28254 11.066C6.91932 11.066 7.45677 10.8031 8.0506 10.4353L9.61171 6.42239H9.69677L9.74566 9.31243C10.3757 8.91151 10.9101 8.64928 11.5363 8.64928C11.9827 8.64928 12.2845 8.75404 12.5464 8.84596C12.7015 8.89871 12.8385 8.95146 12.9958 8.97029L15.2652 6.3365H15.3698L14.3333 8.72012C14.7074 8.54981 15.0822 8.30037 15.5015 8.02456L15.5941 7.95901C16.4928 7.36817 17.0821 6.99362 17.7024 6.88209L17.9485 6.83616L19.3981 3.3877Z" fill="white"/>
<path d="M3.11146 11.2474L3.122 11.2406C3.21383 11.1856 3.30415 11.1366 3.39447 11.0929C3.17544 10.3792 3.05727 9.62262 3.05727 8.83813C3.05727 4.60369 6.49855 1.15827 10.7279 1.15827C12.7165 1.15827 14.5305 1.9194 15.8944 3.1666H17.4923C15.8718 1.23213 13.4406 0 10.7271 0C5.8603 0 1.90039 3.96465 1.90039 8.83813C1.90039 9.85323 2.07275 10.8291 2.38888 11.7372C2.65609 11.5548 2.98501 11.3318 3.11146 11.2474Z" fill="white"/>
<path d="M18.1824 6.8806L18.19 6.87908L18.1629 6.94689C18.3164 7.55204 18.3985 8.18578 18.3985 8.8384C18.3985 13.0736 14.9572 16.5183 10.7278 16.5183C9.00038 16.5183 7.40471 15.9433 6.12134 14.9749C5.75633 15.207 5.35135 15.4406 5.0006 15.5521C4.99909 15.5529 4.99761 15.5529 4.99609 15.5537C6.53911 16.8762 8.54201 17.6758 10.7278 17.6758C15.5955 17.6758 19.5553 13.7111 19.5553 8.83766C19.5553 7.59425 19.2971 6.40958 18.832 5.33496L18.1824 6.8806Z" fill="white"/>
</svg>
