<svg width="75" height="53" viewBox="0 0 75 53" fill="none" xmlns="http://www.w3.org/2000/svg">
<path d="M38.6212 46.8719C37.0179 46.2516 36.1304 46.223 36.1304 45.4023C36.1304 44.9347 36.6935 44.5911 37.4283 44.5911C38.2776 44.5911 38.9552 44.906 39.3083 45.3546L40.7684 44.2476C40.1767 43.4173 39.0315 42.6348 37.371 42.6348C35.6151 42.6348 33.9737 43.6559 33.9737 45.4214C33.9737 46.8719 35.0616 47.769 36.4835 48.2843C37.8577 48.7901 38.9647 49.0096 38.9647 49.8685C38.9647 50.3361 38.583 50.8419 37.4951 50.8419C36.3499 50.8419 35.4815 50.317 35.0139 49.544L33.4297 50.632C34.0405 51.8249 35.3574 52.8078 37.476 52.8078C39.9859 52.8078 41.1406 51.529 41.1406 49.7922C41.1406 48.3893 40.4058 47.5591 38.6212 46.8719Z" fill="white"/>
<path d="M23.3336 42.7588H21.1387V52.6742H23.3336V42.7588Z" fill="white"/>
<path d="M44.2613 42.7588H42.0664V52.6742H44.2613V42.7588Z" fill="white"/>
<path d="M47.8397 42.7588H45.6543V52.6742H51.4852V50.6892H47.8397V42.7588Z" fill="white"/>
<path d="M54.5104 49.315L52.2678 42.7588H49.9297L53.4702 52.6742H55.5602L58.9671 42.7588H56.629L54.5104 49.315Z" fill="white"/>
<path d="M59.8164 52.6742H65.8859V50.6892H62.0113V48.981H65.1606V47.0914H62.0113V44.7533H65.905V42.7588H59.8164V52.6742Z" fill="white"/>
<path d="M72.4427 49.1241C73.6642 48.6374 74.3418 47.33 74.3418 46.0321C74.3418 44.1807 72.8149 42.7588 70.973 42.7588H67.0508V52.6742H69.2266V49.3722V47.435V44.7438H70.9158C71.6124 44.7438 72.1564 45.2877 72.1564 46.0512C72.1564 46.891 71.5838 47.435 70.7345 47.435H70.2573V49.2768L72.5286 52.6742H75.0003L72.4427 49.1241Z" fill="white"/>
<path d="M17.6356 48.208C17.6356 49.9448 16.8244 50.6128 15.6124 50.6128C14.3909 50.6128 13.5797 49.9448 13.5797 48.208V42.7588H11.3848V48.666C11.3848 51.4717 13.2934 52.8364 15.6124 52.8364C17.9219 52.8364 19.821 51.4717 19.821 48.666V42.7588H17.626V48.208H17.6356Z" fill="white"/>
<path d="M10.5357 47.7206C10.5357 44.8577 8.19761 42.6055 5.26785 42.6055C2.34763 42.6055 0 44.8577 0 47.7206C0 50.6027 2.34763 52.8358 5.26785 52.8358C5.73546 52.8358 6.19354 52.7785 6.62298 52.6735L5.21059 50.8508C3.49281 50.8222 2.17585 49.4766 2.17585 47.7206C2.17585 45.9933 3.52144 44.5905 5.26785 44.5905C7.01425 44.5905 8.35984 46.0029 8.35984 47.7206C8.35984 48.3028 8.20715 48.8467 7.93994 49.3143L6.44166 47.4439L4.80023 48.799L7.92086 52.6831H10.6407L9.32371 51.0321C10.0776 50.1446 10.5357 48.9994 10.5357 47.7206Z" fill="white"/>
<path d="M33.5633 42.7588H30.8531L26.9022 47.454V42.7588H26.7877H24.7168V52.6742H26.7877H26.9022V50.651L28.2096 49.105L31.0726 52.6742H31.2443H33.7924H33.8019L29.6315 47.4445L33.5633 42.7588Z" fill="white"/>
<path d="M75 39.6759H4.17038C1.73686 39.6759 0.0190864 37.6337 0 35.6773V19.807C3.05382 19.807 5.78318 18.3469 6.77567 17.6311C13.0933 13.1172 18.342 4.31836 25.07 1.4554C27.0359 0.615594 30.8627 -0.749082 35.6916 0.51062L41.4652 6.26517C41.4652 6.26517 38.4495 4.84323 33.9738 4.84323C28.9541 4.84323 19.2677 8.97544 19.2677 19.7974C19.2677 28.5104 25.2608 34.6276 35.1094 34.6276H69.9421L75 39.6759Z" fill="white"/>
<path d="M66.8217 31.5448H34.3557C30.672 31.5448 25.7478 29.7888 24.2686 26.3628C24.2686 26.3628 38.8696 11.4659 39.5758 10.7597C41.3223 9.02282 44.4429 9.02282 45.9507 10.7597L66.8217 31.5448ZM34.5561 20.0643C34.1839 20.4269 34.3843 20.8468 34.871 20.8278H38.8697L41.6754 18.4515C42.267 17.8789 42.8301 17.9839 42.8301 18.6042V23.3472C42.8205 24.0915 43.479 24.0915 43.8894 23.5953L46.8096 20.8373H50.6364C50.9418 20.8278 51.1613 20.4365 50.7414 20.0357L43.8321 13.2314C43.3359 12.7351 42.2766 12.7351 41.7994 13.2314C41.6276 13.3841 34.5561 20.0643 34.5561 20.0643Z" fill="white"/>
</svg>
