<svg width="96" height="21" viewBox="0 0 96 21" fill="none" xmlns="http://www.w3.org/2000/svg">
<path d="M10.892 0.285645C5.21328 0.285645 0.609375 4.88922 0.609375 10.5689C0.609375 16.2476 5.21328 20.8522 10.892 20.8522C16.571 20.8522 21.1753 16.2476 21.1753 10.5689C21.1753 4.88922 16.5714 0.285645 10.892 0.285645ZM10.892 19.6914C5.85381 19.6914 1.76889 15.6068 1.76889 10.5689C1.76889 5.53008 5.85347 1.44583 10.892 1.44583C15.9305 1.44583 20.0151 5.53008 20.0151 10.5689C20.0151 15.6068 15.9305 19.6914 10.892 19.6914Z" fill="white"/>
<path d="M18.365 14.7103L16.872 12.9669C16.8349 12.9245 16.785 12.8955 16.7299 12.8842C16.6747 12.8729 16.6174 12.8799 16.5667 12.9043C16.4567 12.9565 16.3363 12.9827 16.2146 12.9811C16.0929 12.9794 15.9732 12.9498 15.8647 12.8946C15.7563 12.8394 15.662 12.76 15.589 12.6626C15.5161 12.5652 15.4664 12.4523 15.444 12.3327C15.3908 12.0462 15.2763 11.7747 15.1079 11.5368C14.9395 11.299 14.7215 11.1006 14.469 10.9552L13.8003 10.5695L17.6016 8.37502L17.1312 7.55971L12.8594 10.0257L12.3461 9.72974V9.13675L16.6176 6.6704L16.1471 5.85542L12.3461 8.05023V7.27845C12.3464 6.98703 12.2835 6.69902 12.1617 6.43427C12.0399 6.16952 11.8621 5.93434 11.6406 5.74493C11.5481 5.66575 11.475 5.56636 11.427 5.45444C11.379 5.34252 11.3574 5.22106 11.3638 5.09945C11.3702 4.97784 11.4045 4.85933 11.464 4.75308C11.5235 4.64682 11.6066 4.55566 11.7069 4.48664C11.7536 4.45499 11.7885 4.40884 11.8063 4.35533C11.8241 4.30183 11.8238 4.24395 11.8054 4.19065L11.0423 2.02631C11.0317 1.99475 11.0115 1.96731 10.9845 1.94787C10.9575 1.92843 10.9251 1.91797 10.8918 1.91797C10.8585 1.91797 10.8261 1.92843 10.7991 1.94787C10.7721 1.96731 10.7519 1.99475 10.7413 2.02631L9.97855 4.19065C9.96031 4.2439 9.95999 4.30165 9.97764 4.3551C9.99529 4.40854 10.03 4.45474 10.0763 4.48664C10.1765 4.55577 10.2598 4.64698 10.3192 4.75325C10.3786 4.85951 10.4128 4.97799 10.4192 5.09956C10.4256 5.22112 10.4039 5.34253 10.356 5.45442C10.308 5.56631 10.235 5.6657 10.1426 5.74493C9.92115 5.93432 9.74342 6.16951 9.62168 6.43427C9.49993 6.69903 9.43709 6.98705 9.43747 7.27845V8.05023L5.63615 5.85542L5.16571 6.6704L9.43747 9.13675V9.73007L8.92418 10.0257L4.65242 7.55971L4.18232 8.37502L7.98364 10.5695L7.31465 10.9552C7.06209 11.1005 6.8441 11.299 6.67576 11.5368C6.50741 11.7746 6.39273 12.0462 6.33963 12.3327C6.31704 12.4522 6.26735 12.565 6.19437 12.6624C6.12139 12.7597 6.02707 12.839 5.91866 12.8942C5.81024 12.9494 5.69061 12.979 5.56897 12.9808C5.44732 12.9825 5.3269 12.9563 5.21694 12.9043C5.16622 12.88 5.10897 12.873 5.05391 12.8843C4.99884 12.8956 4.94898 12.9246 4.91191 12.9669L3.41857 14.7097C3.39659 14.7347 3.38299 14.7661 3.37969 14.7993C3.37639 14.8325 3.38355 14.8659 3.40016 14.8948C3.41693 14.9235 3.44215 14.9462 3.47237 14.9599C3.50258 14.9737 3.53631 14.9777 3.56891 14.9715L5.82499 14.5489C5.88032 14.5382 5.93059 14.5096 5.96805 14.4675C6.0055 14.4254 6.02806 14.3721 6.03225 14.3159C6.04207 14.1946 6.07959 14.0771 6.14194 13.9726C6.20428 13.868 6.28978 13.7792 6.39186 13.7129C6.49393 13.6466 6.60986 13.6046 6.73072 13.5901C6.85158 13.5757 6.97414 13.5891 7.08897 13.6295C7.3637 13.7267 7.65626 13.763 7.94641 13.736C8.23657 13.709 8.5174 13.6193 8.76948 13.4731L9.43814 13.0881V17.477H10.379V12.5443L10.8926 12.248L11.4059 12.5443V17.4767H12.3471V13.0877L13.0155 13.4728C13.2676 13.619 13.5485 13.7087 13.8387 13.7357C14.1289 13.7627 14.4215 13.7264 14.6963 13.6292C14.8111 13.5887 14.9337 13.5751 15.0546 13.5895C15.1755 13.6039 15.2915 13.6459 15.3935 13.7122C15.4956 13.7785 15.5811 13.8674 15.6434 13.9721C15.7057 14.0767 15.7431 14.1942 15.7527 14.3156C15.757 14.3717 15.7795 14.4249 15.8169 14.4669C15.8543 14.509 15.9044 14.5377 15.9596 14.5486L18.2154 14.9712C18.2807 14.9835 18.3493 14.9544 18.3844 14.8945C18.4006 14.8655 18.4074 14.8323 18.4039 14.7993C18.4004 14.7664 18.3869 14.7353 18.365 14.7103ZM9.43713 12.0016L8.18253 12.7255C8.12417 12.7592 8.05973 12.7811 7.99289 12.7899C7.92606 12.7987 7.85814 12.7943 7.79303 12.7769C7.72791 12.7594 7.66687 12.7293 7.6134 12.6883C7.55992 12.6472 7.51507 12.596 7.48139 12.5376C7.41333 12.4196 7.39492 12.2794 7.43021 12.1478C7.46549 12.0162 7.55159 11.904 7.66957 11.8358L8.92418 11.1116L9.43747 11.4082L9.43713 12.0016ZM10.378 7.14519C10.3763 7.07666 10.3882 7.00847 10.4133 6.94464C10.4383 6.88081 10.4758 6.82264 10.5237 6.77355C10.5715 6.72446 10.6287 6.68545 10.6919 6.65881C10.7551 6.63217 10.8229 6.61845 10.8915 6.61845C10.96 6.61845 11.0279 6.63217 11.091 6.65881C11.1542 6.68545 11.2114 6.72446 11.2593 6.77355C11.3071 6.82264 11.3447 6.88081 11.3697 6.94464C11.3947 7.00847 11.4067 7.07666 11.4049 7.14519V8.59333L10.8916 8.88931L10.378 8.59333V7.14519ZM11.4819 10.91L10.8916 11.2505L10.3007 10.9097V10.2276L10.8916 9.88644L11.4819 10.2276V10.91ZM14.3015 12.538C14.2332 12.6557 14.121 12.7416 13.9894 12.7769C13.8579 12.8121 13.7178 12.7937 13.5997 12.7258L12.3455 12.0012V11.4086L12.8588 11.1119L14.113 11.8361C14.3588 11.9781 14.4428 12.2915 14.3015 12.538Z" fill="white"/>
<path d="M79.3586 8.47949H75.9266V1.61816H72.7916V19.5185H75.9266V11.6577H79.3586V19.5185H82.5619V1.61816H79.3586V8.47949ZM23.4648 1.61816L26.9441 12.5942V19.5185H30.4266V12.2386L34.0334 1.61816H31.1026L28.7351 8.59199L26.5918 1.61816H23.4648ZM53.7006 1.61816L52.1989 10.1332L50.4575 1.61816H45.5633V19.5185H48.3698V6.02519L50.7648 17.7553H53.3859L55.51 5.83467V19.5185H58.8007V1.61816H53.7006ZM92.1143 1.61816H87.2663L83.995 19.5185H86.896L87.5897 15.3532H91.1982L91.8712 19.5185H95.0678L92.1143 1.61816ZM88.0873 12.3692L89.4212 4.36343L90.716 12.3692H88.0873ZM63.5054 1.61816L60.2331 19.5185H63.1348L63.8292 15.3532H67.4377L68.1107 19.5185H71.3066L68.3528 1.61816H63.5054ZM64.3261 12.3692L65.6601 4.36343L66.9548 12.3692H64.3261ZM36.2764 1.61816L33.0041 19.5185H35.9061L36.6005 15.3532H40.2087L40.882 19.5185H44.0773L41.1238 1.61816H36.2764ZM37.0974 12.3692L38.4314 4.36343L39.7258 12.3692H37.0974Z" fill="white"/>
</svg>
