<svg width="82" height="37" viewBox="0 0 82 37" fill="none" xmlns="http://www.w3.org/2000/svg">
<path d="M40.6787 0.548845C63.1074 0.535391 81.2856 8.62969 81.2861 18.6055C81.2861 28.5815 63.1077 36.663 40.6787 36.6631C18.2495 36.6631 0.0703125 28.5815 0.0703125 18.6055C0.0708315 8.62964 18.2498 0.548845 40.6787 0.548845ZM40.6768 2.06447C30.2811 2.06447 20.5073 3.75658 13.1572 6.84279C5.71269 9.95606 1.625 14.1387 1.625 18.6055C1.625 23.0723 5.72622 27.2549 13.1572 30.3682C20.5073 33.4544 30.2811 35.1465 40.6768 35.1465C51.0723 35.1465 60.8453 33.4544 68.1953 30.3682C75.64 27.2549 79.7275 23.0723 79.7275 18.6055C79.7275 14.1386 75.6265 9.9696 68.1953 6.84279C60.8318 3.75661 51.0588 2.06451 40.6768 2.06447ZM40.6768 2.67384C61.874 2.67392 79.1318 9.82066 79.1318 18.6055C79.1318 27.3903 61.8875 34.537 40.6768 34.5371C19.4658 34.5371 2.2207 27.3904 2.2207 18.6055C2.22071 9.82061 19.4658 2.67384 40.6768 2.67384ZM41.6797 9.36135C39.0132 9.36168 36.8477 13.4364 36.8477 18.458C36.8478 23.4795 39.0133 27.5534 41.6797 27.5537C42.0046 27.5537 42.3166 27.4862 42.6279 27.3779C39.9885 26.5658 37.9845 23.0465 37.9844 18.2549C37.9844 13.5717 39.8931 10.3364 42.4512 9.48342C42.1941 9.40226 41.9503 9.36135 41.6797 9.36135ZM44.7656 9.36037C42.0992 9.3607 39.9336 13.4354 39.9336 18.457C39.9337 23.4785 42.0993 27.5524 44.7656 27.5528C46.0786 27.5528 47.2704 26.5649 48.1367 24.9678H47.5947C46.9315 26.0098 46.0784 26.6455 45.1445 26.6455C42.9113 26.6451 41.0977 22.9639 41.0977 18.4297C41.0977 13.8954 42.9113 10.2134 45.1445 10.2129C46.2139 10.2129 47.2025 11.0658 47.9199 12.46H48.3936C47.5137 10.565 46.2139 9.36037 44.7656 9.36037ZM69.0908 14.3008C66.3295 14.3008 64.3126 16.1146 64.3125 18.957C64.3125 21.7996 66.3295 23.6133 69.0908 23.6133C70.2955 23.6133 71.5542 23.1261 72.2852 22.0703L70.6611 20.8526C70.2551 21.448 69.6188 21.7997 68.834 21.7998C67.4127 21.7998 66.3291 20.5948 66.3291 18.9434C66.3292 17.2921 67.4124 16.0879 68.8877 16.0879C69.6186 16.0879 70.1739 16.3582 70.5664 16.8184L72.082 15.6006C71.324 14.6396 70.0789 14.3008 69.0908 14.3008ZM61.0098 14.3008C59.2773 14.301 57.6396 15.2896 57.6396 17.1709C57.6401 20.1212 61.7949 19.242 61.7949 20.8662C61.7946 21.4886 61.0774 21.7861 60.4414 21.7861C59.7919 21.7861 59.1424 21.4749 58.7363 20.9473L57.3555 22.4766C58.1946 23.248 59.1961 23.5869 60.333 23.5869C62.1604 23.5869 63.7441 22.6521 63.7441 20.6758C63.7437 17.5902 59.6699 18.6185 59.6699 17.0078C59.6701 16.3447 60.4285 16.1006 60.9834 16.1006C61.4571 16.1007 62.0794 16.2776 62.3906 16.6836L63.7178 15.2217C62.9733 14.5584 62.0114 14.3008 61.0098 14.3008ZM6.53906 16.2363H8.9082V23.3701H10.8574V16.2363H12.7871L14.9033 23.3711H16.582L18.4092 17.5508H18.4365L20.1143 23.3711H21.8613L24.4463 14.5186H22.4697L20.9814 20.0274H20.9541L19.3838 14.5186H17.5703L15.8369 19.8789H15.8242L14.4023 14.5186H12.4951V14.5176H6.53906V16.2363ZM27.5195 23.3711H29.4688V17.0635H29.4961L33.3535 23.3711H35.9121V14.5186H33.9492V20.6641H33.9355L30.1729 14.5186H27.5195V23.3711ZM45.7266 23.3711H48.9072C51.5467 23.3711 53.8887 21.8278 53.8887 18.9717C53.8886 15.7368 51.5064 14.5186 48.6504 14.5186H45.7266V23.3711ZM24.7344 23.3701H26.6836V14.5176H24.7344V23.3701ZM54.6328 23.3701H56.582V14.5176H54.6328V23.3701ZM73.8291 21.5156C73.3149 21.5156 72.8812 21.9215 72.8945 22.4492C72.8945 22.9636 73.3147 23.3701 73.8291 23.3701C74.3297 23.37 74.7625 22.9776 74.7627 22.4365C74.7627 21.9223 74.3433 21.5158 73.8291 21.5156ZM73.8291 21.6641C74.262 21.6642 74.6141 22.0028 74.6143 22.4492C74.6143 22.9094 74.2621 23.2479 73.8291 23.2481C73.3824 23.2481 73.0439 22.8961 73.0439 22.4629C73.0441 22.0028 73.396 21.6641 73.8291 21.6641ZM73.4766 21.9219V23.0049H73.626V22.544H73.8154L74.1133 23.0049H74.2754L73.9639 22.5313C74.1262 22.5042 74.2479 22.4227 74.248 22.2334C74.248 22.0168 74.1263 21.9219 73.8691 21.9219H73.4766ZM73.8555 22.0567C73.9773 22.0567 74.0996 22.0708 74.0996 22.2197C74.0995 22.3819 73.9642 22.3955 73.8154 22.3955H73.626V22.0567H73.8555ZM48.8398 16.332C50.4912 16.332 51.872 17.1445 51.8721 18.877C51.8721 20.8801 50.505 21.5712 48.6914 21.5713H47.6895V16.332H48.8398ZM12.8877 16.2363H12.7871L12.2773 14.5186H12.4951L12.8877 16.2363Z" fill="white"/>
</svg>
