<svg width="64" height="64" viewBox="0 0 64 64" fill="none" xmlns="http://www.w3.org/2000/svg">
<path fill-rule="evenodd" clip-rule="evenodd" d="M27.8564 0.241211L0.316406 7.61051V15.8059L27.8564 8.42059V0.241211ZM27.8564 14.9003L0.316406 22.2859V30.4812L27.8564 23.096V14.9003ZM27.8564 29.5757L0.316406 36.9609V45.156L27.8564 37.771V29.5757ZM10.4649 14.3607V18.5535L2.63522 16.4569L10.4649 14.3607ZM10.4649 29.0357V33.2289L2.63522 31.1323L10.4649 29.0357ZM10.4649 43.7111V47.9043L2.63522 45.8077L10.4649 43.7111Z" fill="white"/>
<path fill-rule="evenodd" clip-rule="evenodd" d="M10.6406 61.451H15.0241V59.7835H14.357V60.8954H12.0066V58.7828H13.9761V58.1634H12.0066V56.3689H14.357V57.3217H15.0241V55.7973H10.6406V56.3692H11.2601V60.8957H10.6406V61.451ZM15.5803 56.2258H16.2314V60.8159H15.5803V61.451H17.0415V60.9429C17.4543 61.3878 17.8835 61.5464 18.5026 61.5464C19.8367 61.5464 20.7579 60.5773 20.7579 59.3068C20.7579 58.0523 19.8207 57.0515 18.5502 57.0515C17.9307 57.0515 17.4543 57.2422 17.0415 57.687V55.5744H15.5803V56.2258ZM16.9779 59.3068C16.9779 58.37 17.629 57.7345 18.4391 57.7345C19.3127 57.7345 19.9162 58.4016 19.9162 59.3068C19.9162 60.244 19.2651 60.8954 18.4391 60.8954C17.629 60.8954 16.9779 60.244 16.9779 59.3068ZM25.7608 60.1804H25.0143C24.7125 60.6409 24.2201 60.8954 23.6799 60.8954C22.8382 60.8954 22.2027 60.3551 22.1395 59.545H25.856V59.4499C25.856 57.9727 24.9191 57.0515 23.5847 57.0515C22.1871 57.0515 21.2978 57.9408 21.2978 59.2592C21.2978 60.6884 22.235 61.5621 23.5691 61.5621C24.5538 61.5624 25.3636 61.0541 25.7608 60.1804ZM22.1395 58.9259C22.2666 58.1318 22.759 57.7026 23.5847 57.7026C24.3948 57.7026 24.9032 58.1318 25.0302 58.9259H22.1395ZM27.905 57.8457V57.1626H26.4438V57.8137H27.1108V60.8155H26.4438V61.4506H28.572V60.8155H27.905V59.0842C27.905 58.2269 28.4449 57.7661 29.2866 57.7661H29.5248V57.0512C29.4453 57.0512 29.3821 57.0352 29.3342 57.0352C28.6512 57.0356 28.2227 57.2897 27.905 57.8457ZM30.5255 61.451V61.0221C30.9543 61.3874 31.4148 61.5624 32.0026 61.5624C33.0034 61.5624 33.6704 61.0221 33.6704 60.1964C33.6704 59.4019 33.178 59.1162 32.2408 58.9575L31.3512 58.8148C30.8748 58.7353 30.6523 58.5766 30.6523 58.2585C30.6523 57.8936 30.97 57.6394 31.494 57.6394C32.1134 57.6394 32.4947 57.9092 32.7964 58.4811H33.4315V57.163H32.7964V57.5283C32.6055 57.2581 32.1294 57.0519 31.5096 57.0519C30.5092 57.0519 29.9214 57.5442 29.9214 58.3064C29.9214 59.037 30.3662 59.4179 31.2874 59.5769L32.2881 59.7676C32.7166 59.8315 32.9391 59.9742 32.9391 60.2919C32.9391 60.6731 32.5582 60.927 32.0023 60.927C31.3509 60.927 30.7634 60.6093 30.5252 60.0697H29.9057V61.451H30.5255ZM34.7659 57.8137V62.7531H34.0989V63.3885H36.2743V62.7531H35.56V60.9426C35.9889 61.3874 36.4333 61.5461 37.0368 61.5461C38.3709 61.5461 39.2921 60.577 39.2921 59.3065C39.2921 58.0519 38.3556 57.0512 37.1007 57.0512C36.4816 57.0512 35.9892 57.2418 35.5604 57.6866V57.1623H34.0989V57.8134L34.7659 57.8137ZM38.4507 59.3068C38.4507 60.26 37.7997 60.8954 36.9892 60.8954C36.1795 60.8954 35.5125 60.26 35.5125 59.3068C35.5125 58.37 36.1635 57.7345 36.9892 57.7345C37.7837 57.7345 38.4507 58.37 38.4507 59.3068ZM44.3589 60.8155V57.8137H45.0259V57.1626H43.5491V57.7345C43.1682 57.2741 42.6599 57.0515 42.0401 57.0515C40.7859 57.0515 39.8327 58.0519 39.8327 59.3068C39.8327 60.5933 40.7859 61.5464 42.0401 61.5464C42.6918 61.5464 43.1995 61.3402 43.5491 60.8954V61.451H45.0259V60.8159H44.3589V60.8155ZM40.6741 59.3068C40.6741 58.4016 41.2779 57.7345 42.1515 57.7345C42.9613 57.7345 43.613 58.37 43.613 59.3068C43.613 60.26 42.9613 60.8954 42.1515 60.8954C41.3258 60.8954 40.6741 60.244 40.6741 59.3068ZM41.1824 56.2414H41.913V55.3994H41.1824V56.2414ZM42.6439 56.2414H43.3745V55.3994H42.6439V56.2414ZM49.2507 60.2124C48.8538 60.6728 48.409 60.8954 47.8847 60.8954C46.9635 60.8954 46.4391 60.2919 46.4391 59.3228C46.4391 58.3384 46.9635 57.7186 47.726 57.7186C48.3451 57.7186 48.7739 58.0363 49.0121 58.6398H49.5837V57.1626H48.9486V57.5755C48.6156 57.2262 48.2027 57.0515 47.6465 57.0515C46.4391 57.0515 45.6138 57.9408 45.6138 59.3228C45.6138 60.6731 46.4235 61.5624 47.7423 61.5624C48.552 61.5624 49.2031 61.2444 49.6795 60.6412L49.2507 60.2124ZM54.6192 60.8155V58.5127C54.6192 58.1634 54.6032 57.8457 54.381 57.5599C54.1588 57.2418 53.7612 57.0515 53.2535 57.0515C52.6813 57.0515 52.1889 57.2897 51.6966 57.7665V55.5748H50.2358V56.2258H50.8868V60.8159H50.2358V61.451H52.3636V60.8159H51.6966V58.513C52.157 58.0206 52.5858 57.7824 53.0466 57.7824C53.7616 57.7824 53.8091 58.2276 53.8091 58.8787V60.8162H53.1421V61.4513H55.2706V60.8162H54.6192V60.8155ZM60.1145 60.1804H59.3679C59.2257 60.4005 59.0305 60.5812 58.8002 60.7062C58.5699 60.8311 58.3119 60.8961 58.0499 60.8954C57.1919 60.8954 56.5564 60.3551 56.4936 59.545H60.2253V59.4499C60.2253 57.9727 59.2881 57.0515 57.9384 57.0515C56.5568 57.0515 55.6672 57.9408 55.6672 59.2592C55.6672 60.6884 56.6043 61.5621 57.9384 61.5621C58.9072 61.5624 59.7169 61.0541 60.1145 60.1804ZM56.4932 58.9259C56.62 58.1318 57.1283 57.7026 57.9381 57.7026C58.7485 57.7026 59.2562 58.1318 59.3836 58.9259H56.4932ZM62.258 57.8457V57.1626H60.7972V57.8137H61.4642V60.8155H60.7972V61.4506H62.925V60.8155H62.258V59.0842C62.258 58.2269 62.7983 57.7661 63.6556 57.7661H63.8778V57.0512C63.8146 57.0512 63.7511 57.0352 63.6872 57.0352C63.0205 57.0356 62.576 57.2897 62.258 57.8457Z" fill="white"/>
</svg>
