<svg width="94" height="26" viewBox="0 0 94 26" fill="none" xmlns="http://www.w3.org/2000/svg">
<path d="M93.5801 25.252H0V0H93.5801V25.252ZM69.7686 14.6055C69.6588 15.0887 69.5147 15.5507 69.1104 15.8916C68.6541 16.3214 67.9262 16.4073 67.3428 16.1934C66.7768 15.9271 66.4821 15.3032 66.5225 14.6777L67.7236 4.3291L61.3926 4.33008L60.1162 14.749C60.1162 15.6065 60.064 16.5514 60.3701 17.3359C61.0865 19.5139 63.5822 20.9081 65.7715 21.3018C68.5268 21.6747 71.3744 21.4428 73.5059 19.9277C74.9846 18.8907 75.7532 17.3544 76.042 15.7285L77.376 4.3291H71.207L69.7686 14.6055ZM37.2793 3.9834C33.5571 3.82062 29.9465 5.92925 28.4141 9.30371C27.1006 12.3379 27.6117 16.2826 30.1289 18.623C32.9738 21.3715 37.8267 22.1582 41.4561 20.4785C44.4315 19.1396 46.5653 16.1579 46.6191 12.9658C46.6561 12.0007 46.639 10.9808 46.2188 10.1797L42.4424 5.42969L41.8037 4.94727C40.4352 4.28612 38.8846 4.01783 37.2793 3.9834ZM4.29785 20.9883H10.3906L12.3066 13.623L13.4365 21.0029H17.3955L20.624 13.7305L20.2959 21.0029H26.2334V4.33691H19.6221L16.7393 11.1064L15.7344 4.33691H9.27832L4.29785 20.9883ZM48.0039 9.62012L50.458 9.53613L48.9883 20.9883H55.4482L56.8145 9.51367L59.4805 9.62012L60.041 4.3291H43.8828L48.0039 9.62012ZM76.8623 20.9883H87.6641L89.1602 15.7217H84.0889L85.5273 4.3291H79.1094L76.8623 20.9883ZM34.543 11.1592C35.2356 9.96261 36.532 9.33778 37.9004 9.51855C38.7199 9.66152 39.5779 10.2136 39.9424 10.999C40.4917 12.0332 40.453 13.6063 39.7783 14.5693C39.1222 15.6057 38.009 16.2117 36.751 16.1045C35.7846 16.0161 34.8711 15.425 34.4326 14.5693C33.8131 13.5507 33.9596 12.1594 34.543 11.1592Z" fill="white"/>
</svg>
