<svg width="30" height="30" viewBox="0 0 30 30" fill="none" xmlns="http://www.w3.org/2000/svg">
<circle cx="15" cy="15" r="15" fill="white"/>
<path d="M22.9296 14.4557C22.9085 14.3097 22.836 14.1764 22.7254 14.0802C22.6148 13.9841 22.4737 13.9317 22.3279 13.9327H21.178L21.109 13.6881C20.9771 13.2538 20.8059 12.8327 20.5976 12.4302L20.4902 12.2123L21.2744 11.4182C21.379 11.3121 21.4419 11.1712 21.4516 11.0217C21.4613 10.8722 21.4169 10.7242 21.3269 10.6052C20.8995 10.0453 20.4013 9.54469 19.8452 9.1161C19.7277 9.0243 19.5813 8.97884 19.4332 8.9882C19.2851 8.99756 19.1454 9.0611 19.0401 9.16699L18.25 9.96714L18.028 9.83595C17.6376 9.62126 17.225 9.45069 16.7978 9.32731L16.5625 9.25413V8.10885C16.5623 7.96094 16.5097 7.81802 16.4142 7.70606C16.3187 7.59411 16.1868 7.52056 16.0423 7.49879C15.696 7.44615 15.3463 7.41917 14.9961 7.41805C14.6449 7.41642 14.2941 7.43887 13.9459 7.48526C13.8017 7.50664 13.67 7.5801 13.5751 7.69208C13.4801 7.80406 13.4284 7.94702 13.4294 8.09459V9.25941L13.1875 9.32929C12.7586 9.46277 12.3427 9.6359 11.945 9.8465L11.7302 9.95528L10.9459 9.16132C10.8412 9.05545 10.7021 8.99169 10.5545 8.98192C10.4068 8.97214 10.2607 9.01701 10.1433 9.10817C9.59023 9.54091 9.09582 10.0454 8.67273 10.6088C8.58213 10.7277 8.5373 10.876 8.54656 11.0259C8.55583 11.1758 8.61857 11.3173 8.72311 11.4239L9.5134 12.2242L9.38384 12.449C9.17206 12.8444 9.00353 13.262 8.88125 13.6944L8.80866 13.9327H7.6783C7.5322 13.9329 7.39103 13.9862 7.28047 14.0829C7.1699 14.1796 7.09729 14.3133 7.07582 14.4597C7.02393 14.8104 6.99731 15.1646 6.99617 15.5192C6.99458 15.8748 7.0167 16.23 7.0624 16.5825C7.08347 16.7286 7.156 16.862 7.26659 16.9582C7.37718 17.0543 7.51837 17.1068 7.66414 17.1058H8.81386L8.88287 17.3504C9.01477 17.7847 9.18596 18.2058 9.39426 18.6083L9.50168 18.8262L8.71749 19.6203C8.61291 19.7263 8.54993 19.8672 8.54026 20.0167C8.5306 20.1663 8.57492 20.3143 8.66496 20.4332C9.09239 20.9931 9.59055 21.4938 10.1467 21.9223C10.2641 22.0142 10.4106 22.0596 10.5587 22.0502C10.7068 22.0409 10.8465 21.9773 10.9517 21.8715L11.7419 21.0713L11.9639 21.2025C12.3544 21.417 12.7669 21.5876 13.194 21.7112L13.4294 21.7843V22.9296C13.4296 23.0775 13.4822 23.2204 13.5777 23.3324C13.6731 23.4443 13.8051 23.5179 13.9495 23.5397C14.296 23.5923 14.6458 23.6193 14.9961 23.6204C15.3471 23.622 15.6979 23.5996 16.046 23.5532C16.1902 23.5318 16.3219 23.4584 16.4168 23.3464C16.5117 23.2344 16.5635 23.0914 16.5625 22.9439V21.7791L16.8043 21.7092C17.2333 21.5757 17.6492 21.4026 18.0468 21.192L18.2617 21.0832L19.0459 21.8771C19.1507 21.983 19.2898 22.0468 19.4374 22.0565C19.5851 22.0663 19.7312 22.0214 19.8486 21.9303C20.4016 21.4975 20.896 20.993 21.3191 20.4297C21.4097 20.3107 21.4546 20.1625 21.4453 20.0126C21.436 19.8626 21.3733 19.7212 21.2688 19.6146L20.4785 18.8143L20.608 18.5895C20.8198 18.1941 20.9883 17.7765 21.1106 17.3441L21.1832 17.1058H22.3137C22.4598 17.1055 22.6009 17.0522 22.7115 16.9555C22.8221 16.8589 22.8947 16.7252 22.9162 16.5789C22.9682 16.2281 22.9949 15.8739 22.996 15.5192C22.9976 15.1636 22.9755 14.8083 22.9296 14.4557ZM14.9961 19.9968C14.1216 19.9968 13.2667 19.7342 12.5396 19.2422C11.8125 18.7502 11.2457 18.0509 10.9111 17.2327C10.5764 16.4145 10.4888 15.5143 10.6594 14.6457C10.8301 13.7771 11.2512 12.9793 11.8695 12.3531C12.4879 11.7269 13.2758 11.3005 14.1335 11.1277C14.9912 10.9549 15.8802 11.0436 16.6882 11.3825C17.4961 11.7214 18.1867 12.2953 18.6725 13.0316C19.1584 13.768 19.4177 14.6337 19.4177 15.5192C19.4177 16.7068 18.9518 17.8456 18.1226 18.6853C17.2934 19.525 16.1688 19.9968 14.9961 19.9968Z" fill="#13A9E1"/>
<path d="M17.8705 16.5313L16.2972 16.106L15.0639 17.0173L13.8639 16.106L12.1872 16.5347C12.1001 16.5584 12.0211 16.6058 11.9588 16.6719C11.8965 16.738 11.8533 16.8201 11.8339 16.9093L11.7539 17.5135C12.0953 18.0841 12.5777 18.5548 13.1534 18.8791C13.7291 19.2034 14.3784 19.3703 15.0372 19.3631C15.6959 19.3559 16.3415 19.1751 16.9103 18.8383C17.479 18.5016 17.9512 18.0205 18.2805 17.4427L18.2205 16.9161C18.2043 16.8249 18.1628 16.7403 18.1008 16.6721C18.0388 16.604 17.9589 16.5551 17.8705 16.5313Z" fill="#13A9E1"/>
<path d="M14.8244 15.6719C14.8812 15.6756 15.1507 15.6767 15.2219 15.6674C16.0163 15.5635 16.4567 14.1517 16.4567 13.404C16.4567 13.0127 16.3032 12.6375 16.03 12.3608C15.7568 12.0841 15.3862 11.9287 14.9998 11.9287C14.6134 11.9287 14.2429 12.0841 13.9697 12.3608C13.6965 12.6375 13.543 13.0127 13.543 13.404C13.543 14.1662 14.0007 15.6186 14.8244 15.6719Z" fill="#13A9E1"/>
</svg>
