<svg width="33" height="32" viewBox="0 0 33 32" fill="none" xmlns="http://www.w3.org/2000/svg">
<circle cx="16.5015" cy="16.1524" r="15.7241" fill="white"/>
<path d="M11.1786 9.86279C10.9114 9.86282 10.6948 10.0794 10.6948 10.3466V19.5392H22.3064V12.7657C22.3061 12.3861 21.8886 12.1547 21.5665 12.3556L18.4359 14.3126V12.7657C18.4355 12.3861 18.0181 12.1547 17.696 12.3556L14.5653 14.3126V10.3466C14.5653 10.0794 14.3487 9.86282 14.0815 9.86279H11.1786ZM10.6948 20.5068C10.4276 20.5068 10.211 20.7234 10.2109 20.9906V21.9583C10.211 22.2255 10.4276 22.4421 10.6948 22.4421H22.3064C22.5736 22.4421 22.7902 22.2255 22.7902 21.9583V20.9906C22.7902 20.7234 22.5736 20.5068 22.3064 20.5068H10.6948Z" fill="#13A9E1"/>
</svg>
