<svg width="33" height="32" viewBox="0 0 33 32" fill="none" xmlns="http://www.w3.org/2000/svg">
<rect x="0.902344" y="0.428223" width="31.4483" height="31.4483" rx="15.7241" fill="white"/>
<path fill-rule="evenodd" clip-rule="evenodd" d="M20.9443 19.9701H23.1009C23.6985 18.9519 24.0646 17.7805 24.1263 16.5287H21.479C21.4472 17.7657 21.2572 18.9328 20.9443 19.9701ZM10.6584 11.5812H12.5668C12.9273 10.6446 13.4333 9.74597 14.1006 9.0569C12.7269 9.54913 11.5341 10.4325 10.6584 11.5812ZM13.374 11.5812C13.96 10.1916 14.9506 8.87549 16.2517 8.65234V11.5812H13.374ZM17.002 11.5812H19.8797C19.2937 10.1916 18.3031 8.87549 17.002 8.65234V11.5812ZM20.687 11.5812C20.3264 10.6446 19.8204 9.74597 19.1531 9.0569C20.5263 9.54913 21.7197 10.4325 22.5954 11.5812H20.687ZM23.1015 12.3346H20.9443C21.2572 13.3718 21.4466 14.539 21.479 15.776H24.127C24.0652 14.5237 23.6991 13.3529 23.1015 12.3346ZM20.1596 12.3346H17.002V15.776H20.7278C20.6936 14.5243 20.4914 13.3534 20.1596 12.3346ZM16.2517 12.3346H13.0941C12.7623 13.354 12.56 14.5242 12.5258 15.776H16.2516L16.2517 12.3346ZM12.3096 12.3346H10.1524C9.55477 13.3522 9.18872 14.5236 9.127 15.776H11.7749C11.8067 14.539 11.9967 13.3719 12.3096 12.3346ZM22.5956 20.7235H20.6871C20.3266 21.6601 19.8206 22.5587 19.1533 23.2478C20.5264 22.7556 21.7204 21.8722 22.5956 20.7235ZM19.8799 20.7235C19.2939 22.1131 18.3033 23.4292 17.0022 23.6523V20.7235H19.8799ZM16.2519 20.7235H13.3742C13.9602 22.1131 14.9508 23.4292 16.2519 23.6523V20.7235ZM12.5669 20.7235C12.9275 21.6601 13.4335 22.5587 14.1008 23.2478C12.727 22.7556 11.5342 21.8722 10.6585 20.7235H12.5669ZM10.1524 19.9701H12.309C11.9961 18.9329 11.8066 17.7657 11.7742 16.5287H9.12695C9.18867 17.781 9.55477 18.9524 10.1524 19.9701ZM13.0943 19.9701H16.2519V16.5287H12.5261C12.5603 17.7804 12.7625 18.9513 13.0943 19.9701ZM17.0022 19.9701H20.1598C20.4916 18.9507 20.6939 17.7805 20.7281 16.5287H17.0023L17.0022 19.9701Z" fill="#13A9E1"/>
</svg>
