<svg width="33" height="32" viewBox="0 0 33 32" fill="none" xmlns="http://www.w3.org/2000/svg">
<rect x="0.902344" y="0.428223" width="31.4483" height="31.4483" rx="15.7241" fill="white"/>
<path d="M13.9404 20.542L14.751 19.8901C16.6323 18.3789 17.627 16.3945 17.627 14.1523C17.627 13.9731 17.5308 13.8071 17.375 13.7183L13.875 11.7183C13.7217 11.6304 13.5322 11.6304 13.3789 11.7183L9.87891 13.7183C9.72314 13.8071 9.62695 13.9731 9.62695 14.1523C9.62695 16.3945 10.6216 18.3789 12.5024 19.8901L13.3135 20.542C13.4053 20.6157 13.5161 20.6523 13.627 20.6523C13.7378 20.6523 13.8486 20.6157 13.9404 20.542ZM13.2733 17.0059L12.2733 16.0059C12.078 15.8105 12.078 15.4941 12.2733 15.2988C12.4686 15.1035 12.785 15.1035 12.9803 15.2988L13.5726 15.8911L14.7269 14.3523C14.8929 14.1316 15.2059 14.0862 15.4266 14.2524C15.6478 14.418 15.6927 14.7314 15.5267 14.9524L14.0267 16.9524C13.9398 17.0684 13.807 17.1409 13.6625 17.1511C13.6503 17.1519 13.6385 17.1523 13.6268 17.1523C13.4945 17.1523 13.3676 17.1001 13.2733 17.0059Z" fill="#13A9E1"/>
<path d="M23.334 11.8594L20.9199 9.44522C20.7323 9.25769 20.478 9.15234 20.2127 9.15234H14.127C13.8508 9.15234 13.627 9.37619 13.627 9.65234V11.1523C13.8013 11.1523 13.9727 11.198 14.1235 11.2844L15.6424 12.1523H21.377C21.5151 12.1523 21.627 12.2642 21.627 12.4023C21.627 12.5405 21.5151 12.6523 21.377 12.6523H16.5174L17.623 13.2842C17.7789 13.3732 17.9051 13.5015 17.9922 13.6523H21.377C21.5151 13.6523 21.627 13.7642 21.627 13.9023C21.627 14.0405 21.5151 14.1523 21.377 14.1523H18.127C18.127 14.4921 18.1001 14.8245 18.058 15.1523H21.377C21.5151 15.1523 21.627 15.2642 21.627 15.4023C21.627 15.5405 21.5151 15.6523 21.377 15.6523H17.972C17.9046 15.9927 17.8201 16.3276 17.7065 16.6523H21.377C21.5151 16.6523 21.627 16.7642 21.627 16.9023C21.627 17.0405 21.5151 17.1523 21.377 17.1523H17.5013C17.352 17.4955 17.1816 17.8304 16.9792 18.1523H21.377C21.5151 18.1523 21.627 18.2642 21.627 18.4023C21.627 18.5405 21.5151 18.6523 21.377 18.6523H16.6297C16.3722 18.999 16.0935 19.3362 15.7715 19.6523H21.377C21.5151 19.6523 21.627 19.7642 21.627 19.9023C21.627 20.0405 21.5151 20.1523 21.377 20.1523H15.2079C15.1581 20.194 15.115 20.239 15.064 20.28L14.2539 20.9316C14.0767 21.074 13.854 21.1523 13.627 21.1523V22.6523C13.627 22.9285 13.8508 23.1523 14.127 23.1523H23.127C23.4031 23.1523 23.627 22.9285 23.627 22.6523V12.5666C23.627 12.3013 23.5216 12.047 23.334 11.8594Z" fill="#13A9E1"/>
</svg>
