<svg width="253" height="40" viewBox="0 0 253 40" fill="none" xmlns="http://www.w3.org/2000/svg">
<path fill-rule="evenodd" clip-rule="evenodd" d="M43.3588 1.75581C44.8346 1.77279 46.3187 1.94041 47.4551 2.54723C50.5484 4.19918 49.1194 7.06088 48.4342 9.42705C47.636 12.1835 42.9954 28.0289 42.8375 28.2123L33.546 0L27.6973 0.00770622C27.5093 0.855459 27.162 1.86299 26.8941 2.74316L22.9513 16.0936C22.7167 16.8849 22.6931 16.6765 22.9457 17.4674C23.0779 17.8811 23.2186 18.3269 23.3592 18.7673C23.4918 19.1826 24.0442 21.1124 24.2058 21.3578C24.2826 21.2567 26.9821 12.3623 27.2709 11.1034C27.4895 11.3071 27.8344 12.5454 27.923 12.8153L34.4 32.2025C35.0757 34.193 36.0816 37.4943 36.7642 39.2485L42.9272 39.2304C43.9834 35.7891 44.9348 32.336 45.9755 28.8702L52.0537 8.25543C52.64 6.24125 52.9689 4.96478 54.24 3.72799C55.5032 2.49893 56.7777 1.99907 58.8625 1.74115L58.8511 0.00153115L43.357 0.00373533L43.3588 1.75581Z" fill="white"/>
<path fill-rule="evenodd" clip-rule="evenodd" d="M15.571 34.1045C16.1348 35.7955 16.7615 37.5097 17.2871 39.2495L19.0779 39.2429C19.5594 37.5175 20.1113 35.8686 20.5965 34.1394C21.0735 32.439 21.5661 30.8091 22.0941 29.0592C22.2322 28.6011 22.8342 26.8329 22.7582 26.479L20.285 19.0745C19.1352 15.7512 18.0947 12.5693 16.979 9.16636C16.5166 7.7559 15.4268 5.41653 16.0289 3.8345C16.6107 2.30561 18.5482 1.79341 20.506 1.75052L20.4885 0.00317383L0 0.0152043L0.00408026 1.74885C1.92718 1.904 3.40667 2.516 4.64908 3.97078C6.09461 5.66342 6.29816 6.38514 6.99495 8.46659L13.8553 28.9869C14.4257 30.7265 14.986 32.3498 15.571 34.1045Z" fill="#13A9E1"/>
<path d="M241.461 0.401855H244.417V14.7305H253V17.2842H241.461V0.401855Z" fill="white"/>
<path d="M230.678 0.4021H233.823L240.325 17.2844H237.157L235.572 12.8156H228.834L227.249 17.2844H224.199L230.678 0.4021ZM229.637 10.5693H234.792L232.262 3.3104H232.191L229.637 10.5693Z" fill="white"/>
<path d="M220.967 5.76942C220.841 5.28077 220.668 4.83152 220.447 4.42168C220.226 4.01184 219.943 3.65716 219.596 3.35767C219.249 3.05817 218.839 2.8296 218.366 2.67197C217.909 2.49858 217.373 2.41188 216.758 2.41188C215.86 2.41188 215.08 2.59316 214.418 2.95571C213.771 3.31826 213.243 3.80692 212.833 4.42168C212.423 5.02067 212.116 5.70637 211.911 6.47876C211.722 7.25116 211.627 8.03931 211.627 8.84323C211.627 9.64715 211.722 10.4353 211.911 11.2077C212.116 11.9801 212.423 12.6737 212.833 13.2884C213.243 13.8874 213.771 14.3682 214.418 14.7308C215.08 15.0933 215.86 15.2746 216.758 15.2746C217.42 15.2746 218.004 15.1642 218.508 14.9436C219.012 14.7071 219.446 14.3919 219.809 13.9978C220.171 13.5879 220.455 13.115 220.66 12.5791C220.865 12.0431 220.999 11.4678 221.062 10.853H223.946C223.883 11.8619 223.663 12.784 223.284 13.6195C222.922 14.4549 222.425 15.18 221.795 15.7948C221.164 16.3938 220.423 16.8588 219.572 17.1898C218.721 17.5208 217.783 17.6863 216.758 17.6863C215.497 17.6863 214.362 17.4578 213.354 17.0006C212.36 16.5278 211.517 15.8893 210.824 15.0854C210.13 14.2815 209.594 13.3436 209.216 12.2717C208.853 11.1998 208.672 10.057 208.672 8.84323C208.672 7.64523 208.853 6.51029 209.216 5.4384C209.594 4.36651 210.13 3.4286 210.824 2.62468C211.517 1.82076 212.36 1.18236 213.354 0.709462C214.362 0.236569 215.497 0.00012207 216.758 0.00012207C217.704 0.00012207 218.595 0.134108 219.43 0.402081C220.266 0.654291 220.999 1.03261 221.629 1.53703C222.275 2.02568 222.796 2.62468 223.19 3.33402C223.584 4.04336 223.828 4.85516 223.923 5.76942H220.967Z" fill="white"/>
<path d="M203.465 0.4021H206.42V17.2844H203.465V0.4021Z" fill="white"/>
<path d="M188.314 0.4021H201.981V2.95573H196.614V17.2844H193.658V2.95573H188.314V0.4021Z" fill="white"/>
<path d="M173.141 0.4021H176.096V10.2383C176.096 10.8058 176.12 11.3811 176.167 11.9643C176.23 12.5476 176.388 13.0756 176.64 13.5485C176.908 14.0057 177.302 14.384 177.822 14.6835C178.358 14.983 179.107 15.1327 180.069 15.1327C181.03 15.1327 181.771 14.983 182.291 14.6835C182.827 14.384 183.221 14.0057 183.473 13.5485C183.741 13.0756 183.899 12.5476 183.946 11.9643C184.009 11.3811 184.041 10.8058 184.041 10.2383V0.4021H186.996V11.2077C186.996 12.2954 186.831 13.2412 186.5 14.0451C186.169 14.849 185.696 15.5268 185.081 16.0785C184.482 16.6145 183.757 17.0164 182.906 17.2844C182.055 17.5524 181.109 17.6864 180.069 17.6864C179.028 17.6864 178.082 17.5524 177.231 17.2844C176.38 17.0164 175.647 16.6145 175.032 16.0785C174.433 15.5268 173.968 14.849 173.637 14.0451C173.306 13.2412 173.141 12.2954 173.141 11.2077V0.4021Z" fill="white"/>
<path d="M162.549 0.4021H165.694L172.196 17.2844H169.028L167.443 12.8156H160.705L159.12 17.2844H156.07L162.549 0.4021ZM161.509 10.5693H166.663L164.133 3.3104H164.062L161.509 10.5693Z" fill="white"/>
<path d="M141.322 0.4021H144.443L152.152 12.8392H152.199V0.4021H155.013V17.2844H151.891L144.207 4.87094H144.136V17.2844H141.322V0.4021Z" fill="white"/>
<path d="M120.184 0.4021H133.85V2.95573H128.483V17.2844H125.527V2.95573H120.184V0.4021Z" fill="white"/>
<path d="M108.87 11.6569C108.87 12.3032 108.98 12.8549 109.201 13.3121C109.421 13.7692 109.729 14.1475 110.123 14.447C110.517 14.7308 110.966 14.9436 111.471 15.0854C111.991 15.2115 112.55 15.2746 113.149 15.2746C113.796 15.2746 114.347 15.2037 114.804 15.0618C115.262 14.9042 115.632 14.7071 115.916 14.4707C116.199 14.2342 116.404 13.9662 116.531 13.6667C116.657 13.3515 116.72 13.0362 116.72 12.721C116.72 12.0747 116.57 11.6018 116.27 11.3023C115.987 10.987 115.671 10.7663 115.325 10.6402C114.726 10.4195 114.024 10.2146 113.22 10.0255C112.432 9.82055 111.455 9.56045 110.288 9.24519C109.563 9.05603 108.956 8.81171 108.468 8.51221C107.995 8.19694 107.616 7.85016 107.333 7.47184C107.049 7.09353 106.844 6.69157 106.718 6.26596C106.608 5.84036 106.552 5.40687 106.552 4.9655C106.552 4.1143 106.726 3.38131 107.073 2.76655C107.435 2.13602 107.908 1.61584 108.491 1.206C109.075 0.796159 109.737 0.49666 110.477 0.307502C111.218 0.102582 111.967 0.00012207 112.724 0.00012207C113.606 0.00012207 114.434 0.118345 115.206 0.354792C115.995 0.575476 116.68 0.914382 117.264 1.37151C117.863 1.82864 118.335 2.39612 118.682 3.07393C119.029 3.73598 119.202 4.50837 119.202 5.39111H116.247C116.168 4.30345 115.798 3.53894 115.135 3.09757C114.473 2.64044 113.63 2.41188 112.606 2.41188C112.259 2.41188 111.904 2.45129 111.541 2.5301C111.179 2.59316 110.848 2.71138 110.548 2.88477C110.249 3.0424 109.997 3.26309 109.792 3.54682C109.603 3.83056 109.508 4.18523 109.508 4.61084C109.508 5.20983 109.689 5.68273 110.052 6.02952C110.43 6.36054 110.919 6.61275 111.518 6.78614C111.581 6.80191 111.825 6.87284 112.251 6.99895C112.692 7.10929 113.181 7.23539 113.717 7.37726C114.253 7.51913 114.773 7.661 115.277 7.80287C115.798 7.92897 116.168 8.02355 116.389 8.0866C116.94 8.26 117.421 8.49644 117.831 8.79594C118.241 9.09544 118.58 9.44223 118.848 9.83631C119.131 10.2146 119.336 10.6245 119.462 11.0658C119.604 11.5072 119.675 11.9486 119.675 12.3899C119.675 13.3357 119.478 14.1475 119.084 14.8253C118.706 15.4874 118.201 16.0312 117.571 16.4568C116.94 16.8824 116.223 17.1898 115.419 17.379C114.615 17.5839 113.796 17.6863 112.96 17.6863C111.999 17.6863 111.092 17.5681 110.241 17.3317C109.39 17.0952 108.649 16.7327 108.018 16.244C107.388 15.7554 106.883 15.1327 106.505 14.3761C106.127 13.6037 105.93 12.6973 105.914 11.6569H108.87Z" fill="white"/>
<path d="M92.5137 0.4021H104.667V2.95573H95.4693V7.37728H103.981V9.78904H95.4693V14.7308H104.833V17.2844H92.5137V0.4021Z" fill="white"/>
<path d="M69 0.401855H72.0029L75.053 13.3119H75.1003L78.5052 0.401855H81.5317L84.8419 13.3119H84.8892L88.034 0.401855H91.0368L86.3788 17.2842H83.376L79.9948 4.37416H79.9475L76.4954 17.2842H73.4452L69 0.401855Z" fill="white"/>
<path d="M244.754 39.2402V28.1583H249.693C250.274 28.1583 250.796 28.2955 251.261 28.5699C251.736 28.8337 252.105 29.2031 252.369 29.6781C252.643 30.1425 252.78 30.6649 252.78 31.2454C252.78 31.7942 252.659 32.2797 252.416 32.7018C252.173 33.124 251.899 33.4301 251.593 33.6201V33.6992C251.941 33.8681 252.253 34.1741 252.527 34.6174C252.801 35.0501 252.939 35.562 252.939 36.1531C252.939 36.7335 252.801 37.2612 252.527 37.7362C252.263 38.2006 251.894 38.57 251.419 38.8444C250.954 39.1082 250.432 39.2402 249.852 39.2402H244.754ZM249.582 32.971C250.005 32.971 250.363 32.8127 250.659 32.496C250.965 32.1794 251.118 31.7889 251.118 31.3245C251.118 30.8496 250.965 30.4538 250.659 30.1372C250.363 29.8205 250.005 29.6622 249.582 29.6622H246.416V32.971H249.582ZM249.741 37.7362C250.163 37.7362 250.522 37.5779 250.817 37.2612C251.123 36.9446 251.276 36.5488 251.276 36.0739C251.276 35.6095 251.123 35.219 250.817 34.9024C250.522 34.5858 250.163 34.4274 249.741 34.4274H246.416V37.7362H249.741Z" fill="white"/>
<path d="M237.491 39.3984C236.51 39.3984 235.613 39.1556 234.8 38.6702C233.998 38.1847 233.359 37.5092 232.884 36.6438C232.409 35.7783 232.172 34.7968 232.172 33.6991C232.172 32.6015 232.409 31.62 232.884 30.7545C233.359 29.8891 233.998 29.2136 234.8 28.7281C235.613 28.2426 236.51 27.9999 237.491 27.9999C238.473 27.9999 239.37 28.2426 240.182 28.7281C240.995 29.2136 241.639 29.8891 242.114 30.7545C242.589 31.62 242.826 32.6015 242.826 33.6991C242.826 34.7968 242.589 35.7783 242.114 36.6438C241.639 37.5092 240.995 38.1847 240.182 38.6702C239.37 39.1556 238.473 39.3984 237.491 39.3984ZM237.491 37.8153C238.167 37.8153 238.784 37.6464 239.343 37.3087C239.903 36.9604 240.346 36.4749 240.673 35.8522C241 35.2189 241.164 34.5013 241.164 33.6991C241.164 32.897 241 32.1846 240.673 31.5619C240.346 30.9287 239.903 30.4432 239.343 30.1054C238.784 29.7571 238.167 29.583 237.491 29.583C236.826 29.583 236.214 29.7571 235.655 30.1054C235.095 30.4432 234.652 30.9287 234.325 31.5619C233.998 32.1846 233.834 32.897 233.834 33.6991C233.834 34.5013 233.998 35.2189 234.325 35.8522C234.652 36.4749 235.095 36.9604 235.655 37.3087C236.214 37.6464 236.826 37.8153 237.491 37.8153Z" fill="white"/>
<path d="M222.506 39.2401V28.1582H227.429C228.052 28.1582 228.617 28.3112 229.123 28.6173C229.63 28.9128 230.026 29.3297 230.311 29.868C230.606 30.4062 230.754 31.0184 230.754 31.7044C230.754 32.3904 230.606 33.0078 230.311 33.5567C230.026 34.0949 229.63 34.5171 229.123 34.8232C228.617 35.1187 228.052 35.2664 227.429 35.2664H224.168V39.2401H222.506ZM227.382 33.6833C227.857 33.6833 228.258 33.5039 228.585 33.1451C228.923 32.7757 229.092 32.2954 229.092 31.7044C229.092 31.1134 228.928 30.6384 228.601 30.2796C228.274 29.9208 227.867 29.7413 227.382 29.7413H224.168V33.6833H227.382Z" fill="white"/>
<path d="M220.468 39.2402H213.201V28.1583H220.468V29.6939H214.863V32.9235H220.151V34.4274H214.863V37.7045H220.468V39.2402Z" fill="white"/>
<path d="M208.182 39.2401H206.52V29.7413H203.037V28.1582H211.649V29.7413H208.182V39.2401Z" fill="white"/>
<path d="M203.663 39.2402H201.874L200.925 36.5805H195.827L194.877 39.2402H193.072L197.157 28.1583H199.595L203.663 39.2402ZM198.217 29.9314L196.365 35.0765H200.386L198.534 29.9314H198.217Z" fill="white"/>
<path d="M186.865 39.2401H185.203V28.1582H186.865V33.24L191.092 28.1582H193.135L188.575 33.62L193.451 39.2401H191.393L186.865 33.9841V39.2401Z" fill="white"/>
<path d="M172.49 39.2401H170.084V28.1582H171.746V36.8179H172.063L176.575 28.1582H178.981V39.2401H177.319V30.5804H177.002L172.49 39.2401Z" fill="white"/>
<path d="M161.883 39.2401H160.221V29.7413H156.738V28.1582H165.35V29.7413H161.883V39.2401Z" fill="white"/>
<path d="M148.412 39.2401H146.48L150.312 33.5408L146.718 28.1582H148.634L151.277 32.1952H151.594L154.222 28.1582H156.138L152.544 33.5408L156.375 39.2401H154.444L151.594 34.9182H151.277L148.412 39.2401Z" fill="white"/>
<path d="M145.258 28.1583V39.2402H143.595V35.1873H142.677L138.799 39.2402H136.725L140.667 35.1399H140.16C139.601 35.1399 139.078 34.9974 138.593 34.7124C138.107 34.4274 137.717 34.0211 137.421 33.4934C137.126 32.9657 136.978 32.3641 136.978 31.6886C136.978 31.0132 137.12 30.4063 137.405 29.868C137.701 29.3298 138.102 28.9129 138.609 28.6174C139.115 28.3113 139.68 28.1583 140.302 28.1583H145.258ZM143.595 33.6517V29.7097H140.35C139.875 29.7097 139.469 29.8944 139.131 30.2638C138.804 30.6227 138.64 31.0976 138.64 31.6886C138.64 32.2691 138.804 32.7441 139.131 33.1135C139.469 33.4723 139.875 33.6517 140.35 33.6517H143.595Z" fill="white"/>
<path d="M126.851 39.3984C125.869 39.3984 124.972 39.1556 124.159 38.6702C123.357 38.1847 122.719 37.5092 122.244 36.6438C121.769 35.7783 121.531 34.7968 121.531 33.6991C121.531 32.6015 121.769 31.62 122.244 30.7545C122.719 29.8891 123.357 29.2136 124.159 28.7281C124.972 28.2426 125.869 27.9999 126.851 27.9999C127.695 27.9999 128.46 28.174 129.146 28.5223C129.832 28.86 130.402 29.3244 130.856 29.9155C131.32 30.5065 131.642 31.1661 131.822 31.8944H130.096C129.864 31.2083 129.457 30.6543 128.877 30.2321C128.307 29.7994 127.632 29.583 126.851 29.583C126.186 29.583 125.573 29.7571 125.014 30.1054C124.455 30.4432 124.011 30.9287 123.684 31.5619C123.357 32.1846 123.194 32.897 123.194 33.6991C123.194 34.5013 123.357 35.2189 123.684 35.8522C124.011 36.4749 124.455 36.9604 125.014 37.3087C125.573 37.6464 126.186 37.8153 126.851 37.8153C127.653 37.8153 128.339 37.5989 128.909 37.1662C129.479 36.7229 129.874 36.1424 130.096 35.4247H131.822C131.642 36.1741 131.326 36.8496 130.872 37.4511C130.418 38.0527 129.848 38.5277 129.162 38.876C128.476 39.2242 127.705 39.3984 126.851 39.3984Z" fill="white"/>
<path d="M113.109 39.2401H110.703V28.1582H112.365V36.8179H112.682L117.194 28.1582H119.6V39.2401H117.938V30.5804H117.621L113.109 39.2401Z" fill="white"/>
<path d="M100.455 39.2401V28.1582H105.394C105.975 28.1582 106.497 28.2954 106.962 28.5698C107.437 28.8337 107.806 29.2031 108.07 29.678C108.344 30.1424 108.482 30.6648 108.482 31.2453C108.482 31.7941 108.36 32.2796 108.117 32.7018C107.875 33.1239 107.6 33.43 107.294 33.62V33.6991C107.642 33.868 107.954 34.1741 108.228 34.6174C108.503 35.0501 108.64 35.562 108.64 36.153C108.64 36.7335 108.503 37.2612 108.228 37.7361C107.964 38.2005 107.595 38.5699 107.12 38.8443C106.656 39.1082 106.133 39.2401 105.553 39.2401H100.455ZM105.284 32.9709C105.706 32.9709 106.065 32.8126 106.36 32.496C106.666 32.1793 106.819 31.7888 106.819 31.3245C106.819 30.8495 106.666 30.4537 106.36 30.1371C106.065 29.8205 105.706 29.6622 105.284 29.6622H102.117V32.9709H105.284ZM105.442 37.7361C105.864 37.7361 106.223 37.5778 106.518 37.2612C106.825 36.9446 106.978 36.5488 106.978 36.0738C106.978 35.6095 106.825 35.2189 106.518 34.9023C106.223 34.5857 105.864 34.4274 105.442 34.4274H102.117V37.7361H105.442Z" fill="white"/>
<path d="M90.3145 39.2402V28.1583H95.238C95.8607 28.1583 96.4253 28.3113 96.9319 28.6174C97.4385 28.9129 97.8343 29.3298 98.1193 29.868C98.4148 30.4063 98.5625 31.0184 98.5625 31.7045C98.5625 32.3905 98.4148 33.0079 98.1193 33.5567C97.8343 34.095 97.4385 34.5172 96.9319 34.8232C96.4253 35.1187 95.8607 35.2665 95.238 35.2665H91.9767V39.2402H90.3145ZM95.1905 33.6834C95.6654 33.6834 96.0665 33.504 96.3937 33.1451C96.7314 32.7757 96.9003 32.2955 96.9003 31.7045C96.9003 31.1134 96.7367 30.6385 96.4095 30.2797C96.0823 29.9208 95.676 29.7414 95.1905 29.7414H91.9767V33.6834H95.1905Z" fill="white"/>
<path d="M88.2724 39.2401H81.0059V28.1582H88.2724V29.6938H82.6681V32.9234H87.9558V34.4274H82.6681V37.7045H88.2724V39.2401Z" fill="white"/>
<path d="M74.3193 39.3985C73.3378 39.3985 72.4407 39.1557 71.628 38.6702C70.8259 38.1847 70.1873 37.5093 69.7124 36.6438C69.2375 35.7784 69 34.7968 69 33.6992C69 32.6016 69.2375 31.62 69.7124 30.7546C70.1873 29.8891 70.8259 29.2137 71.628 28.7282C72.4407 28.2427 73.3378 27.9999 74.3193 27.9999C75.1636 27.9999 75.9288 28.1741 76.6148 28.5224C77.3009 28.8601 77.8708 29.3245 78.3246 29.9155C78.789 30.5066 79.1109 31.1662 79.2903 31.8944H77.5647C77.3325 31.2084 76.9262 30.6543 76.3457 30.2321C75.7758 29.7994 75.1003 29.5831 74.3193 29.5831C73.6544 29.5831 73.0423 29.7572 72.4829 30.1055C71.9235 30.4432 71.4802 30.9287 71.1531 31.562C70.8259 32.1847 70.6623 32.8971 70.6623 33.6992C70.6623 34.5013 70.8259 35.219 71.1531 35.8522C71.4802 36.4749 71.9235 36.9604 72.4829 37.3087C73.0423 37.6465 73.6544 37.8153 74.3193 37.8153C75.1214 37.8153 75.8074 37.599 76.3774 37.1662C76.9473 36.723 77.3431 36.1425 77.5647 35.4248H79.2903C79.1109 36.1742 78.7943 36.8496 78.3404 37.4512C77.8866 38.0528 77.3167 38.5277 76.6307 38.876C75.9446 39.2243 75.1742 39.3985 74.3193 39.3985Z" fill="white"/>
</svg>
