<svg width="56" height="56" viewBox="0 0 56 56" fill="none" xmlns="http://www.w3.org/2000/svg">
<rect x="-0.5" y="0.5" width="55" height="55" rx="27.5" transform="matrix(-1 0 0 1 55 0)" stroke="white"/>
<path d="M32.8289 32.0003C33.057 32.2288 33.057 32.5994 32.8289 32.8286C32.717 32.9356 32.57 32.9971 32.4149 33C32.2599 33 32.1115 32.9385 32.0018 32.8286L28 28.8211L23.9982 32.8286C23.8885 32.9385 23.7401 33 23.5851 33C23.43 32.9971 23.283 32.9356 23.1711 32.8286C22.943 32.5994 22.943 32.2288 23.1711 32.0003L27.1729 27.9928L23.1711 23.9853C22.9569 23.7546 22.9627 23.395 23.1858 23.1716C23.4088 22.9483 23.7679 22.9424 23.9982 23.157L28 27.1645L32.0018 23.157C32.2321 22.9424 32.5912 22.9483 32.8142 23.1716C33.0373 23.395 33.0432 23.7546 32.8289 23.9853L28.8271 27.9928L32.8289 32.0003Z" fill="white"/>
</svg>
