<svg width="50" height="50" viewBox="0 0 50 50" fill="none" xmlns="http://www.w3.org/2000/svg">
<circle cx="25" cy="25" r="25" fill="white"/>
<path fill-rule="evenodd" clip-rule="evenodd" d="M28.5163 22.4413C29.3474 22.6013 30.2402 22.6895 31.1711 22.6895C34.1786 22.6895 36.7763 21.7555 38.2711 20.5521C38.2877 20.665 38.2949 20.7791 38.2949 20.8932C38.2949 21.8473 37.7428 22.7719 36.6908 23.4883C35.4441 24.3352 33.4388 24.9152 31.171 24.9152C30.3352 24.9152 29.5361 24.8352 28.7964 24.694V23.9729C28.7964 23.4565 28.705 22.9413 28.5163 22.4413ZM28.7965 26.5987C29.5469 26.7257 30.3435 26.7963 31.1711 26.7963C34.1785 26.7963 36.7763 25.8622 38.2711 24.6577C38.2877 24.7706 38.2949 24.8859 38.2949 25C38.2949 25.954 37.7428 26.8786 36.6908 27.5938C35.4441 28.442 33.4388 29.0219 31.171 29.0219C30.3352 29.0219 29.5361 28.9419 28.7964 28.8008L28.7965 26.5987ZM28.7965 30.7054C29.5469 30.8324 30.3435 30.903 31.1711 30.903C34.0112 30.903 36.4833 30.0713 38.01 28.9656C38.1988 29.3408 38.295 29.7337 38.295 30.1337C38.295 31.0877 37.7429 32.0123 36.6909 32.7275C35.4442 33.5757 33.4389 34.1545 31.1712 34.1545C30.3139 34.1545 29.4947 34.0721 28.7384 33.9227C28.7764 33.6874 28.7965 33.451 28.7965 33.2134L28.7965 30.7054ZM31.1711 12.7661C33.4389 12.7661 35.4444 13.3449 36.6909 14.193C37.7428 14.9083 38.2949 15.834 38.2949 16.7869C38.2949 17.7409 37.7428 18.6655 36.6909 19.3819C35.4442 20.2301 33.4389 20.8089 31.1711 20.8089C28.9033 20.8089 26.8978 20.2301 25.6513 19.3819C24.5994 18.6655 24.0473 17.7409 24.0473 16.7869C24.0473 15.834 24.5994 14.9083 25.6513 14.193C26.898 13.3449 28.9033 12.7661 31.1711 12.7661ZM26.8969 31.7748V33.2134C26.8969 34.1686 26.308 35.1085 25.1741 35.8249C23.8479 36.6637 21.713 37.2342 19.2981 37.2342C16.8843 37.2342 14.7495 36.6637 13.4221 35.8249C12.2871 35.1085 11.6993 34.1686 11.6993 33.2134V31.7748C13.2322 33.0076 16.0367 33.9828 19.2981 33.9828C22.5595 33.9828 25.3653 33.0076 26.8969 31.7748ZM26.8637 27.6939C26.8862 27.821 26.8969 27.9504 26.8969 28.0798C26.8969 29.0361 26.308 29.9749 25.1741 30.6924C23.8479 31.5312 21.713 32.1017 19.2981 32.1017C16.8843 32.1017 14.7495 31.5312 13.4221 30.6924C12.2871 29.9749 11.6993 29.0361 11.6993 28.0798C11.6993 27.9504 11.71 27.821 11.7314 27.6939C13.2701 28.9138 16.0591 29.8772 19.2983 29.8772C22.5375 29.8772 25.326 28.9138 26.8637 27.6939ZM19.298 19.9524C21.713 19.9524 23.8479 20.5229 25.174 21.3616C26.3079 22.078 26.8968 23.0179 26.8968 23.9731C26.8968 24.9295 26.3079 25.8683 25.174 26.5858C23.8478 27.4246 21.7129 27.9951 19.298 27.9951C16.8842 27.9951 14.7494 27.4246 13.422 26.5858C12.2869 25.8683 11.6992 24.9295 11.6992 23.9731C11.6992 23.0179 12.2869 22.078 13.422 21.3616C14.7494 20.5229 16.8843 19.9524 19.298 19.9524Z" fill="#13A9E1"/>
</svg>
