<svg width="50" height="50" viewBox="0 0 50 50" fill="none" xmlns="http://www.w3.org/2000/svg">
<circle cx="25" cy="25" r="25" fill="white"/>
<path d="M33.0899 33.3965C31.862 35.8049 29.6213 37.2343 27.0862 37.2343H27.0046C26.837 37.2321 26.6852 37.1392 26.6081 36.9896C26.5311 36.8424 26.5424 36.6634 26.6353 36.5252C27.8588 34.7376 27.4306 31.1762 25.131 29.2141C22.9674 31.1852 22.3171 34.1011 23.5224 36.5817C23.5972 36.7358 23.5791 36.917 23.4748 37.053C23.3729 37.1889 23.2007 37.2546 23.0331 37.2252C19.0729 36.5092 17.3466 34.3206 16.5943 32.6125C15.525 30.177 15.7855 27.1003 17.2559 24.7737C18.0375 23.5389 19.1068 22.5308 20.1445 21.5565C22.3897 19.445 24.508 17.4513 23.6267 13.3143C23.5882 13.1308 23.6652 12.945 23.8193 12.8408C23.9756 12.7388 24.1773 12.7411 24.329 12.8498C28.0085 15.4462 27.6819 19.402 27.161 21.5294C26.9073 22.567 27.0998 23.292 27.7025 23.5729C28.2643 23.8335 29.0573 23.6477 29.4017 23.1764C29.8004 22.6282 30.147 21.9236 30.3555 21.2439C30.4053 21.0808 30.5435 20.9607 30.7112 20.9312C30.8811 20.9018 31.051 20.9698 31.1507 21.108C34.744 25.9268 34.5081 30.6167 33.0899 33.3965Z" fill="#13A9E1"/>
</svg>
